STARTFONT 2.3
FONT -FontForge-Rajdhani-Book-R-Normal--12-120-72-72-P-73-ISO10646-1
SIZE 12 72 72  4
FONTBOUNDINGBOX 30 16 -5 -4
COMMENT "Generated by fontforge, http://fontforge.sourceforge.net"
COMMENT "Copyright (c) 2014 Indian Type Foundry (info@indiantypefoundry.com)"
STARTPROPERTIES 41
FOUNDRY "FontForge"
FAMILY_NAME "Rajdhani"
WEIGHT_NAME "Book"
SLANT "R"
SETWIDTH_NAME "Normal"
ADD_STYLE_NAME ""
PIXEL_SIZE 12
POINT_SIZE 120
RESOLUTION_X 72
RESOLUTION_Y 72
SPACING "P"
AVERAGE_WIDTH 73
CHARSET_REGISTRY "ISO10646"
CHARSET_ENCODING "1"
FONTNAME_REGISTRY ""
CHARSET_COLLECTIONS "ISO8859-2 ISO8859-9 ISO8859-4 ISO10646-1"
BITS_PER_PIXEL 4
FONT_NAME "Rajdhani-Regular"
FACE_NAME "Rajdhani Regular"
COPYRIGHT "Copyright (c) 2014 Indian Type Foundry (info@indiantypefoundry.com)"
FONT_VERSION "1.201;PS 1.0;hotconv 1.0.78;makeotf.lib2.5.61930; ttfautohint (v1.1) -l 7 -r 28 -G 50 -x 13 -D latn -f deva -w G"
FONT_ASCENT 10
FONT_DESCENT 2
UNDERLINE_POSITION -1
UNDERLINE_THICKNESS 1
X_HEIGHT 5
CAP_HEIGHT 7
DEFAULT_CHAR 3
RAW_ASCENT 800
RAW_DESCENT 200
NORM_SPACE 3
RELATIVE_WEIGHT 40
RELATIVE_SETWIDTH 50
SUPERSCRIPT_X 0
SUPERSCRIPT_Y 4
SUPERSCRIPT_SIZE 7
SUBSCRIPT_X 0
SUBSCRIPT_Y 0
SUBSCRIPT_SIZE 7
AVG_LOWERCASE_WIDTH 54
AVG_UPPERCASE_WIDTH 63
ENDPROPERTIES
CHARS 1043
STARTCHAR NULL.dup1
ENCODING 0
SWIDTH 0 0
DWIDTH 0 0
BBX 1 1 0 0
BITMAP
00
ENDCHAR
STARTCHAR CR
ENCODING 13
SWIDTH 0 0
DWIDTH 0 0
BBX 1 1 0 0
BITMAP
00
ENDCHAR
STARTCHAR space
ENCODING 32
SWIDTH 267 0
DWIDTH 3 0
BBX 1 1 0 0
BITMAP
00
ENDCHAR
STARTCHAR exclam
ENCODING 33
SWIDTH 237 0
DWIDTH 3 0
BBX 1 8 1 0
BITMAP
A0
A0
A0
90
70
00
60
90
ENDCHAR
STARTCHAR quotedbl
ENCODING 34
SWIDTH 330 0
DWIDTH 4 0
BBX 4 3 0 5
BITMAP
3563
2452
1120
ENDCHAR
STARTCHAR numbersign
ENCODING 35
SWIDTH 677 0
DWIDTH 8 0
BBX 8 8 0 0
BITMAP
00070080
00080170
049A8A93
00710800
00800800
28B8AA50
04307100
07008000
ENDCHAR
STARTCHAR dollar
ENCODING 36
SWIDTH 504 0
DWIDTH 6 0
BBX 6 12 0 -2
BITMAP
000100
002700
088880
180072
360031
180000
068880
000073
270063
098890
002700
000100
ENDCHAR
STARTCHAR percent
ENCODING 37
SWIDTH 717 0
DWIDTH 9 0
BBX 8 8 0 0
BITMAP
28750610
62070700
52085300
17728000
00025565
00071707
00170707
00620877
ENDCHAR
STARTCHAR ampersand
ENCODING 38
SWIDTH 597 0
DWIDTH 7 0
BBX 7 8 0 0
BITMAP
01988000
05307300
06404300
03C10000
046D8840
27067000
27009400
09888920
ENDCHAR
STARTCHAR quotesingle
ENCODING 39
SWIDTH 186 0
DWIDTH 2 0
BBX 2 3 0 5
BITMAP
36
25
01
ENDCHAR
STARTCHAR parenleft
ENCODING 40
SWIDTH 283 0
DWIDTH 3 0
BBX 3 9 0 -1
BITMAP
0840
4400
5300
5300
5300
5300
5300
3500
0640
ENDCHAR
STARTCHAR parenright
ENCODING 41
SWIDTH 283 0
DWIDTH 3 0
BBX 3 9 0 -1
BITMAP
2920
0080
0080
0080
0080
0080
0080
0170
2710
ENDCHAR
STARTCHAR asterisk
ENCODING 42
SWIDTH 406 0
DWIDTH 5 0
BBX 4 3 0 5
BITMAP
0070
1767
0645
ENDCHAR
STARTCHAR plus
ENCODING 43
SWIDTH 523 0
DWIDTH 6 0
BBX 6 5 0 1
BITMAP
002600
002600
189B83
002600
001300
ENDCHAR
STARTCHAR comma
ENCODING 44
SWIDTH 191 0
DWIDTH 2 0
BBX 2 3 0 -1
BITMAP
37
36
32
ENDCHAR
STARTCHAR hyphen
ENCODING 45
SWIDTH 312 0
DWIDTH 4 0
BBX 4 1 0 3
BITMAP
4882
ENDCHAR
STARTCHAR period
ENCODING 46
SWIDTH 191 0
DWIDTH 2 0
BBX 2 2 0 0
BITMAP
25
37
ENDCHAR
STARTCHAR slash
ENCODING 47
SWIDTH 396 0
DWIDTH 5 0
BBX 4 8 0 0
BITMAP
0009
0018
0063
0090
0280
0730
0900
2700
ENDCHAR
STARTCHAR zero
ENCODING 48
SWIDTH 514 0
DWIDTH 6 0
BBX 6 8 0 0
BITMAP
098891
270045
360045
360045
360045
360045
270045
098891
ENDCHAR
STARTCHAR one
ENCODING 49
SWIDTH 317 0
DWIDTH 4 0
BBX 3 8 0 0
BITMAP
18B0
4290
0090
0090
0090
0090
0090
0090
ENDCHAR
STARTCHAR two
ENCODING 50
SWIDTH 478 0
DWIDTH 6 0
BBX 5 8 0 0
BITMAP
098870
450090
220090
000580
007700
094000
370000
4B8880
ENDCHAR
STARTCHAR three
ENCODING 51
SWIDTH 496 0
DWIDTH 6 0
BBX 6 8 0 0
BITMAP
088880
360081
230072
000080
003980
010081
360072
098890
ENDCHAR
STARTCHAR four
ENCODING 52
SWIDTH 520 0
DWIDTH 6 0
BBX 6 8 0 0
BITMAP
0005B0
000990
007390
019090
082090
280090
5988C6
000080
ENDCHAR
STARTCHAR five
ENCODING 53
SWIDTH 482 0
DWIDTH 6 0
BBX 6 8 0 0
BITMAP
3B8880
360000
360000
3A7860
130091
110072
360081
098880
ENDCHAR
STARTCHAR six
ENCODING 54
SWIDTH 497 0
DWIDTH 6 0
BBX 6 8 0 0
BITMAP
098860
450000
450000
4A8860
450082
450063
450072
098880
ENDCHAR
STARTCHAR seven
ENCODING 55
SWIDTH 380 0
DWIDTH 5 0
BBX 5 8 0 0
BITMAP
788B40
000910
001900
006400
00A000
028000
073000
0A0000
ENDCHAR
STARTCHAR eight
ENCODING 56
SWIDTH 519 0
DWIDTH 6 0
BBX 6 8 0 0
BITMAP
088891
270035
360026
180054
0988B0
270035
370036
098892
ENDCHAR
STARTCHAR nine
ENCODING 57
SWIDTH 497 0
DWIDTH 6 0
BBX 6 8 0 0
BITMAP
098880
450072
540063
460063
0788B3
000073
000072
088880
ENDCHAR
STARTCHAR colon
ENCODING 58
SWIDTH 191 0
DWIDTH 2 0
BBX 2 6 0 0
BITMAP
37
25
00
00
25
37
ENDCHAR
STARTCHAR semicolon
ENCODING 59
SWIDTH 191 0
DWIDTH 2 0
BBX 2 7 0 -1
BITMAP
37
25
00
00
26
36
32
ENDCHAR
STARTCHAR less
ENCODING 60
SWIDTH 513 0
DWIDTH 6 0
BBX 6 4 0 2
BITMAP
000383
168510
186100
002782
ENDCHAR
STARTCHAR equal
ENCODING 61
SWIDTH 531 0
DWIDTH 6 0
BBX 6 3 0 2
BITMAP
188883
000000
178883
ENDCHAR
STARTCHAR greater
ENCODING 62
SWIDTH 531 0
DWIDTH 6 0
BBX 6 4 0 2
BITMAP
185000
004872
000584
188300
ENDCHAR
STARTCHAR question
ENCODING 63
SWIDTH 473 0
DWIDTH 6 0
BBX 5 8 0 0
BITMAP
088950
180090
130090
000920
004500
003100
004200
006400
ENDCHAR
STARTCHAR at
ENCODING 64
SWIDTH 753 0
DWIDTH 9 0
BBX 8 8 1 -1
BITMAP
04666640
63779270
73605361
74405361
73607370
70676850
63000000
05777200
ENDCHAR
STARTCHAR A
ENCODING 65
SWIDTH 533 0
DWIDTH 6 0
BBX 6 8 0 0
BITMAP
005B00
009810
009360
045090
081090
0C88A5
360019
810009
ENDCHAR
STARTCHAR B
ENCODING 66
SWIDTH 546 0
DWIDTH 7 0
BBX 5 8 1 0
BITMAP
C88920
900180
900090
900280
C88B20
900090
900090
C88950
ENDCHAR
STARTCHAR C
ENCODING 67
SWIDTH 542 0
DWIDTH 7 0
BBX 6 8 0 0
BITMAP
088894
180009
180004
180000
180000
180004
180009
088894
ENDCHAR
STARTCHAR D
ENCODING 68
SWIDTH 557 0
DWIDTH 7 0
BBX 5 8 1 0
BITMAP
C88940
900090
900090
900090
900090
900090
900090
C88940
ENDCHAR
STARTCHAR E
ENCODING 69
SWIDTH 481 0
DWIDTH 6 0
BBX 4 8 1 0
BITMAP
C888
9000
9000
9000
C885
9000
9000
C888
ENDCHAR
STARTCHAR F
ENCODING 70
SWIDTH 459 0
DWIDTH 6 0
BBX 4 8 1 0
BITMAP
C888
9000
9000
9000
C885
9000
9000
9000
ENDCHAR
STARTCHAR G
ENCODING 71
SWIDTH 539 0
DWIDTH 6 0
BBX 6 8 0 0
BITMAP
088892
180028
180006
180000
180586
180009
180018
088893
ENDCHAR
STARTCHAR H
ENCODING 72
SWIDTH 570 0
DWIDTH 7 0
BBX 5 8 1 0
BITMAP
900090
900090
900090
900090
C888B0
900090
900090
900090
ENDCHAR
STARTCHAR I
ENCODING 73
SWIDTH 230 0
DWIDTH 3 0
BBX 1 8 1 0
BITMAP
90
90
90
90
90
90
90
90
ENDCHAR
STARTCHAR J
ENCODING 74
SWIDTH 499 0
DWIDTH 6 0
BBX 5 8 0 0
BITMAP
000080
000090
000090
000090
000090
710090
820090
298870
ENDCHAR
STARTCHAR K
ENCODING 75
SWIDTH 530 0
DWIDTH 6 0
BBX 5 8 1 0
BITMAP
900560
902900
90A100
976000
C7A000
B03700
900830
900090
ENDCHAR
STARTCHAR L
ENCODING 76
SWIDTH 451 0
DWIDTH 5 0
BBX 5 8 1 0
BITMAP
900000
900000
900000
900000
900000
900000
900000
C88810
ENDCHAR
STARTCHAR M
ENCODING 77
SWIDTH 696 0
DWIDTH 8 0
BBX 7 8 1 0
BITMAP
E1000B50
B7002B50
99008550
94509450
90963450
907A0450
90120450
90000450
ENDCHAR
STARTCHAR N
ENCODING 78
SWIDTH 579 0
DWIDTH 7 0
BBX 5 8 1 0
BITMAP
C00090
D60090
991090
928090
908290
901990
9006C0
9000B0
ENDCHAR
STARTCHAR O
ENCODING 79
SWIDTH 553 0
DWIDTH 7 0
BBX 6 8 0 0
BITMAP
088894
180009
180009
180009
180009
180009
180009
088894
ENDCHAR
STARTCHAR P
ENCODING 80
SWIDTH 524 0
DWIDTH 6 0
BBX 5 8 1 0
BITMAP
C88A30
900180
900090
900280
C88810
900000
900000
900000
ENDCHAR
STARTCHAR Q
ENCODING 81
SWIDTH 556 0
DWIDTH 7 0
BBX 6 10 0 -2
BITMAP
088894
190009
180009
180009
180009
180009
190009
088894
000360
000090
ENDCHAR
STARTCHAR R
ENCODING 82
SWIDTH 534 0
DWIDTH 6 0
BBX 5 8 1 0
BITMAP
C88920
900180
900080
900270
C89910
901900
900820
900280
ENDCHAR
STARTCHAR S
ENCODING 83
SWIDTH 562 0
DWIDTH 7 0
BBX 5 8 1 0
BITMAP
788940
900090
900020
784100
015A50
300090
900090
788940
ENDCHAR
STARTCHAR T
ENCODING 84
SWIDTH 420 0
DWIDTH 5 0
BBX 5 8 0 0
BITMAP
68C860
009000
009000
009000
009000
009000
009000
009000
ENDCHAR
STARTCHAR U
ENCODING 85
SWIDTH 552 0
DWIDTH 7 0
BBX 6 8 0 0
BITMAP
180009
180009
180009
180009
180009
180009
090009
078893
ENDCHAR
STARTCHAR V
ENCODING 86
SWIDTH 500 0
DWIDTH 6 0
BBX 6 8 0 0
BITMAP
810018
450054
090090
090090
063360
027720
009900
008800
ENDCHAR
STARTCHAR W
ENCODING 87
SWIDTH 794 0
DWIDTH 10 0
BBX 10 8 0 0
BITMAP
8200B30091
55009700A0
2803580090
0907181360
0908044630
0728018900
0494009900
01E1008800
ENDCHAR
STARTCHAR X
ENCODING 88
SWIDTH 504 0
DWIDTH 6 0
BBX 6 8 0 0
BITMAP
460055
091090
028730
008800
009A00
055550
0A00A0
640046
ENDCHAR
STARTCHAR Y
ENCODING 89
SWIDTH 493 0
DWIDTH 6 0
BBX 6 8 0 0
BITMAP
730046
1900A0
082370
018910
008700
005400
005400
005400
ENDCHAR
STARTCHAR Z
ENCODING 90
SWIDTH 482 0
DWIDTH 6 0
BBX 6 8 0 0
BITMAP
3999D2
000290
000920
003700
00A100
065000
1A0000
7B9992
ENDCHAR
STARTCHAR bracketleft
ENCODING 91
SWIDTH 287 0
DWIDTH 3 0
BBX 3 9 0 -1
BITMAP
3A40
4500
4500
4500
4500
4500
4500
4500
2840
ENDCHAR
STARTCHAR backslash
ENCODING 92
SWIDTH 396 0
DWIDTH 5 0
BBX 4 8 0 0
BITMAP
2700
0A00
0730
0280
00A0
0063
0018
0009
ENDCHAR
STARTCHAR bracketright
ENCODING 93
SWIDTH 287 0
DWIDTH 3 0
BBX 3 9 0 -1
BITMAP
2780
0080
0080
0080
0080
0080
0080
0080
2760
ENDCHAR
STARTCHAR asciicircum
ENCODING 94
SWIDTH 465 0
DWIDTH 6 0
BBX 5 4 0 4
BITMAP
00A600
064910
090270
220040
ENDCHAR
STARTCHAR underscore
ENCODING 95
SWIDTH 372 0
DWIDTH 4 0
BBX 5 1 0 -1
BITMAP
666630
ENDCHAR
STARTCHAR grave
ENCODING 96
SWIDTH 269 0
DWIDTH 3 0
BBX 3 2 0 6
BITMAP
1A00
0220
ENDCHAR
STARTCHAR a
ENCODING 97
SWIDTH 502 0
DWIDTH 6 0
BBX 6 6 0 0
BITMAP
0988B2
360072
360072
360072
360082
0988B2
ENDCHAR
STARTCHAR b
ENCODING 98
SWIDTH 504 0
DWIDTH 6 0
BBX 6 8 0 0
BITMAP
170000
180000
1B8890
180063
180054
180054
180063
1C8890
ENDCHAR
STARTCHAR c
ENCODING 99
SWIDTH 394 0
DWIDTH 5 0
BBX 5 6 0 0
BITMAP
098820
360000
360000
360000
360000
098820
ENDCHAR
STARTCHAR d
ENCODING 100
SWIDTH 504 0
DWIDTH 6 0
BBX 6 8 0 0
BITMAP
000072
000072
0988B2
360082
360072
360072
360082
0988B2
ENDCHAR
STARTCHAR e
ENCODING 101
SWIDTH 492 0
DWIDTH 6 0
BBX 6 6 0 0
BITMAP
098880
370072
360063
3A7792
360000
098880
ENDCHAR
STARTCHAR f
ENCODING 102
SWIDTH 303 0
DWIDTH 4 0
BBX 4 8 0 0
BITMAP
04A3
0810
4C83
0810
0810
0810
0810
0810
ENDCHAR
STARTCHAR g
ENCODING 103
SWIDTH 506 0
DWIDTH 6 0
BBX 6 8 0 -2
BITMAP
0888B3
270063
360063
360063
180083
0688A3
000072
078880
ENDCHAR
STARTCHAR h
ENCODING 104
SWIDTH 507 0
DWIDTH 6 0
BBX 6 8 0 0
BITMAP
170000
180000
1B8890
180063
180054
180054
180054
170054
ENDCHAR
STARTCHAR i
ENCODING 105
SWIDTH 210 0
DWIDTH 3 0
BBX 2 8 0 0
BITMAP
18
03
18
18
18
18
18
18
ENDCHAR
STARTCHAR j
ENCODING 106
SWIDTH 210 0
DWIDTH 3 0
BBX 3 10 -1 -2
BITMAP
0180
0030
0180
0180
0180
0180
0180
0180
0280
5A20
ENDCHAR
STARTCHAR k
ENCODING 107
SWIDTH 431 0
DWIDTH 5 0
BBX 5 8 0 0
BITMAP
170000
180000
180370
180A00
187300
185500
180920
170190
ENDCHAR
STARTCHAR l
ENCODING 108
SWIDTH 210 0
DWIDTH 3 0
BBX 2 8 0 0
BITMAP
18
18
18
18
18
18
18
18
ENDCHAR
STARTCHAR m
ENCODING 109
SWIDTH 769 0
DWIDTH 9 0
BBX 9 6 0 0
BITMAP
1B88778910
1800A00450
1800900360
1800900360
1800900360
1700900360
ENDCHAR
STARTCHAR n
ENCODING 110
SWIDTH 507 0
DWIDTH 6 0
BBX 6 6 0 0
BITMAP
1B8890
180063
180054
180054
180054
170054
ENDCHAR
STARTCHAR o
ENCODING 111
SWIDTH 496 0
DWIDTH 6 0
BBX 6 6 0 0
BITMAP
098880
360072
360063
360063
360072
098890
ENDCHAR
STARTCHAR p
ENCODING 112
SWIDTH 504 0
DWIDTH 6 0
BBX 6 8 0 -2
BITMAP
1B8890
180063
180054
180054
180063
1B8890
180000
170000
ENDCHAR
STARTCHAR q
ENCODING 113
SWIDTH 502 0
DWIDTH 6 0
BBX 6 8 0 -2
BITMAP
0988B2
360072
360072
360072
360082
0988B2
000072
000072
ENDCHAR
STARTCHAR r
ENCODING 114
SWIDTH 313 0
DWIDTH 4 0
BBX 4 6 0 0
BITMAP
1B73
1900
1800
1800
1800
1700
ENDCHAR
STARTCHAR s
ENCODING 115
SWIDTH 431 0
DWIDTH 5 0
BBX 5 6 0 0
BITMAP
2A8810
540000
197100
002940
000280
288930
ENDCHAR
STARTCHAR t
ENCODING 116
SWIDTH 347 0
DWIDTH 4 0
BBX 4 7 0 0
BITMAP
0900
5D84
0900
0900
0900
0900
0495
ENDCHAR
STARTCHAR u
ENCODING 117
SWIDTH 507 0
DWIDTH 6 0
BBX 6 6 0 0
BITMAP
260063
270063
270063
270063
270073
0988B3
ENDCHAR
STARTCHAR v
ENCODING 118
SWIDTH 416 0
DWIDTH 5 0
BBX 5 6 0 0
BITMAP
900180
540550
180900
090900
067500
01D100
ENDCHAR
STARTCHAR w
ENCODING 119
SWIDTH 683 0
DWIDTH 8 0
BBX 8 6 0 0
BITMAP
90058009
54088018
18087154
09263590
07820890
02C00950
ENDCHAR
STARTCHAR x
ENCODING 120
SWIDTH 413 0
DWIDTH 5 0
BBX 5 6 0 0
BITMAP
650640
0A1900
03B200
04B300
0A0900
740460
ENDCHAR
STARTCHAR y
ENCODING 121
SWIDTH 459 0
DWIDTH 6 0
BBX 6 8 0 -2
BITMAP
810081
360090
090460
082910
037900
00B500
009100
395000
ENDCHAR
STARTCHAR z
ENCODING 122
SWIDTH 405 0
DWIDTH 5 0
BBX 5 6 0 0
BITMAP
488C40
001A00
009200
047000
0A0000
7B8840
ENDCHAR
STARTCHAR braceleft
ENCODING 123
SWIDTH 298 0
DWIDTH 4 0
BBX 3 9 0 -1
BITMAP
0570
0800
0800
0800
5700
0800
0800
0800
0360
ENDCHAR
STARTCHAR bar
ENCODING 124
SWIDTH 207 0
DWIDTH 2 0
BBX 1 8 1 0
BITMAP
70
70
70
70
70
70
70
70
ENDCHAR
STARTCHAR braceright
ENCODING 125
SWIDTH 298 0
DWIDTH 4 0
BBX 3 9 0 -1
BITMAP
4700
0800
0800
0700
03A0
0800
0800
0800
4500
ENDCHAR
STARTCHAR asciitilde
ENCODING 126
SWIDTH 523 0
DWIDTH 6 0
BBX 6 1 0 3
BITMAP
167662
ENDCHAR
STARTCHAR uni00A0
ENCODING 160
SWIDTH 267 0
DWIDTH 3 0
BBX 1 1 0 0
BITMAP
00
ENDCHAR
STARTCHAR exclamdown
ENCODING 161
SWIDTH 237 0
DWIDTH 3 0
BBX 1 8 1 0
BITMAP
90
60
10
70
90
A0
A0
A0
ENDCHAR
STARTCHAR cent
ENCODING 162
SWIDTH 414 0
DWIDTH 5 0
BBX 5 9 0 -1
BITMAP
000100
003600
098840
360000
360000
360000
360000
098840
003600
ENDCHAR
STARTCHAR sterling
ENCODING 163
SWIDTH 528 0
DWIDTH 6 0
BBX 6 8 0 0
BITMAP
039891
090036
090002
090000
4C8700
090000
090000
5C8884
ENDCHAR
STARTCHAR yen
ENCODING 165
SWIDTH 499 0
DWIDTH 6 0
BBX 6 8 0 0
BITMAP
730037
290091
0A1190
046740
47BB74
47A974
005400
005400
ENDCHAR
STARTCHAR brokenbar
ENCODING 166
SWIDTH 201 0
DWIDTH 2 0
BBX 2 8 0 0
BITMAP
17
17
17
01
01
17
17
17
ENDCHAR
STARTCHAR section
ENCODING 167
SWIDTH 454 0
DWIDTH 5 0
BBX 5 8 0 0
BITMAP
1A8830
460000
4A6300
452680
1A4190
0158B0
0000A0
188950
ENDCHAR
STARTCHAR dieresis
ENCODING 168
SWIDTH 345 0
DWIDTH 4 0
BBX 4 2 0 6
BITMAP
3635
1323
ENDCHAR
STARTCHAR copyright
ENCODING 169
SWIDTH 723 0
DWIDTH 9 0
BBX 8 8 0 0
BITMAP
08777775
26000007
25186707
25430507
25430007
25430707
26066507
08777775
ENDCHAR
STARTCHAR guillemotleft
ENCODING 171
SWIDTH 431 0
DWIDTH 5 0
BBX 5 4 0 1
BITMAP
026530
174500
184600
016430
ENDCHAR
STARTCHAR registered
ENCODING 174
SWIDTH 439 0
DWIDTH 5 0
BBX 5 3 0 5
BITMAP
17D940
338460
055620
ENDCHAR
STARTCHAR macron
ENCODING 175
SWIDTH 358 0
DWIDTH 4 0
BBX 4 1 0 7
BITMAP
1773
ENDCHAR
STARTCHAR degree
ENCODING 176
SWIDTH 298 0
DWIDTH 4 0
BBX 3 3 0 5
BITMAP
0860
1560
0740
ENDCHAR
STARTCHAR plusminus
ENCODING 177
SWIDTH 523 0
DWIDTH 6 0
BBX 6 5 0 1
BITMAP
002600
189B83
002600
001200
188883
ENDCHAR
STARTCHAR acute
ENCODING 180
SWIDTH 269 0
DWIDTH 3 0
BBX 3 2 0 6
BITMAP
0920
1300
ENDCHAR
STARTCHAR paragraph
ENCODING 182
SWIDTH 513 0
DWIDTH 6 0
BBX 6 8 0 0
BITMAP
2DC8B1
6F9062
6F9062
2D9062
008062
008062
008062
008061
ENDCHAR
STARTCHAR periodcentered
ENCODING 183
SWIDTH 207 0
DWIDTH 2 0
BBX 2 2 0 3
BITMAP
16
19
ENDCHAR
STARTCHAR cedilla
ENCODING 184
SWIDTH 257 0
DWIDTH 3 0
BBX 3 3 0 -2
BITMAP
0400
1910
1710
ENDCHAR
STARTCHAR guillemotright
ENCODING 187
SWIDTH 431 0
DWIDTH 5 0
BBX 5 4 0 1
BITMAP
265300
036630
045720
255200
ENDCHAR
STARTCHAR questiondown
ENCODING 191
SWIDTH 473 0
DWIDTH 6 0
BBX 5 8 0 0
BITMAP
009100
006100
004000
009000
056000
190040
180090
088950
ENDCHAR
STARTCHAR Agrave
ENCODING 192
SWIDTH 532 0
DWIDTH 6 0
BBX 6 10 0 0
BITMAP
01A000
002200
005B00
009810
009360
045090
081090
0C88A5
360019
810009
ENDCHAR
STARTCHAR Aacute
ENCODING 193
SWIDTH 532 0
DWIDTH 6 0
BBX 6 10 0 0
BITMAP
000650
000400
005B00
009810
009360
045090
081090
0C88A5
360019
810009
ENDCHAR
STARTCHAR Acircumflex
ENCODING 194
SWIDTH 532 0
DWIDTH 6 0
BBX 6 10 0 0
BITMAP
005800
004220
005B00
009810
009360
045090
081090
0C88A5
360019
810009
ENDCHAR
STARTCHAR Atilde
ENCODING 195
SWIDTH 532 0
DWIDTH 6 0
BBX 6 10 0 0
BITMAP
013530
006230
005B00
009810
009360
045090
081090
0C88A5
360019
810009
ENDCHAR
STARTCHAR Adieresis
ENCODING 196
SWIDTH 532 0
DWIDTH 6 0
BBX 6 10 0 0
BITMAP
018270
004130
005B00
009810
009360
045090
081090
0C88A5
360019
810009
ENDCHAR
STARTCHAR Aring
ENCODING 197
SWIDTH 532 0
DWIDTH 6 0
BBX 6 11 0 0
BITMAP
004600
006420
006520
007E00
009810
009360
045090
081090
0C88A5
360019
810009
ENDCHAR
STARTCHAR AE
ENCODING 198
SWIDTH 773 0
DWIDTH 9 0
BBX 9 8 0 0
BITMAP
0002E98840
0009820000
0027720000
0091720000
0360798810
0A98C20000
4600720000
9000798840
ENDCHAR
STARTCHAR Ccedilla
ENCODING 199
SWIDTH 542 0
DWIDTH 7 0
BBX 6 10 0 -2
BITMAP
088894
180009
180004
180000
180000
180004
180009
088894
001A00
001610
ENDCHAR
STARTCHAR Egrave
ENCODING 200
SWIDTH 481 0
DWIDTH 6 0
BBX 4 10 1 0
BITMAP
1900
0220
C888
9000
9000
9000
C885
9000
9000
C888
ENDCHAR
STARTCHAR Eacute
ENCODING 201
SWIDTH 481 0
DWIDTH 6 0
BBX 4 10 1 0
BITMAP
0091
0120
C888
9000
9000
9000
C885
9000
9000
C888
ENDCHAR
STARTCHAR Ecircumflex
ENCODING 202
SWIDTH 481 0
DWIDTH 6 0
BBX 4 10 1 0
BITMAP
0770
0330
C888
9000
9000
9000
C885
9000
9000
C888
ENDCHAR
STARTCHAR Edieresis
ENCODING 203
SWIDTH 481 0
DWIDTH 6 0
BBX 4 10 1 0
BITMAP
4554
2222
C888
9000
9000
9000
C885
9000
9000
C888
ENDCHAR
STARTCHAR Igrave
ENCODING 204
SWIDTH 230 0
DWIDTH 3 0
BBX 2 10 0 0
BITMAP
91
13
09
09
09
09
09
09
09
09
ENDCHAR
STARTCHAR Iacute
ENCODING 205
SWIDTH 231 0
DWIDTH 3 0
BBX 2 10 1 0
BITMAP
46
40
90
90
90
90
90
90
90
90
ENDCHAR
STARTCHAR Icircumflex
ENCODING 206
SWIDTH 229 0
DWIDTH 3 0
BBX 3 10 0 0
BITMAP
3910
4130
0900
0900
0900
0900
0900
0900
0900
0900
ENDCHAR
STARTCHAR Idieresis
ENCODING 207
SWIDTH 230 0
DWIDTH 3 0
BBX 3 10 0 0
BITMAP
9090
4040
0900
0900
0900
0900
0900
0900
0900
0900
ENDCHAR
STARTCHAR Eth
ENCODING 208
SWIDTH 514 0
DWIDTH 6 0
BBX 6 8 0 0
BITMAP
0C8895
090009
090009
090009
5C8509
090009
090009
0C8895
ENDCHAR
STARTCHAR Ntilde
ENCODING 209
SWIDTH 579 0
DWIDTH 7 0
BBX 5 10 1 0
BITMAP
034400
054400
C00090
D60090
991090
928090
908290
901990
9006C0
9000B0
ENDCHAR
STARTCHAR Ograve
ENCODING 210
SWIDTH 553 0
DWIDTH 7 0
BBX 6 10 0 0
BITMAP
009100
001300
088894
180009
180009
180009
180009
180009
180009
088894
ENDCHAR
STARTCHAR Oacute
ENCODING 211
SWIDTH 553 0
DWIDTH 7 0
BBX 6 10 0 0
BITMAP
000650
000400
088894
180009
180009
180009
180009
180009
180009
088894
ENDCHAR
STARTCHAR Ocircumflex
ENCODING 212
SWIDTH 553 0
DWIDTH 7 0
BBX 6 10 0 0
BITMAP
004910
004130
088894
180009
180009
180009
180009
180009
180009
088894
ENDCHAR
STARTCHAR Otilde
ENCODING 213
SWIDTH 553 0
DWIDTH 7 0
BBX 6 10 0 0
BITMAP
004530
006340
088894
180009
180009
180009
180009
180009
180009
088894
ENDCHAR
STARTCHAR Odieresis
ENCODING 214
SWIDTH 553 0
DWIDTH 7 0
BBX 6 10 0 0
BITMAP
008080
004040
088894
180009
180009
180009
180009
180009
180009
088894
ENDCHAR
STARTCHAR multiply
ENCODING 215
SWIDTH 493 0
DWIDTH 6 0
BBX 4 4 1 2
BITMAP
5015
3992
1A90
8237
ENDCHAR
STARTCHAR Oslash
ENCODING 216
SWIDTH 559 0
DWIDTH 7 0
BBX 6 8 0 0
BITMAP
078899
19003B
180179
180719
184409
197009
1D1009
3A8894
ENDCHAR
STARTCHAR Ugrave
ENCODING 217
SWIDTH 552 0
DWIDTH 7 0
BBX 6 10 0 0
BITMAP
009200
000300
180009
180009
180009
180009
180009
180009
090009
078893
ENDCHAR
STARTCHAR Uacute
ENCODING 218
SWIDTH 552 0
DWIDTH 7 0
BBX 6 10 0 0
BITMAP
000650
000400
180009
180009
180009
180009
180009
180009
090009
078893
ENDCHAR
STARTCHAR Ucircumflex
ENCODING 219
SWIDTH 552 0
DWIDTH 7 0
BBX 6 10 0 0
BITMAP
004910
004130
180009
180009
180009
180009
180009
180009
090009
078893
ENDCHAR
STARTCHAR Udieresis
ENCODING 220
SWIDTH 552 0
DWIDTH 7 0
BBX 6 10 0 0
BITMAP
008080
004040
180009
180009
180009
180009
180009
180009
090009
078893
ENDCHAR
STARTCHAR Yacute
ENCODING 221
SWIDTH 493 0
DWIDTH 6 0
BBX 6 10 0 0
BITMAP
000910
001300
730046
1900A0
082370
018910
008700
005400
005400
005400
ENDCHAR
STARTCHAR Thorn
ENCODING 222
SWIDTH 501 0
DWIDTH 6 0
BBX 5 8 1 0
BITMAP
900000
900000
988800
900720
900630
900810
988600
900000
ENDCHAR
STARTCHAR germandbls
ENCODING 223
SWIDTH 540 0
DWIDTH 6 0
BBX 6 8 0 0
BITMAP
078891
090027
180018
180045
1808B1
180018
180009
182894
ENDCHAR
STARTCHAR agrave
ENCODING 224
SWIDTH 502 0
DWIDTH 6 0
BBX 6 8 0 0
BITMAP
008200
000200
0988B2
360072
360072
360072
360082
0988B2
ENDCHAR
STARTCHAR aacute
ENCODING 225
SWIDTH 502 0
DWIDTH 6 0
BBX 6 8 0 0
BITMAP
000820
000200
0988B2
360072
360072
360072
360082
0988B2
ENDCHAR
STARTCHAR acircumflex
ENCODING 226
SWIDTH 502 0
DWIDTH 6 0
BBX 6 8 0 0
BITMAP
006800
002110
0988B2
360072
360072
360072
360082
0988B2
ENDCHAR
STARTCHAR atilde
ENCODING 227
SWIDTH 504 0
DWIDTH 6 0
BBX 6 8 0 0
BITMAP
005650
006240
0988B2
360072
360072
360072
360082
0988B2
ENDCHAR
STARTCHAR adieresis
ENCODING 228
SWIDTH 502 0
DWIDTH 6 0
BBX 6 8 0 0
BITMAP
018270
004130
0988B2
360072
360072
360072
360082
0988B2
ENDCHAR
STARTCHAR aring
ENCODING 229
SWIDTH 502 0
DWIDTH 6 0
BBX 6 9 0 0
BITMAP
004500
005500
004500
0988B2
360072
360072
360072
360082
0988B2
ENDCHAR
STARTCHAR ae
ENCODING 230
SWIDTH 795 0
DWIDTH 10 0
BBX 9 6 0 0
BITMAP
0588798940
0000820080
0677B10080
2700887780
3600820000
0988798860
ENDCHAR
STARTCHAR ccedilla
ENCODING 231
SWIDTH 394 0
DWIDTH 5 0
BBX 5 8 0 -2
BITMAP
098820
360000
360000
360000
360000
098820
007400
004500
ENDCHAR
STARTCHAR egrave
ENCODING 232
SWIDTH 492 0
DWIDTH 6 0
BBX 6 8 0 0
BITMAP
019000
001100
098880
370072
360063
3A7792
360000
098880
ENDCHAR
STARTCHAR eacute
ENCODING 233
SWIDTH 492 0
DWIDTH 6 0
BBX 6 8 0 0
BITMAP
001910
002100
098880
370072
360063
3A7792
360000
098880
ENDCHAR
STARTCHAR ecircumflex
ENCODING 234
SWIDTH 492 0
DWIDTH 6 0
BBX 6 8 0 0
BITMAP
007700
002200
098880
370072
360063
3A7792
360000
098880
ENDCHAR
STARTCHAR edieresis
ENCODING 235
SWIDTH 492 0
DWIDTH 6 0
BBX 6 8 0 0
BITMAP
044540
022220
098880
370072
360063
3A7792
360000
098880
ENDCHAR
STARTCHAR igrave
ENCODING 236
SWIDTH 210 0
DWIDTH 3 0
BBX 2 8 0 0
BITMAP
91
12
18
18
18
18
18
18
ENDCHAR
STARTCHAR iacute
ENCODING 237
SWIDTH 208 0
DWIDTH 3 0
BBX 3 8 0 0
BITMAP
0640
0200
1800
1800
1800
1800
1800
1800
ENDCHAR
STARTCHAR icircumflex
ENCODING 238
SWIDTH 210 0
DWIDTH 3 0
BBX 3 8 0 0
BITMAP
5810
2120
1800
1800
1800
1800
1800
1800
ENDCHAR
STARTCHAR idieresis
ENCODING 239
SWIDTH 210 0
DWIDTH 3 0
BBX 3 8 0 0
BITMAP
8180
4040
1800
1800
1800
1800
1800
1800
ENDCHAR
STARTCHAR eth
ENCODING 240
SWIDTH 488 0
DWIDTH 6 0
BBX 6 9 0 0
BITMAP
010000
028640
009900
041470
0688B1
270092
360082
360081
098880
ENDCHAR
STARTCHAR ntilde
ENCODING 241
SWIDTH 507 0
DWIDTH 6 0
BBX 6 8 0 0
BITMAP
033730
016130
1B8890
180063
180054
180054
180054
170054
ENDCHAR
STARTCHAR ograve
ENCODING 242
SWIDTH 496 0
DWIDTH 6 0
BBX 6 8 0 0
BITMAP
029000
002100
098880
360072
360063
360063
360072
098890
ENDCHAR
STARTCHAR oacute
ENCODING 243
SWIDTH 496 0
DWIDTH 6 0
BBX 6 8 0 0
BITMAP
000920
001200
098880
360072
360063
360063
360072
098890
ENDCHAR
STARTCHAR ocircumflex
ENCODING 244
SWIDTH 496 0
DWIDTH 6 0
BBX 6 8 0 0
BITMAP
007700
002200
098880
360072
360063
360063
360072
098890
ENDCHAR
STARTCHAR otilde
ENCODING 245
SWIDTH 496 0
DWIDTH 6 0
BBX 6 8 0 0
BITMAP
052820
026120
098880
360072
360063
360063
360072
098890
ENDCHAR
STARTCHAR odieresis
ENCODING 246
SWIDTH 496 0
DWIDTH 6 0
BBX 6 8 0 0
BITMAP
044540
022220
098880
360072
360063
360063
360072
098890
ENDCHAR
STARTCHAR divide
ENCODING 247
SWIDTH 510 0
DWIDTH 6 0
BBX 5 4 1 2
BITMAP
034000
000000
777710
034000
ENDCHAR
STARTCHAR oslash
ENCODING 248
SWIDTH 521 0
DWIDTH 6 0
BBX 6 6 0 0
BITMAP
088895
1900A5
180865
188245
1C1054
588891
ENDCHAR
STARTCHAR ugrave
ENCODING 249
SWIDTH 507 0
DWIDTH 6 0
BBX 6 8 0 0
BITMAP
019000
001100
260063
270063
270063
270063
270073
0988B3
ENDCHAR
STARTCHAR uacute
ENCODING 250
SWIDTH 507 0
DWIDTH 6 0
BBX 6 8 0 0
BITMAP
000920
001200
260063
270063
270063
270063
270073
0988B3
ENDCHAR
STARTCHAR ucircumflex
ENCODING 251
SWIDTH 507 0
DWIDTH 6 0
BBX 6 8 0 0
BITMAP
007700
002200
260063
270063
270063
270063
270073
0988B3
ENDCHAR
STARTCHAR udieresis
ENCODING 252
SWIDTH 507 0
DWIDTH 6 0
BBX 6 8 0 0
BITMAP
045440
022220
260063
270063
270063
270063
270073
0988B3
ENDCHAR
STARTCHAR yacute
ENCODING 253
SWIDTH 459 0
DWIDTH 6 0
BBX 6 10 0 -2
BITMAP
001900
002100
810081
360090
090460
082910
037900
00B500
009100
395000
ENDCHAR
STARTCHAR thorn
ENCODING 254
SWIDTH 508 0
DWIDTH 6 0
BBX 6 10 0 -2
BITMAP
180000
180000
1B8890
190054
180045
180045
190054
1B8891
180000
180000
ENDCHAR
STARTCHAR ydieresis
ENCODING 255
SWIDTH 459 0
DWIDTH 6 0
BBX 6 10 0 -2
BITMAP
081800
040400
810081
360090
090460
082910
037900
00B500
009100
395000
ENDCHAR
STARTCHAR Amacron
ENCODING 256
SWIDTH 532 0
DWIDTH 6 0
BBX 6 10 0 0
BITMAP
017740
000000
005B00
009810
009360
045090
081090
0C88A5
360019
810009
ENDCHAR
STARTCHAR amacron
ENCODING 257
SWIDTH 502 0
DWIDTH 6 0
BBX 6 8 0 0
BITMAP
006740
000000
0988B2
360072
360072
360072
360082
0988B2
ENDCHAR
STARTCHAR Abreve
ENCODING 258
SWIDTH 532 0
DWIDTH 6 0
BBX 6 10 0 0
BITMAP
005140
005610
005B00
009810
009360
045090
081090
0C88A5
360019
810009
ENDCHAR
STARTCHAR abreve
ENCODING 259
SWIDTH 502 0
DWIDTH 6 0
BBX 6 8 0 0
BITMAP
006060
005610
0988B2
360072
360072
360072
360082
0988B2
ENDCHAR
STARTCHAR Aogonek
ENCODING 260
SWIDTH 532 0
DWIDTH 6 0
BBX 6 10 0 -2
BITMAP
005B00
009810
009360
045090
081090
0C88A5
360019
810009
000015
000044
ENDCHAR
STARTCHAR aogonek
ENCODING 261
SWIDTH 502 0
DWIDTH 6 0
BBX 6 8 0 -2
BITMAP
0988B2
360072
360072
360072
360082
0988B2
000060
000260
ENDCHAR
STARTCHAR Cacute
ENCODING 262
SWIDTH 542 0
DWIDTH 7 0
BBX 6 10 0 0
BITMAP
000650
000400
088894
180009
180004
180000
180000
180004
180009
088894
ENDCHAR
STARTCHAR cacute
ENCODING 263
SWIDTH 394 0
DWIDTH 5 0
BBX 5 8 0 0
BITMAP
002900
002000
098820
360000
360000
360000
360000
098820
ENDCHAR
STARTCHAR Cdotaccent
ENCODING 266
SWIDTH 542 0
DWIDTH 7 0
BBX 6 11 0 0
BITMAP
000100
000900
000200
088894
180009
180004
180000
180000
180004
180009
088894
ENDCHAR
STARTCHAR cdotaccent
ENCODING 267
SWIDTH 394 0
DWIDTH 5 0
BBX 5 8 0 0
BITMAP
008100
003000
098820
360000
360000
360000
360000
098820
ENDCHAR
STARTCHAR Ccaron
ENCODING 268
SWIDTH 542 0
DWIDTH 7 0
BBX 6 10 0 0
BITMAP
007530
001500
088894
180009
180004
180000
180000
180004
180009
088894
ENDCHAR
STARTCHAR ccaron
ENCODING 269
SWIDTH 394 0
DWIDTH 5 0
BBX 5 8 0 0
BITMAP
026700
003100
098820
360000
360000
360000
360000
098820
ENDCHAR
STARTCHAR Dcaron
ENCODING 270
SWIDTH 557 0
DWIDTH 7 0
BBX 5 10 1 0
BITMAP
075300
015000
C88940
900090
900090
900090
900090
900090
900090
C88940
ENDCHAR
STARTCHAR dcaron
ENCODING 271
SWIDTH 534 0
DWIDTH 6 0
BBX 7 8 0 0
BITMAP
00007470
00007460
0ACBA420
37009200
36007200
36007200
36007200
0988B200
ENDCHAR
STARTCHAR Dcroat
ENCODING 272
SWIDTH 514 0
DWIDTH 6 0
BBX 6 8 0 0
BITMAP
0C8895
090009
090009
5C7509
090009
090009
090009
0C8895
ENDCHAR
STARTCHAR dcroat
ENCODING 273
SWIDTH 539 0
DWIDTH 6 0
BBX 7 8 0 0
BITMAP
00007200
0047B910
00007200
0788A200
27008200
36007200
36007200
0988B200
ENDCHAR
STARTCHAR Emacron
ENCODING 274
SWIDTH 481 0
DWIDTH 6 0
BBX 4 10 1 0
BITMAP
2772
0000
C888
9000
9000
9000
C885
9000
9000
C888
ENDCHAR
STARTCHAR emacron
ENCODING 275
SWIDTH 492 0
DWIDTH 6 0
BBX 6 8 0 0
BITMAP
027720
000000
098880
370072
360063
3A7792
360000
098880
ENDCHAR
STARTCHAR Ebreve
ENCODING 276
SWIDTH 481 0
DWIDTH 6 0
BBX 4 10 1 0
BITMAP
3341
0660
C888
9000
9000
9000
C885
9000
9000
C888
ENDCHAR
STARTCHAR ebreve
ENCODING 277
SWIDTH 492 0
DWIDTH 6 0
BBX 6 8 0 0
BITMAP
033520
006600
098880
370072
360063
3A7792
360000
098880
ENDCHAR
STARTCHAR Edotaccent
ENCODING 278
SWIDTH 496 0
DWIDTH 6 0
BBX 4 10 1 0
BITMAP
0440
0110
C888
9000
9000
9000
C885
9000
9000
C888
ENDCHAR
STARTCHAR edotaccent
ENCODING 279
SWIDTH 492 0
DWIDTH 6 0
BBX 6 8 0 0
BITMAP
005400
002200
098880
370072
360063
3A7792
360000
098880
ENDCHAR
STARTCHAR Eogonek
ENCODING 280
SWIDTH 481 0
DWIDTH 6 0
BBX 4 10 1 -2
BITMAP
C888
9000
9000
9000
C885
9000
9000
C888
0061
0062
ENDCHAR
STARTCHAR eogonek
ENCODING 281
SWIDTH 492 0
DWIDTH 6 0
BBX 6 8 0 -2
BITMAP
098880
370072
360063
3A7792
360000
098880
000610
000720
ENDCHAR
STARTCHAR Ecaron
ENCODING 282
SWIDTH 481 0
DWIDTH 6 0
BBX 4 10 1 0
BITMAP
0770
0330
C888
9000
9000
9000
C885
9000
9000
C888
ENDCHAR
STARTCHAR ecaron
ENCODING 283
SWIDTH 492 0
DWIDTH 6 0
BBX 6 8 0 0
BITMAP
007700
002200
098880
370072
360063
3A7792
360000
098880
ENDCHAR
STARTCHAR Gcircumflex
ENCODING 284
SWIDTH 539 0
DWIDTH 6 0
BBX 6 10 0 0
BITMAP
005800
004220
088892
180028
180006
180000
180586
180009
180018
088893
ENDCHAR
STARTCHAR gcircumflex
ENCODING 285
SWIDTH 506 0
DWIDTH 6 0
BBX 6 10 0 -2
BITMAP
005800
002110
0888B3
270063
360063
360063
180083
0688A3
000072
078880
ENDCHAR
STARTCHAR Gbreve
ENCODING 286
SWIDTH 539 0
DWIDTH 6 0
BBX 6 10 0 0
BITMAP
005050
005610
088892
180028
180006
180000
180586
180009
180018
088893
ENDCHAR
STARTCHAR gbreve
ENCODING 287
SWIDTH 506 0
DWIDTH 6 0
BBX 6 10 0 -2
BITMAP
006060
004620
0888B3
270063
360063
360063
180083
0688A3
000072
078880
ENDCHAR
STARTCHAR Gdotaccent
ENCODING 288
SWIDTH 539 0
DWIDTH 6 0
BBX 6 11 0 0
BITMAP
000100
001800
000200
088892
180028
180006
180000
180586
180009
180018
088893
ENDCHAR
STARTCHAR gdotaccent
ENCODING 289
SWIDTH 506 0
DWIDTH 6 0
BBX 6 10 0 -2
BITMAP
000900
000400
0888B3
270063
360063
360063
180083
0688A3
000072
078880
ENDCHAR
STARTCHAR uni0122
ENCODING 290
SWIDTH 539 0
DWIDTH 6 0
BBX 6 11 0 -3
BITMAP
088892
180028
180006
180000
180586
180009
180018
088893
000400
000900
000500
ENDCHAR
STARTCHAR uni0123
ENCODING 291
SWIDTH 506 0
DWIDTH 6 0
BBX 6 11 0 -2
BITMAP
000500
000800
000300
0888B3
270063
360063
360063
180083
0688A3
000072
078880
ENDCHAR
STARTCHAR hcircumflex
ENCODING 293
SWIDTH 507 0
DWIDTH 6 0
BBX 6 9 0 0
BITMAP
004900
175230
180000
1B8890
180063
180054
180054
180054
170054
ENDCHAR
STARTCHAR Hbar
ENCODING 294
SWIDTH 523 0
DWIDTH 6 0
BBX 7 8 0 0
BITMAP
09000900
0A000900
5C888C50
09000900
0C888C00
09000900
09000900
09000900
ENDCHAR
STARTCHAR hbar
ENCODING 295
SWIDTH 544 0
DWIDTH 7 0
BBX 6 8 0 0
BITMAP
090000
5C7710
090000
097892
0A1019
090009
090009
090009
ENDCHAR
STARTCHAR Itilde
ENCODING 296
SWIDTH 230 0
DWIDTH 3 0
BBX 3 10 0 0
BITMAP
4440
5330
0900
0900
0900
0900
0900
0900
0900
0900
ENDCHAR
STARTCHAR itilde
ENCODING 297
SWIDTH 210 0
DWIDTH 3 0
BBX 3 8 0 0
BITMAP
5650
6240
1800
1800
1800
1800
1800
1800
ENDCHAR
STARTCHAR Imacron
ENCODING 298
SWIDTH 230 0
DWIDTH 3 0
BBX 3 10 0 0
BITMAP
7750
0000
0900
0900
0900
0900
0900
0900
0900
0900
ENDCHAR
STARTCHAR imacron
ENCODING 299
SWIDTH 208 0
DWIDTH 3 0
BBX 3 8 0 0
BITMAP
7740
0000
1800
1800
1800
1800
1800
1800
ENDCHAR
STARTCHAR Ibreve
ENCODING 300
SWIDTH 231 0
DWIDTH 3 0
BBX 3 10 0 0
BITMAP
5050
4620
0900
0900
0900
0900
0900
0900
0900
0900
ENDCHAR
STARTCHAR ibreve
ENCODING 301
SWIDTH 211 0
DWIDTH 3 0
BBX 3 8 0 0
BITMAP
6060
5610
1800
1800
1800
1800
1800
1800
ENDCHAR
STARTCHAR Iogonek
ENCODING 302
SWIDTH 230 0
DWIDTH 3 0
BBX 2 10 0 -2
BITMAP
09
09
09
09
09
09
09
09
43
53
ENDCHAR
STARTCHAR iogonek
ENCODING 303
SWIDTH 210 0
DWIDTH 3 0
BBX 2 10 0 -2
BITMAP
18
03
18
18
18
18
18
18
52
62
ENDCHAR
STARTCHAR Idotaccent
ENCODING 304
SWIDTH 230 0
DWIDTH 3 0
BBX 1 10 1 0
BITMAP
10
90
90
90
90
90
90
90
90
90
ENDCHAR
STARTCHAR dotlessi
ENCODING 305
SWIDTH 212 0
DWIDTH 3 0
BBX 1 6 1 0
BITMAP
80
90
90
90
90
80
ENDCHAR
STARTCHAR IJ
ENCODING 306
SWIDTH 721 0
DWIDTH 9 0
BBX 7 8 1 0
BITMAP
90000090
90000090
90000090
90000090
90000090
90800090
90900090
90598940
ENDCHAR
STARTCHAR ij
ENCODING 307
SWIDTH 419 0
DWIDTH 5 0
BBX 5 10 0 -2
BITMAP
180810
030300
180810
180810
180810
180810
180810
180810
000900
018700
ENDCHAR
STARTCHAR Jcircumflex
ENCODING 308
SWIDTH 494 0
DWIDTH 6 0
BBX 6 10 0 0
BITMAP
000194
000314
000080
000090
000090
000090
000090
710090
820090
298870
ENDCHAR
STARTCHAR jcircumflex
ENCODING 309
SWIDTH 209 0
DWIDTH 3 0
BBX 4 10 -1 -2
BITMAP
0581
0212
0180
0180
0180
0180
0180
0180
0280
5A20
ENDCHAR
STARTCHAR uni0136
ENCODING 310
SWIDTH 530 0
DWIDTH 6 0
BBX 5 11 1 -3
BITMAP
900560
902900
90A100
976000
C7A000
B03700
900830
900090
005000
009000
004000
ENDCHAR
STARTCHAR uni0137
ENCODING 311
SWIDTH 431 0
DWIDTH 5 0
BBX 5 11 0 -3
BITMAP
170000
180000
180370
180A00
187300
185500
180920
170190
003100
007200
005000
ENDCHAR
STARTCHAR Lacute
ENCODING 313
SWIDTH 451 0
DWIDTH 5 0
BBX 5 10 1 0
BITMAP
560000
400000
900000
900000
900000
900000
900000
900000
900000
C88810
ENDCHAR
STARTCHAR lacute
ENCODING 314
SWIDTH 207 0
DWIDTH 2 0
BBX 3 11 0 0
BITMAP
0240
0810
0000
1800
1800
1800
1800
1800
1800
1800
1800
ENDCHAR
STARTCHAR uni013B
ENCODING 315
SWIDTH 451 0
DWIDTH 5 0
BBX 5 11 1 -3
BITMAP
900000
900000
900000
900000
900000
900000
900000
C88810
022000
045000
041000
ENDCHAR
STARTCHAR uni013C
ENCODING 316
SWIDTH 211 0
DWIDTH 3 0
BBX 2 11 0 -3
BITMAP
18
18
18
18
18
18
18
18
03
18
14
ENDCHAR
STARTCHAR Lcaron
ENCODING 317
SWIDTH 451 0
DWIDTH 5 0
BBX 5 8 1 0
BITMAP
904500
904400
903000
900000
900000
900000
900000
C88810
ENDCHAR
STARTCHAR lcaron
ENCODING 318
SWIDTH 274 0
DWIDTH 3 0
BBX 4 8 0 0
BITMAP
1881
1880
1830
1800
1800
1800
1800
1800
ENDCHAR
STARTCHAR Ldot
ENCODING 319
SWIDTH 500 0
DWIDTH 6 0
BBX 5 8 1 0
BITMAP
900000
900000
900000
906000
90A000
900000
900000
C88810
ENDCHAR
STARTCHAR ldot
ENCODING 320
SWIDTH 314 0
DWIDTH 4 0
BBX 3 8 1 0
BITMAP
8000
9000
9000
9420
9640
9000
9000
8000
ENDCHAR
STARTCHAR Lslash
ENCODING 321
SWIDTH 504 0
DWIDTH 6 0
BBX 6 8 0 0
BITMAP
090000
091000
0C8000
7A0000
090000
090000
090000
0B8881
ENDCHAR
STARTCHAR lslash
ENCODING 322
SWIDTH 296 0
DWIDTH 4 0
BBX 4 8 0 0
BITMAP
0810
0810
0872
4C30
1810
0810
0810
0810
ENDCHAR
STARTCHAR Nacute
ENCODING 323
SWIDTH 579 0
DWIDTH 7 0
BBX 5 10 1 0
BITMAP
002900
003000
C00090
D60090
991090
928090
908290
901990
9006C0
9000B0
ENDCHAR
STARTCHAR nacute
ENCODING 324
SWIDTH 507 0
DWIDTH 6 0
BBX 6 8 0 0
BITMAP
000820
000200
1B8890
180063
180054
180054
180054
170054
ENDCHAR
STARTCHAR uni0145
ENCODING 325
SWIDTH 579 0
DWIDTH 7 0
BBX 5 11 1 -3
BITMAP
C00090
D60090
991090
928090
908290
901990
9006C0
9000B0
004000
009000
005000
ENDCHAR
STARTCHAR uni0146
ENCODING 326
SWIDTH 505 0
DWIDTH 6 0
BBX 6 9 0 -3
BITMAP
1B8890
180063
180054
180054
180054
170054
001200
004500
003100
ENDCHAR
STARTCHAR Ncaron
ENCODING 327
SWIDTH 579 0
DWIDTH 7 0
BBX 5 10 1 0
BITMAP
064500
006000
C00090
D60090
991090
928090
908290
901990
9006C0
9000B0
ENDCHAR
STARTCHAR ncaron
ENCODING 328
SWIDTH 507 0
DWIDTH 6 0
BBX 6 8 0 0
BITMAP
007710
001200
1B8890
180063
180054
180054
180054
170054
ENDCHAR
STARTCHAR Eng
ENCODING 330
SWIDTH 519 0
DWIDTH 6 0
BBX 5 10 1 -2
BITMAP
C00090
D60090
991090
928090
908290
901990
9006C0
9000C0
0000A0
001960
ENDCHAR
STARTCHAR eng
ENCODING 331
SWIDTH 507 0
DWIDTH 6 0
BBX 6 8 0 -2
BITMAP
1B8890
180063
180054
180054
180054
170054
000063
000790
ENDCHAR
STARTCHAR Omacron
ENCODING 332
SWIDTH 553 0
DWIDTH 7 0
BBX 6 10 0 0
BITMAP
007740
000000
088894
180009
180009
180009
180009
180009
180009
088894
ENDCHAR
STARTCHAR omacron
ENCODING 333
SWIDTH 496 0
DWIDTH 6 0
BBX 6 8 0 0
BITMAP
027720
000000
098880
360072
360063
360063
360072
098890
ENDCHAR
STARTCHAR Obreve
ENCODING 334
SWIDTH 553 0
DWIDTH 7 0
BBX 6 10 0 0
BITMAP
005050
005620
088894
180009
180009
180009
180009
180009
180009
088894
ENDCHAR
STARTCHAR obreve
ENCODING 335
SWIDTH 496 0
DWIDTH 6 0
BBX 6 8 0 0
BITMAP
034420
006600
098880
360072
360063
360063
360072
098890
ENDCHAR
STARTCHAR Ohungarumlaut
ENCODING 336
SWIDTH 553 0
DWIDTH 7 0
BBX 6 10 0 0
BITMAP
002681
003130
088894
180009
180009
180009
180009
180009
180009
088894
ENDCHAR
STARTCHAR ohungarumlaut
ENCODING 337
SWIDTH 496 0
DWIDTH 6 0
BBX 6 8 0 0
BITMAP
006480
003310
098880
360072
360063
360063
360072
098890
ENDCHAR
STARTCHAR OE
ENCODING 338
SWIDTH 775 0
DWIDTH 9 0
BBX 9 8 0 0
BITMAP
0888C98830
1900810000
1800810000
1800810000
1800898800
1800810000
1900810000
0888C98830
ENDCHAR
STARTCHAR oe
ENCODING 339
SWIDTH 812 0
DWIDTH 10 0
BBX 9 6 0 0
BITMAP
0988788860
3600740090
3600630090
3600697790
3600730000
0988898870
ENDCHAR
STARTCHAR Racute
ENCODING 340
SWIDTH 534 0
DWIDTH 6 0
BBX 5 10 1 0
BITMAP
009100
013000
C88920
900180
900080
900270
C89910
901900
900820
900280
ENDCHAR
STARTCHAR racute
ENCODING 341
SWIDTH 313 0
DWIDTH 4 0
BBX 4 8 0 0
BITMAP
0190
0210
1B73
1900
1800
1800
1800
1700
ENDCHAR
STARTCHAR uni0156
ENCODING 342
SWIDTH 534 0
DWIDTH 6 0
BBX 5 11 1 -3
BITMAP
C88920
900180
900080
900270
C89910
901900
900820
900280
013000
027000
023000
ENDCHAR
STARTCHAR uni0157
ENCODING 343
SWIDTH 313 0
DWIDTH 4 0
BBX 4 9 0 -3
BITMAP
1B73
1900
1800
1800
1800
1700
1300
2700
2300
ENDCHAR
STARTCHAR Rcaron
ENCODING 344
SWIDTH 534 0
DWIDTH 6 0
BBX 5 10 1 0
BITMAP
077100
033000
C88920
900180
900080
900270
C89910
901900
900820
900280
ENDCHAR
STARTCHAR rcaron
ENCODING 345
SWIDTH 313 0
DWIDTH 4 0
BBX 4 8 0 0
BITMAP
0771
0120
1B73
1900
1800
1800
1800
1700
ENDCHAR
STARTCHAR Sacute
ENCODING 346
SWIDTH 562 0
DWIDTH 7 0
BBX 5 10 1 0
BITMAP
006500
004000
788940
900090
900020
784100
015A50
300090
900090
788940
ENDCHAR
STARTCHAR sacute
ENCODING 347
SWIDTH 427 0
DWIDTH 5 0
BBX 5 8 0 0
BITMAP
006500
002000
2A8810
540000
197100
002940
000280
288930
ENDCHAR
STARTCHAR Scircumflex
ENCODING 348
SWIDTH 562 0
DWIDTH 7 0
BBX 5 10 1 0
BITMAP
039100
041300
788940
900090
900020
784100
015A50
300090
900090
788940
ENDCHAR
STARTCHAR scircumflex
ENCODING 349
SWIDTH 427 0
DWIDTH 5 0
BBX 5 8 0 0
BITMAP
029300
020200
2A8810
540000
197100
002940
000280
288930
ENDCHAR
STARTCHAR uni015E
ENCODING 350
SWIDTH 562 0
DWIDTH 7 0
BBX 5 10 1 -2
BITMAP
788940
900090
900020
784100
015A50
300090
900090
788940
008200
006200
ENDCHAR
STARTCHAR uni015F
ENCODING 351
SWIDTH 427 0
DWIDTH 5 0
BBX 5 8 0 -2
BITMAP
2A8810
540000
197100
002940
000280
288A40
008300
006300
ENDCHAR
STARTCHAR Scaron
ENCODING 352
SWIDTH 562 0
DWIDTH 7 0
BBX 5 10 1 0
BITMAP
075400
015000
788940
900090
900020
784100
015A50
300090
900090
788940
ENDCHAR
STARTCHAR scaron
ENCODING 353
SWIDTH 427 0
DWIDTH 5 0
BBX 5 8 0 0
BITMAP
055500
004000
2A8810
540000
197100
002940
000280
288930
ENDCHAR
STARTCHAR uni0162
ENCODING 354
SWIDTH 420 0
DWIDTH 5 0
BBX 5 11 0 -3
BITMAP
68C860
009000
009000
009000
009000
009000
009000
009000
005000
009000
004000
ENDCHAR
STARTCHAR uni0163
ENCODING 355
SWIDTH 347 0
DWIDTH 4 0
BBX 4 10 0 -3
BITMAP
0900
5D84
0900
0900
0900
0900
0495
0050
0090
0040
ENDCHAR
STARTCHAR Tcaron
ENCODING 356
SWIDTH 420 0
DWIDTH 5 0
BBX 5 10 0 0
BITMAP
054600
006000
68C860
009000
009000
009000
009000
009000
009000
009000
ENDCHAR
STARTCHAR tcaron
ENCODING 357
SWIDTH 396 0
DWIDTH 5 0
BBX 5 8 0 0
BITMAP
040090
0A0080
5D8430
090000
090000
090000
090000
049500
ENDCHAR
STARTCHAR Tbar
ENCODING 358
SWIDTH 501 0
DWIDTH 6 0
BBX 5 8 0 0
BITMAP
68C870
009000
009000
17C830
009000
009000
009000
009000
ENDCHAR
STARTCHAR tbar
ENCODING 359
SWIDTH 350 0
DWIDTH 4 0
BBX 4 7 0 0
BITMAP
0900
5C84
0900
5C84
0900
0900
0495
ENDCHAR
STARTCHAR Utilde
ENCODING 360
SWIDTH 552 0
DWIDTH 7 0
BBX 6 10 0 0
BITMAP
004530
006340
180009
180009
180009
180009
180009
180009
090009
078893
ENDCHAR
STARTCHAR utilde
ENCODING 361
SWIDTH 507 0
DWIDTH 6 0
BBX 6 8 0 0
BITMAP
042820
016130
260063
270063
270063
270063
270073
0988B3
ENDCHAR
STARTCHAR Umacron
ENCODING 362
SWIDTH 552 0
DWIDTH 7 0
BBX 6 10 0 0
BITMAP
007740
000000
180009
180009
180009
180009
180009
180009
090009
078893
ENDCHAR
STARTCHAR umacron
ENCODING 363
SWIDTH 507 0
DWIDTH 6 0
BBX 6 8 0 0
BITMAP
027720
000000
260063
270063
270063
270063
270073
0988B3
ENDCHAR
STARTCHAR Ubreve
ENCODING 364
SWIDTH 552 0
DWIDTH 7 0
BBX 6 10 0 0
BITMAP
005050
005620
180009
180009
180009
180009
180009
180009
090009
078893
ENDCHAR
STARTCHAR ubreve
ENCODING 365
SWIDTH 507 0
DWIDTH 6 0
BBX 6 8 0 0
BITMAP
024330
006600
260063
270063
270063
270063
270073
0988B3
ENDCHAR
STARTCHAR Uring
ENCODING 366
SWIDTH 552 0
DWIDTH 7 0
BBX 6 11 0 0
BITMAP
004610
006240
006330
181409
180009
180009
180009
180009
180009
090009
078893
ENDCHAR
STARTCHAR uring
ENCODING 367
SWIDTH 507 0
DWIDTH 6 0
BBX 6 9 0 0
BITMAP
005400
023500
005400
260063
270063
270063
270063
270073
0988B3
ENDCHAR
STARTCHAR Uhungarumlaut
ENCODING 368
SWIDTH 552 0
DWIDTH 7 0
BBX 6 10 0 0
BITMAP
003681
003130
180009
180009
180009
180009
180009
180009
090009
078893
ENDCHAR
STARTCHAR uhungarumlaut
ENCODING 369
SWIDTH 507 0
DWIDTH 6 0
BBX 6 8 0 0
BITMAP
006480
003310
260063
270063
270063
270063
270073
0988B3
ENDCHAR
STARTCHAR Uogonek
ENCODING 370
SWIDTH 552 0
DWIDTH 7 0
BBX 6 10 0 -2
BITMAP
180009
180009
180009
180009
180009
180009
090009
078893
001600
003600
ENDCHAR
STARTCHAR uogonek
ENCODING 371
SWIDTH 503 0
DWIDTH 6 0
BBX 6 8 0 -2
BITMAP
260063
270063
270063
270063
270073
0988B3
000060
000270
ENDCHAR
STARTCHAR Wcircumflex
ENCODING 372
SWIDTH 795 0
DWIDTH 10 0
BBX 10 10 0 0
BITMAP
0000850000
0002240000
8200B30091
55009700A0
2803580090
0907181360
0908044630
0728018900
0494009900
01E1008800
ENDCHAR
STARTCHAR wcircumflex
ENCODING 373
SWIDTH 682 0
DWIDTH 8 0
BBX 8 8 0 0
BITMAP
00067000
00022100
90058009
54088018
18087154
09263590
07820890
02C00950
ENDCHAR
STARTCHAR Ycircumflex
ENCODING 374
SWIDTH 493 0
DWIDTH 6 0
BBX 6 10 0 0
BITMAP
007700
013400
730046
1900A0
082370
018910
008700
005400
005400
005400
ENDCHAR
STARTCHAR ycircumflex
ENCODING 375
SWIDTH 459 0
DWIDTH 6 0
BBX 6 10 0 -2
BITMAP
008600
011200
810081
360090
090460
082910
037900
00B500
009100
395000
ENDCHAR
STARTCHAR Ydieresis
ENCODING 376
SWIDTH 493 0
DWIDTH 6 0
BBX 6 10 0 0
BITMAP
054530
022320
730046
1900A0
082370
018910
008700
005400
005400
005400
ENDCHAR
STARTCHAR Zacute
ENCODING 377
SWIDTH 482 0
DWIDTH 6 0
BBX 6 10 0 0
BITMAP
000820
001300
3999D2
000290
000920
003700
00A100
065000
1A0000
7B9992
ENDCHAR
STARTCHAR zacute
ENCODING 378
SWIDTH 405 0
DWIDTH 5 0
BBX 5 8 0 0
BITMAP
002900
002000
488C40
001A00
009200
047000
0A0000
7B8840
ENDCHAR
STARTCHAR Zdotaccent
ENCODING 379
SWIDTH 482 0
DWIDTH 6 0
BBX 6 11 0 0
BITMAP
000100
003700
001200
3999D2
000290
000920
003700
00A100
065000
1A0000
7B9992
ENDCHAR
STARTCHAR zdotaccent
ENCODING 380
SWIDTH 405 0
DWIDTH 5 0
BBX 5 8 0 0
BITMAP
009000
004000
488C40
001A00
009200
047000
0A0000
7B8840
ENDCHAR
STARTCHAR Zcaron
ENCODING 381
SWIDTH 482 0
DWIDTH 6 0
BBX 6 10 0 0
BITMAP
007710
003400
3999D2
000290
000920
003700
00A100
065000
1A0000
7B9992
ENDCHAR
STARTCHAR zcaron
ENCODING 382
SWIDTH 405 0
DWIDTH 5 0
BBX 5 8 0 0
BITMAP
035600
003000
488C40
001A00
009200
047000
0A0000
7B8840
ENDCHAR
STARTCHAR florin
ENCODING 402
SWIDTH 494 0
DWIDTH 6 0
BBX 6 10 0 -2
BITMAP
000296
000910
000900
028B70
005400
008100
009000
009000
027000
691000
ENDCHAR
STARTCHAR AEacute
ENCODING 508
SWIDTH 773 0
DWIDTH 9 0
BBX 9 10 0 0
BITMAP
0000082000
0000130000
0002E98840
0009820000
0027720000
0091720000
0360798810
0A98C20000
4600720000
9000798840
ENDCHAR
STARTCHAR aeacute
ENCODING 509
SWIDTH 795 0
DWIDTH 10 0
BBX 9 8 0 0
BITMAP
0000091000
0000110000
0588798940
0000820080
0677B10080
2700887780
3600820000
0988798860
ENDCHAR
STARTCHAR Oslashacute
ENCODING 510
SWIDTH 558 0
DWIDTH 7 0
BBX 6 10 0 0
BITMAP
000650
000400
078899
19003B
180179
180719
184409
197009
1D1009
3A8894
ENDCHAR
STARTCHAR oslashacute
ENCODING 511
SWIDTH 521 0
DWIDTH 6 0
BBX 6 8 0 0
BITMAP
000730
000200
088895
1900A5
180865
188245
1C1054
588891
ENDCHAR
STARTCHAR uni0218
ENCODING 536
SWIDTH 562 0
DWIDTH 7 0
BBX 5 11 1 -3
BITMAP
788940
900090
900020
784100
015A50
300090
900090
788940
004000
009000
005000
ENDCHAR
STARTCHAR uni0219
ENCODING 537
SWIDTH 427 0
DWIDTH 5 0
BBX 5 9 0 -3
BITMAP
2A8810
540000
197100
002940
000280
288930
005000
008000
004000
ENDCHAR
STARTCHAR circumflex
ENCODING 710
SWIDTH 326 0
DWIDTH 4 0
BBX 3 2 0 6
BITMAP
0770
1330
ENDCHAR
STARTCHAR caron
ENCODING 711
SWIDTH 326 0
DWIDTH 4 0
BBX 3 2 0 6
BITMAP
1770
0330
ENDCHAR
STARTCHAR uni02C9
ENCODING 713
SWIDTH 358 0
DWIDTH 4 0
BBX 4 1 0 7
BITMAP
1773
ENDCHAR
STARTCHAR breve
ENCODING 728
SWIDTH 332 0
DWIDTH 4 0
BBX 4 2 0 6
BITMAP
2442
0660
ENDCHAR
STARTCHAR dotaccent
ENCODING 729
SWIDTH 183 0
DWIDTH 2 0
BBX 2 2 0 6
BITMAP
36
12
ENDCHAR
STARTCHAR ring
ENCODING 730
SWIDTH 297 0
DWIDTH 4 0
BBX 3 3 0 6
BITMAP
2530
5050
2530
ENDCHAR
STARTCHAR ogonek
ENCODING 731
SWIDTH 243 0
DWIDTH 3 0
BBX 2 2 0 -2
BITMAP
05
17
ENDCHAR
STARTCHAR tilde
ENCODING 732
SWIDTH 369 0
DWIDTH 4 0
BBX 4 2 0 6
BITMAP
3374
1613
ENDCHAR
STARTCHAR hungarumlaut
ENCODING 733
SWIDTH 377 0
DWIDTH 5 0
BBX 4 2 0 6
BITMAP
0846
1330
ENDCHAR
STARTCHAR Mu
ENCODING 924
SWIDTH 527 0
DWIDTH 6 0
BBX 5 8 1 -1
BITMAP
900450
900450
900450
900450
900450
D21950
A77420
900000
ENDCHAR
STARTCHAR Pi
ENCODING 928
SWIDTH 605 0
DWIDTH 7 0
BBX 7 8 0 0
BITMAP
5BB9AC70
04502800
04502800
04502800
04502800
04502800
04502800
02301400
ENDCHAR
STARTCHAR Sigma
ENCODING 931
SWIDTH 481 0
DWIDTH 6 0
BBX 5 8 0 0
BITMAP
3C9990
081000
019000
006400
009200
046000
1A2220
288870
ENDCHAR
STARTCHAR uni0901
ENCODING 2305
SWIDTH 0 0
DWIDTH 0 0
BBX 5 3 -4 8
BITMAP
116010
350170
088820
ENDCHAR
STARTCHAR uni0902
ENCODING 2306
SWIDTH 0 0
DWIDTH 0 0
BBX 1 1 -2 9
BITMAP
70
ENDCHAR
STARTCHAR uni0903
ENCODING 2307
SWIDTH 247 0
DWIDTH 3 0
BBX 1 5 1 1
BITMAP
70
00
00
00
70
ENDCHAR
STARTCHAR uni0905
ENCODING 2309
SWIDTH 598 0
DWIDTH 7 0
BBX 8 8 0 0
BITMAP
18950792
00090810
00090810
07B40810
000B8C10
00090810
48950810
00000400
ENDCHAR
STARTCHAR uni0906
ENCODING 2310
SWIDTH 828 0
DWIDTH 10 0
BBX 11 8 0 0
BITMAP
18940888C810
000908109000
000908109000
07B308109000
000B8C109000
000908109000
589508109000
000004004000
ENDCHAR
STARTCHAR uni0907
ENCODING 2311
SWIDTH 478 0
DWIDTH 6 0
BBX 7 8 -1 0
BITMAP
18888C70
00788700
01800000
01800000
00788600
02400900
03A11A00
02877300
ENDCHAR
STARTCHAR uni0908
ENCODING 2312
SWIDTH 478 0
DWIDTH 6 0
BBX 7 11 -1 0
BITMAP
00007830
00009000
00009000
18888C70
00788700
01800000
01800000
00788600
02400900
03A11A00
02877300
ENDCHAR
STARTCHAR uni0909
ENCODING 2313
SWIDTH 471 0
DWIDTH 6 0
BBX 7 8 -1 0
BITMAP
1888AB60
00000900
00000900
0006B500
01000900
06200900
04713900
00476100
ENDCHAR
STARTCHAR uni090A
ENCODING 2314
SWIDTH 661 0
DWIDTH 8 0
BBX 9 8 -1 0
BITMAP
1888AB8880
0000090000
0000080000
0006BB8810
0210090270
0620090180
0371380550
0047613500
ENDCHAR
STARTCHAR uni090B
ENCODING 2315
SWIDTH 753 0
DWIDTH 9 0
BBX 11 8 -1 0
BITMAP
18888C888810
000009000000
00788A04A100
03600A866200
02201C369100
00029A090000
0049090A1000
005004037200
ENDCHAR
STARTCHAR uni090C
ENCODING 2316
SWIDTH 676 0
DWIDTH 8 0
BBX 10 10 -1 -2
BITMAP
1888888C82
0000000800
0078678B00
0180750A00
0260530800
0270000800
0098200900
000000A700
0000017011
0000007881
ENDCHAR
STARTCHAR uni090D
ENCODING 2317
SWIDTH 521 0
DWIDTH 6 0
BBX 8 10 -1 1
BITMAP
00488810
00000000
00000000
18C889B4
00800270
00800360
00806910
00800000
00900000
00599910
ENDCHAR
STARTCHAR uni090E
ENCODING 2318
SWIDTH 522 0
DWIDTH 6 0
BBX 8 10 -1 1
BITMAP
00081000
00029400
00000650
18C889B4
00800270
00800360
00806910
00800000
00900000
00599910
ENDCHAR
STARTCHAR uni090F
ENCODING 2319
SWIDTH 526 0
DWIDTH 6 0
BBX 8 7 -1 1
BITMAP
18C889B4
00800270
00800360
00806910
00800000
00900000
00599910
ENDCHAR
STARTCHAR uni0910
ENCODING 2320
SWIDTH 526 0
DWIDTH 6 0
BBX 8 10 -1 1
BITMAP
0000A000
00003600
00000620
18C889B4
00800270
00800360
00806910
00800000
00900000
00599910
ENDCHAR
STARTCHAR uni0911
ENCODING 2321
SWIDTH 829 0
DWIDTH 10 0
BBX 11 11 0 0
BITMAP
000008007100
000003887000
000000000000
18950798C810
000908109000
000908109000
07B408109000
000B8C109000
000908109000
489508109000
000004004000
ENDCHAR
STARTCHAR uni0912
ENCODING 2322
SWIDTH 828 0
DWIDTH 10 0
BBX 11 11 0 0
BITMAP
000003600000
000000870000
000000029000
18950798C810
000908109000
000908109000
07B408109000
000B8C109000
000908109000
489508109000
000004004000
ENDCHAR
STARTCHAR uni0913
ENCODING 2323
SWIDTH 829 0
DWIDTH 10 0
BBX 11 11 0 0
BITMAP
000000730000
0000000A0000
000000027000
18950798C810
000908109000
000908109000
07B408109000
000B8C109000
000908109000
489508109000
000004004000
ENDCHAR
STARTCHAR uni0914
ENCODING 2324
SWIDTH 829 0
DWIDTH 10 0
BBX 11 11 0 0
BITMAP
000000828000
000000198000
00000003A000
18950798C810
000908109000
000908109000
07B408109000
000B8C109000
000908109000
489508109000
000004004000
ENDCHAR
STARTCHAR uni0915
ENCODING 2325
SWIDTH 725 0
DWIDTH 9 0
BBX 10 8 -1 0
BITMAP
18888C8887
00691A8940
02700A0090
0450080090
0450080090
0270190090
0069794940
0000040000
ENDCHAR
STARTCHAR uni0916
ENCODING 2326
SWIDTH 696 0
DWIDTH 8 0
BBX 10 8 -1 0
BITMAP
188C988AA4
0008167540
0009280540
0797260540
0280180640
0073068940
0009000540
0003200220
ENDCHAR
STARTCHAR uni0917
ENCODING 2327
SWIDTH 494 0
DWIDTH 6 0
BBX 7 8 -1 0
BITMAP
18B98C80
00630900
00630900
00820900
07700900
00000900
00000900
00000400
ENDCHAR
STARTCHAR uni0918
ENCODING 2328
SWIDTH 559 0
DWIDTH 7 0
BBX 8 8 -1 0
BITMAP
19D988C7
02800090
00A92090
01800090
02700090
01800290
00698790
00000040
ENDCHAR
STARTCHAR uni0919
ENCODING 2329
SWIDTH 505 0
DWIDTH 6 0
BBX 8 8 -1 0
BITMAP
18888C81
00799700
01800000
01800060
00688600
00100900
01811A00
00477300
ENDCHAR
STARTCHAR uni091A
ENCODING 2330
SWIDTH 563 0
DWIDTH 7 0
BBX 8 8 -1 0
BITMAP
188888C7
00000090
06AA7090
00800090
00900190
00398790
00000090
00000040
ENDCHAR
STARTCHAR uni091B
ENCODING 2331
SWIDTH 581 0
DWIDTH 7 0
BBX 9 7 -1 1
BITMAP
18C888C810
0180008000
019008A000
0099108100
0180007100
0180008100
0088898000
ENDCHAR
STARTCHAR uni091C
ENCODING 2332
SWIDTH 547 0
DWIDTH 7 0
BBX 8 8 -1 0
BITMAP
188889B6
00000270
019B9A70
00053270
00045270
00054270
05980270
00000130
ENDCHAR
STARTCHAR uni091D
ENCODING 2333
SWIDTH 664 0
DWIDTH 8 0
BBX 10 8 -1 0
BITMAP
1888BA8C81
0088A20900
0180000900
0088AA8B00
0000180900
0360080900
03B8930900
0240000400
ENDCHAR
STARTCHAR uni091E
ENCODING 2334
SWIDTH 592 0
DWIDTH 7 0
BBX 9 8 -1 0
BITMAP
188888C820
0289109000
0003609000
0001C8C000
0001709000
0003509000
0498009000
0000004000
ENDCHAR
STARTCHAR uni091F
ENCODING 2335
SWIDTH 485 0
DWIDTH 6 0
BBX 7 7 -1 1
BITMAP
18888C80
00000800
00799600
02700000
03600210
02600630
00988900
ENDCHAR
STARTCHAR uni0920
ENCODING 2336
SWIDTH 512 0
DWIDTH 6 0
BBX 8 7 -1 1
BITMAP
18888C82
00000900
0079A800
02700730
03600540
02600630
00998900
ENDCHAR
STARTCHAR uni0921
ENCODING 2337
SWIDTH 475 0
DWIDTH 6 0
BBX 7 8 -1 0
BITMAP
18888C70
00799700
01800000
01800000
00688600
00200900
01811A00
00477300
ENDCHAR
STARTCHAR uni0922
ENCODING 2338
SWIDTH 485 0
DWIDTH 6 0
BBX 7 7 -1 1
BITMAP
18888C80
00000900
00688700
01808800
03626530
02701530
00888900
ENDCHAR
STARTCHAR uni0923
ENCODING 2339
SWIDTH 681 0
DWIDTH 8 0
BBX 10 8 -1 0
BITMAP
18C89B8C92
0080270810
0080270810
0090360810
0069910810
0000000810
0000000810
0000000400
ENDCHAR
STARTCHAR uni0924
ENCODING 2340
SWIDTH 496 0
DWIDTH 6 0
BBX 8 8 -1 0
BITMAP
18888C81
00000900
00799B00
02700900
03600900
03600900
01910900
00360400
ENDCHAR
STARTCHAR uni0925
ENCODING 2341
SWIDTH 593 0
DWIDTH 7 0
BBX 8 8 0 0
BITMAP
08980892
09090800
01090800
39850800
36000B00
07888B00
00000800
00000400
ENDCHAR
STARTCHAR uni0926
ENCODING 2342
SWIDTH 489 0
DWIDTH 6 0
BBX 7 8 -1 0
BITMAP
18888C80
00699800
01800000
03600000
03600600
01800A00
00699B00
00000400
ENDCHAR
STARTCHAR uni0927
ENCODING 2343
SWIDTH 560 0
DWIDTH 7 0
BBX 8 8 -1 0
BITMAP
18C618C7
01800080
00A92080
00800080
02700080
01900290
00699790
00000040
ENDCHAR
STARTCHAR uni0928
ENCODING 2344
SWIDTH 473 0
DWIDTH 6 0
BBX 7 8 -1 0
BITMAP
18888C60
00000900
02988900
06300900
03200900
00000900
00000900
00000400
ENDCHAR
STARTCHAR uni0928093C
ENCODING 2345
SWIDTH 473 0
DWIDTH 6 0
BBX 7 8 -1 0
BITMAP
18888C60
00000900
02988900
06300900
03200900
00000900
00000900
00240400
ENDCHAR
STARTCHAR uni092A
ENCODING 2346
SWIDTH 503 0
DWIDTH 6 0
BBX 8 8 -1 0
BITMAP
18C88C81
00800800
00800800
00900A00
00598A00
00000800
00000800
00000400
ENDCHAR
STARTCHAR uni092B
ENCODING 2347
SWIDTH 739 0
DWIDTH 9 0
BBX 10 8 -1 0
BITMAP
18C88C8888
0080098950
00800A0090
00900A0072
00598A0072
0000090090
0000092950
0000040000
ENDCHAR
STARTCHAR uni092C
ENCODING 2348
SWIDTH 491 0
DWIDTH 6 0
BBX 7 8 -1 0
BITMAP
18888C80
00682800
02C10800
04580800
04518900
02703C00
00688900
00000400
ENDCHAR
STARTCHAR uni092D
ENCODING 2349
SWIDTH 491 0
DWIDTH 6 0
BBX 7 8 -1 0
BITMAP
1A308C80
01800800
01800800
01C88A00
01800800
00200800
00000800
00000400
ENDCHAR
STARTCHAR uni092E
ENCODING 2350
SWIDTH 490 0
DWIDTH 6 0
BBX 7 8 -1 0
BITMAP
18C88C80
01800900
01800900
01C88B00
01800900
00200900
00000900
00000400
ENDCHAR
STARTCHAR uni092F
ENCODING 2351
SWIDTH 564 0
DWIDTH 7 0
BBX 8 8 -1 0
BITMAP
188C88C7
00072080
02A80080
03600080
01800190
00598790
00000080
00000040
ENDCHAR
STARTCHAR uni0930
ENCODING 2352
SWIDTH 337 0
DWIDTH 4 0
BBX 6 8 -1 0
BITMAP
188C91
000810
000910
079700
028000
007300
001900
000310
ENDCHAR
STARTCHAR uni0930093C
ENCODING 2353
SWIDTH 347 0
DWIDTH 4 0
BBX 6 8 -1 0
BITMAP
188B92
000630
000720
05A800
019000
006400
000A00
060220
ENDCHAR
STARTCHAR uni0932
ENCODING 2354
SWIDTH 676 0
DWIDTH 8 0
BBX 10 8 -1 0
BITMAP
1888888C82
0000000800
0078678B00
0180750A00
0260530800
0270000800
0098200800
0000000400
ENDCHAR
STARTCHAR uni0933
ENCODING 2355
SWIDTH 672 0
DWIDTH 8 0
BBX 10 7 -1 1
BITMAP
188888C882
0000008000
007976B700
0270660720
0360440530
0360550630
0098888900
ENDCHAR
STARTCHAR uni0933093C
ENCODING 2356
SWIDTH 672 0
DWIDTH 8 0
BBX 10 8 -1 0
BITMAP
188888C882
0000008000
007976B700
0270660720
0360440530
0360550630
0098888900
0006000000
ENDCHAR
STARTCHAR uni0935
ENCODING 2357
SWIDTH 484 0
DWIDTH 6 0
BBX 7 8 -1 0
BITMAP
18888C70
00692800
02800800
04500800
04500800
02701A00
00688900
00000400
ENDCHAR
STARTCHAR uni0936
ENCODING 2358
SWIDTH 614 0
DWIDTH 7 0
BBX 8 8 0 0
BITMAP
098904A4
17090540
00090540
59960540
19000540
06400540
00A00540
00320220
ENDCHAR
STARTCHAR uni0937
ENCODING 2359
SWIDTH 505 0
DWIDTH 6 0
BBX 8 8 -1 0
BITMAP
18D88C82
00B60900
00827900
00902D00
00588B00
00000900
00000900
00000400
ENDCHAR
STARTCHAR uni0938
ENCODING 2360
SWIDTH 575 0
DWIDTH 7 0
BBX 8 8 -1 0
BITMAP
188C88C8
00090090
00090090
07AA99B0
03700090
00910090
00280090
00050040
ENDCHAR
STARTCHAR uni0939
ENCODING 2361
SWIDTH 481 0
DWIDTH 6 0
BBX 7 9 -1 -1
BITMAP
18888C70
00000900
00788700
00900000
00898400
00900900
01700500
00900000
00488600
ENDCHAR
STARTCHAR uni093C
ENCODING 2364
SWIDTH 0 0
DWIDTH 0 0
BBX 1 1 -2 -1
BITMAP
70
ENDCHAR
STARTCHAR uni093D
ENCODING 2365
SWIDTH 529 0
DWIDTH 6 0
BBX 5 8 1 0
BITMAP
498600
710000
480000
04A400
000820
100440
841830
057400
ENDCHAR
STARTCHAR uni093E
ENCODING 2366
SWIDTH 231 0
DWIDTH 3 0
BBX 4 8 -1 0
BITMAP
18C7
0090
0090
0090
0090
0090
0090
0040
ENDCHAR
STARTCHAR uni093F
ENCODING 2367
SWIDTH 231 0
DWIDTH 3 0
BBX 9 11 -1 0
BITMAP
0079888930
0090000170
0090000010
18C7000000
0090000000
0090000000
0090000000
0090000000
0090000000
0090000000
0040000000
ENDCHAR
STARTCHAR uni0940
ENCODING 2368
SWIDTH 231 0
DWIDTH 3 0
BBX 5 11 -2 0
BITMAP
599500
900900
100900
018C70
000900
000900
000900
000900
000900
000900
000400
ENDCHAR
STARTCHAR uni0941
ENCODING 2369
SWIDTH 0 0
DWIDTH 0 0
BBX 6 4 -5 -3
BITMAP
000581
170044
081045
0198A1
ENDCHAR
STARTCHAR uni0942
ENCODING 2370
SWIDTH 0 0
DWIDTH 0 0
BBX 6 3 -4 -3
BITMAP
078810
180180
0A7062
ENDCHAR
STARTCHAR uni0943
ENCODING 2371
SWIDTH 0 0
DWIDTH 0 0
BBX 5 4 -4 -3
BITMAP
077000
350000
350220
098810
ENDCHAR
STARTCHAR uni0945
ENCODING 2373
SWIDTH 0 0
DWIDTH 0 0
BBX 5 3 -4 9
BITMAP
110010
260270
078810
ENDCHAR
STARTCHAR uni0946
ENCODING 2374
SWIDTH 0 0
DWIDTH 0 0
BBX 4 4 -5 7
BITMAP
2600
0771
0029
0004
ENDCHAR
STARTCHAR uni0947
ENCODING 2375
SWIDTH 0 0
DWIDTH 0 0
BBX 3 4 -4 7
BITMAP
7300
0900
0270
0020
ENDCHAR
STARTCHAR uni0948
ENCODING 2376
SWIDTH 0 0
DWIDTH 0 0
BBX 3 4 -4 7
BITMAP
8280
0980
02B0
0020
ENDCHAR
STARTCHAR uni0949
ENCODING 2377
SWIDTH 231 0
DWIDTH 3 0
BBX 5 11 -1 0
BITMAP
620530
188800
000000
18C700
009000
009000
009000
009000
009000
009000
004000
ENDCHAR
STARTCHAR uni094A
ENCODING 2378
SWIDTH 231 0
DWIDTH 3 0
BBX 5 11 -2 0
BITMAP
630000
195000
004800
018C70
000900
000900
000900
000900
000900
000900
000400
ENDCHAR
STARTCHAR uni094B
ENCODING 2379
SWIDTH 231 0
DWIDTH 3 0
BBX 4 11 -1 0
BITMAP
9100
1800
0450
18C7
0090
0090
0090
0090
0090
0090
0040
ENDCHAR
STARTCHAR uni094C
ENCODING 2380
SWIDTH 231 0
DWIDTH 3 0
BBX 4 11 -1 0
BITMAP
9080
2780
0490
18C7
0090
0090
0090
0090
0090
0090
0040
ENDCHAR
STARTCHAR uni094D
ENCODING 2381
SWIDTH 0 0
DWIDTH 0 0
BBX 2 2 -2 -3
BITMAP
63
09
ENDCHAR
STARTCHAR uni0950
ENCODING 2384
SWIDTH 847 0
DWIDTH 10 0
BBX 10 10 0 1
BITMAP
0000006000
0000000000
0000000081
0389207830
0001707960
0002500081
0006A85063
4301818063
3502608062
0989108890
ENDCHAR
STARTCHAR uni0951
ENCODING 2385
SWIDTH 0 0
DWIDTH 0 0
BBX 1 3 -2 8
BITMAP
80
90
30
ENDCHAR
STARTCHAR uni0952
ENCODING 2386
SWIDTH 0 0
DWIDTH 0 0
BBX 4 1 -5 -2
BITMAP
7887
ENDCHAR
STARTCHAR uni0953
ENCODING 2387
SWIDTH 0 0
DWIDTH 0 0
BBX 2 3 -3 8
BITMAP
90
46
04
ENDCHAR
STARTCHAR uni0954
ENCODING 2388
SWIDTH 0 0
DWIDTH 0 0
BBX 3 3 -2 8
BITMAP
0810
3700
4000
ENDCHAR
STARTCHAR uni0915093C
ENCODING 2392
SWIDTH 725 0
DWIDTH 9 0
BBX 10 8 -1 0
BITMAP
18888C8887
00691A8940
02700A0090
0450080090
0450080090
0270190090
0069794940
0034040000
ENDCHAR
STARTCHAR uni0916093C
ENCODING 2393
SWIDTH 696 0
DWIDTH 8 0
BBX 10 8 -1 0
BITMAP
188C988AA4
0008167540
0009280540
0797260540
0280180640
0073068940
0009000540
0423200220
ENDCHAR
STARTCHAR uni0917093C
ENCODING 2394
SWIDTH 494 0
DWIDTH 6 0
BBX 7 8 -1 0
BITMAP
18B98C80
00630900
00630900
00820900
07700900
00000900
00000900
00600400
ENDCHAR
STARTCHAR uni091C093C
ENCODING 2395
SWIDTH 547 0
DWIDTH 7 0
BBX 8 8 -1 0
BITMAP
188889B6
00000270
019B9A70
00053270
00045270
00054270
05980270
00600130
ENDCHAR
STARTCHAR uni0921093C
ENCODING 2396
SWIDTH 475 0
DWIDTH 6 0
BBX 7 9 -1 -1
BITMAP
18888C70
00799700
01800000
01800000
00688600
00200900
01811A00
00477300
00042000
ENDCHAR
STARTCHAR uni0922093C
ENCODING 2397
SWIDTH 485 0
DWIDTH 6 0
BBX 7 9 -1 -1
BITMAP
18888C80
00000900
00688700
01808800
03626530
02701530
00888900
00000000
00033000
ENDCHAR
STARTCHAR uni092B093C
ENCODING 2398
SWIDTH 739 0
DWIDTH 9 0
BBX 10 8 -1 0
BITMAP
18C88C8888
0080098950
00800A0090
00900A0072
00598A0072
0000090090
0000092950
0043040000
ENDCHAR
STARTCHAR uni092F093C
ENCODING 2399
SWIDTH 564 0
DWIDTH 7 0
BBX 8 8 -1 0
BITMAP
188C88C7
00072080
02A80080
03600080
01800190
00598790
00000080
00600040
ENDCHAR
STARTCHAR uni0960
ENCODING 2400
SWIDTH 753 0
DWIDTH 9 0
BBX 11 9 -1 -1
BITMAP
18888C888810
000009000000
00788A03A100
02700A487200
03400B769100
00018B090000
0039290A8200
0050040A0000
000000078300
ENDCHAR
STARTCHAR uni0961
ENCODING 2401
SWIDTH 676 0
DWIDTH 8 0
BBX 10 11 -1 -3
BITMAP
1888888C82
0000000800
0079579B00
0180750B00
0260530900
0270430800
0098205500
0000017000
000000B810
0000018000
000000A820
ENDCHAR
STARTCHAR uni0964
ENCODING 2404
SWIDTH 286 0
DWIDTH 3 0
BBX 2 8 1 0
BITMAP
44
44
44
44
44
44
44
22
ENDCHAR
STARTCHAR uni0965
ENCODING 2405
SWIDTH 518 0
DWIDTH 6 0
BBX 5 8 1 0
BITMAP
440810
440810
440810
440810
440810
440810
440810
220400
ENDCHAR
STARTCHAR uni0966
ENCODING 2406
SWIDTH 519 0
DWIDTH 6 0
BBX 6 8 0 0
BITMAP
0999A1
270045
360036
360036
360036
360036
191173
037740
ENDCHAR
STARTCHAR uni0967
ENCODING 2407
SWIDTH 288 0
DWIDTH 3 0
BBX 3 8 0 0
BITMAP
3980
4180
0180
0180
0180
0180
0180
0040
ENDCHAR
STARTCHAR uni0968
ENCODING 2408
SWIDTH 453 0
DWIDTH 5 0
BBX 5 8 0 0
BITMAP
198970
630090
210090
000740
028200
280000
551110
388870
ENDCHAR
STARTCHAR uni0969
ENCODING 2409
SWIDTH 489 0
DWIDTH 6 0
BBX 5 8 0 0
BITMAP
198980
540090
000080
004960
000090
530080
3711A0
047720
ENDCHAR
STARTCHAR uni096A
ENCODING 2410
SWIDTH 453 0
DWIDTH 5 0
BBX 6 8 0 0
BITMAP
000A60
006560
017260
081260
540260
8889B3
000260
000130
ENDCHAR
STARTCHAR uni096B
ENCODING 2411
SWIDTH 480 0
DWIDTH 6 0
BBX 6 8 0 0
BITMAP
2C9990
360000
3A8960
140091
000072
260072
1911A0
037720
ENDCHAR
STARTCHAR uni096C
ENCODING 2412
SWIDTH 495 0
DWIDTH 6 0
BBX 6 8 0 0
BITMAP
089980
270000
398970
390063
360045
360044
1A1192
037730
ENDCHAR
STARTCHAR uni096D
ENCODING 2413
SWIDTH 380 0
DWIDTH 5 0
BBX 5 8 0 0
BITMAP
799B40
000900
001800
007300
009000
046000
091000
050000
ENDCHAR
STARTCHAR uni096E
ENCODING 2414
SWIDTH 523 0
DWIDTH 6 0
BBX 6 8 0 0
BITMAP
0999A2
270036
180035
0998B0
180045
360027
191174
037750
ENDCHAR
STARTCHAR uni096F
ENCODING 2415
SWIDTH 493 0
DWIDTH 6 0
BBX 6 8 0 0
BITMAP
2A9980
630081
640081
1998C1
000081
000081
0112B0
078720
ENDCHAR
STARTCHAR uni0970
ENCODING 2416
SWIDTH 391 0
DWIDTH 5 0
BBX 5 5 0 2
BITMAP
188600
630810
810630
630810
188600
ENDCHAR
STARTCHAR uni0972
ENCODING 2418
SWIDTH 598 0
DWIDTH 7 0
BBX 8 11 0 0
BITMAP
00007008
00007883
00000000
18950792
00090810
00090810
07B40810
000B8C10
00090810
48950810
00000400
ENDCHAR
STARTCHAR Wgrave
ENCODING 7808
SWIDTH 795 0
DWIDTH 10 0
BBX 10 10 0 0
BITMAP
0005600000
0000400000
8200B30091
55009700A0
2803580090
0907181360
0908044630
0728018900
0494009900
01E1008800
ENDCHAR
STARTCHAR wgrave
ENCODING 7809
SWIDTH 682 0
DWIDTH 8 0
BBX 8 8 0 0
BITMAP
00190000
00011000
90058009
54088018
18087154
09263590
07820890
02C00950
ENDCHAR
STARTCHAR Wacute
ENCODING 7810
SWIDTH 795 0
DWIDTH 10 0
BBX 10 10 0 0
BITMAP
00000A1000
0000220000
8200B30091
55009700A0
2803580090
0907181360
0908044630
0728018900
0494009900
01E1008800
ENDCHAR
STARTCHAR wacute
ENCODING 7811
SWIDTH 682 0
DWIDTH 8 0
BBX 8 8 0 0
BITMAP
00008300
00002000
90058009
54088018
18087154
09263590
07820890
02C00950
ENDCHAR
STARTCHAR Wdieresis
ENCODING 7812
SWIDTH 795 0
DWIDTH 10 0
BBX 10 10 0 0
BITMAP
0008180000
0004040000
8200B30091
55009700A0
2803580090
0907181360
0908044630
0728018900
0494009900
01E1008800
ENDCHAR
STARTCHAR wdieresis
ENCODING 7813
SWIDTH 682 0
DWIDTH 8 0
BBX 8 8 0 0
BITMAP
00363500
00132300
90058009
54088018
18087154
09263590
07820890
02C00950
ENDCHAR
STARTCHAR uni1E9E
ENCODING 7838
SWIDTH 542 0
DWIDTH 7 0
BBX 5 8 1 0
BITMAP
788980
900820
902800
905930
900090
900090
900090
808940
ENDCHAR
STARTCHAR Ygrave
ENCODING 7922
SWIDTH 493 0
DWIDTH 6 0
BBX 6 10 0 0
BITMAP
029000
003100
730046
1900A0
082370
018910
008700
005400
005400
005400
ENDCHAR
STARTCHAR ygrave
ENCODING 7923
SWIDTH 459 0
DWIDTH 6 0
BBX 6 10 0 -2
BITMAP
029000
002100
810081
360090
090460
082910
037900
00B500
009100
395000
ENDCHAR
STARTCHAR uni200B
ENCODING 8203
SWIDTH 0 0
DWIDTH 0 0
BBX 1 1 0 0
BITMAP
00
ENDCHAR
STARTCHAR uni200C
ENCODING 8204
SWIDTH 0 0
DWIDTH 0 0
BBX 2 13 -1 -3
BITMAP
22
44
44
44
44
44
44
44
44
44
44
44
44
ENDCHAR
STARTCHAR uni200D
ENCODING 8205
SWIDTH 0 0
DWIDTH 0 0
BBX 4 13 -2 -3
BITMAP
1001
3993
0BB0
3664
0440
0440
0440
0440
0440
0440
0440
0440
0440
ENDCHAR
STARTCHAR endash
ENCODING 8211
SWIDTH 408 0
DWIDTH 5 0
BBX 5 1 0 3
BITMAP
488830
ENDCHAR
STARTCHAR emdash
ENCODING 8212
SWIDTH 537 0
DWIDTH 6 0
BBX 6 1 0 3
BITMAP
488887
ENDCHAR
STARTCHAR quoteleft
ENCODING 8216
SWIDTH 179 0
DWIDTH 2 0
BBX 2 3 0 5
BITMAP
04
26
46
ENDCHAR
STARTCHAR quoteright
ENCODING 8217
SWIDTH 179 0
DWIDTH 2 0
BBX 2 3 0 5
BITMAP
46
44
31
ENDCHAR
STARTCHAR quotesinglbase
ENCODING 8218
SWIDTH 187 0
DWIDTH 2 0
BBX 2 3 0 -1
BITMAP
25
36
32
ENDCHAR
STARTCHAR quotedblleft
ENCODING 8220
SWIDTH 329 0
DWIDTH 4 0
BBX 4 3 0 5
BITMAP
0412
2653
4663
ENDCHAR
STARTCHAR quotedblright
ENCODING 8221
SWIDTH 329 0
DWIDTH 4 0
BBX 4 3 0 5
BITMAP
4663
4471
3140
ENDCHAR
STARTCHAR quotedblbase
ENCODING 8222
SWIDTH 337 0
DWIDTH 4 0
BBX 4 3 0 -1
BITMAP
2553
3662
3240
ENDCHAR
STARTCHAR dagger
ENCODING 8224
SWIDTH 427 0
DWIDTH 5 0
BBX 5 8 0 0
BITMAP
008000
007000
37B740
008000
009000
008000
007000
006000
ENDCHAR
STARTCHAR daggerdbl
ENCODING 8225
SWIDTH 427 0
DWIDTH 5 0
BBX 5 8 0 0
BITMAP
008000
007000
37B740
008000
008000
37B740
007000
008000
ENDCHAR
STARTCHAR bullet
ENCODING 8226
SWIDTH 273 0
DWIDTH 3 0
BBX 2 2 1 3
BITMAP
D2
D2
ENDCHAR
STARTCHAR ellipsis
ENCODING 8230
SWIDTH 591 0
DWIDTH 7 0
BBX 7 2 0 0
BITMAP
25070430
370A0640
ENDCHAR
STARTCHAR perthousand
ENCODING 8240
SWIDTH 1027 0
DWIDTH 12 0
BBX 12 8 0 0
BITMAP
287507100000
620707000000
520853000000
177280000000
000255650665
000717071608
001707072607
006208770877
ENDCHAR
STARTCHAR guilsinglleft
ENCODING 8249
SWIDTH 290 0
DWIDTH 3 0
BBX 3 4 0 1
BITMAP
0260
1800
1810
0160
ENDCHAR
STARTCHAR guilsinglright
ENCODING 8250
SWIDTH 290 0
DWIDTH 3 0
BBX 3 4 0 1
BITMAP
2600
0360
0450
2500
ENDCHAR
STARTCHAR fraction
ENCODING 8260
SWIDTH 117 0
DWIDTH 1 0
BBX 7 8 -3 0
BITMAP
00000260
00000800
00007200
00045000
00180000
00810000
05300000
27000000
ENDCHAR
STARTCHAR Euro
ENCODING 8364
SWIDTH 523 0
DWIDTH 6 0
BBX 6 8 0 0
BITMAP
039891
090036
090012
4C7600
4C7600
090013
090036
039891
ENDCHAR
STARTCHAR uni20B9
ENCODING 8377
SWIDTH 414 0
DWIDTH 5 0
BBX 5 8 0 0
BITMAP
48C940
48AA40
006300
697000
280000
064000
009100
002300
ENDCHAR
STARTCHAR trademark
ENCODING 8482
SWIDTH 591 0
DWIDTH 7 0
BBX 7 4 0 4
BITMAP
19764550
04166750
04162250
01010010
ENDCHAR
STARTCHAR uni2126
ENCODING 8486
SWIDTH 629 0
DWIDTH 8 0
BBX 7 8 0 0
BITMAP
05A99A10
09000450
09000360
09000360
09000360
09000350
18301830
48826870
ENDCHAR
STARTCHAR partialdiff
ENCODING 8706
SWIDTH 481 0
DWIDTH 6 0
BBX 6 9 0 0
BITMAP
047300
002850
000090
0799B0
3700B1
450081
450091
2912A0
037720
ENDCHAR
STARTCHAR uni2206
ENCODING 8710
SWIDTH 594 0
DWIDTH 7 0
BBX 7 8 0 0
BITMAP
001D2000
00657000
00909000
02705400
08200900
09000810
46111460
48888850
ENDCHAR
STARTCHAR minus
ENCODING 8722
SWIDTH 523 0
DWIDTH 6 0
BBX 6 1 0 4
BITMAP
188883
ENDCHAR
STARTCHAR approxequal
ENCODING 8776
SWIDTH 523 0
DWIDTH 6 0
BBX 6 3 0 2
BITMAP
177762
000000
177762
ENDCHAR
STARTCHAR notequal
ENCODING 8800
SWIDTH 523 0
DWIDTH 6 0
BBX 6 7 0 0
BITMAP
000110
000610
188C83
002600
18B983
008000
001000
ENDCHAR
STARTCHAR lessequal
ENCODING 8804
SWIDTH 523 0
DWIDTH 6 0
BBX 6 5 0 1
BITMAP
002783
1B7100
037861
000022
188883
ENDCHAR
STARTCHAR greaterequal
ENCODING 8805
SWIDTH 523 0
DWIDTH 6 0
BBX 6 5 0 1
BITMAP
188300
0015B4
058840
130000
188883
ENDCHAR
STARTCHAR uni25CC
ENCODING 9676
SWIDTH 701 0
DWIDTH 8 0
BBX 8 7 0 1
BITMAP
00C75C00
001001B1
0B000039
1B000001
01000057
05511390
003AA310
ENDCHAR
STARTCHAR commaaccent
ENCODING 63171
SWIDTH 0 0
DWIDTH 0 0
BBX 1 3 2 -3
BITMAP
50
80
40
ENDCHAR
STARTCHAR .notdef
ENCODING -1
SWIDTH 600 0
DWIDTH 7 0
BBX 5 8 1 0
BITMAP
799990
810090
810090
810090
810090
810090
810090
799990
ENDCHAR
STARTCHAR .null
ENCODING -1
SWIDTH 0 0
DWIDTH 0 0
BBX 1 1 0 0
BITMAP
00
ENDCHAR
STARTCHAR nonmarkingreturn
ENCODING -1
SWIDTH 333 0
DWIDTH 4 0
BBX 1 1 0 0
BITMAP
00
ENDCHAR
STARTCHAR uni0915094D
ENCODING -1
SWIDTH 519 0
DWIDTH 6 0
BBX 9 8 -1 0
BITMAP
18888C8860
00691A8930
02700A0050
0450080000
0450080000
0270190000
0069790000
0000040000
ENDCHAR
STARTCHAR uni0916094D
ENCODING -1
SWIDTH 468 0
DWIDTH 6 0
BBX 8 8 -1 0
BITMAP
188C9887
00081670
00092800
07972600
02801803
00730685
00090000
00032000
ENDCHAR
STARTCHAR uni0917094D
ENCODING -1
SWIDTH 264 0
DWIDTH 3 0
BBX 5 5 -1 3
BITMAP
18B920
006300
006300
008200
077000
ENDCHAR
STARTCHAR uni0918094D
ENCODING -1
SWIDTH 321 0
DWIDTH 4 0
BBX 7 7 -1 1
BITMAP
18D98830
02700000
01800000
00992000
01800000
01800120
00788810
ENDCHAR
STARTCHAR uni0919094D
ENCODING -1
SWIDTH 505 0
DWIDTH 6 0
BBX 8 10 -1 -2
BITMAP
18888C81
00799700
01800000
01800060
00688600
00100900
01811A00
00477300
00036000
00008200
ENDCHAR
STARTCHAR uni091A094D
ENCODING -1
SWIDTH 330 0
DWIDTH 4 0
BBX 7 7 -1 1
BITMAP
18888830
00000000
06AA7000
00810000
00900000
00810230
00298810
ENDCHAR
STARTCHAR uni091B094D
ENCODING -1
SWIDTH 581 0
DWIDTH 7 0
BBX 9 7 -1 1
BITMAP
18C8888810
0180087000
0190008100
0099107100
0180007100
0180008100
0088897000
ENDCHAR
STARTCHAR uni091C094D
ENCODING -1
SWIDTH 309 0
DWIDTH 4 0
BBX 6 7 -1 1
BITMAP
188888
000000
019B98
000530
000450
000540
059800
ENDCHAR
STARTCHAR uni091D094D
ENCODING -1
SWIDTH 432 0
DWIDTH 5 0
BBX 8 9 -1 -1
BITMAP
1888BA83
0088A200
01800000
0078A983
00001800
03600800
03B89300
03600000
00100000
ENDCHAR
STARTCHAR uni091E094D
ENCODING -1
SWIDTH 359 0
DWIDTH 4 0
BBX 7 7 -1 1
BITMAP
18888840
00000000
02881000
00026000
0001C840
00027000
04991000
ENDCHAR
STARTCHAR uni091F094D
ENCODING -1
SWIDTH 485 0
DWIDTH 6 0
BBX 7 10 -1 -2
BITMAP
18888C80
00000800
00799600
02700000
03600210
02600630
00988900
00000000
00019000
00006400
ENDCHAR
STARTCHAR uni0920094D
ENCODING -1
SWIDTH 512 0
DWIDTH 6 0
BBX 8 10 -1 -2
BITMAP
18888C82
00000900
0079A800
02700730
03600540
02600630
00998900
00000000
00028000
00007200
ENDCHAR
STARTCHAR uni0921094D
ENCODING -1
SWIDTH 475 0
DWIDTH 6 0
BBX 7 10 -1 -2
BITMAP
18888C70
00799700
01800000
01800000
00688600
00200900
01811A00
00477300
00027000
00007300
ENDCHAR
STARTCHAR uni0922094D
ENCODING -1
SWIDTH 485 0
DWIDTH 6 0
BBX 7 10 -1 -2
BITMAP
18888C80
00000900
00688700
01808800
03626530
02701530
00888900
00000000
00028000
00007300
ENDCHAR
STARTCHAR uni0923094D
ENCODING -1
SWIDTH 454 0
DWIDTH 5 0
BBX 7 6 -1 2
BITMAP
18C89B50
00802700
00802700
00802700
00904500
00598100
ENDCHAR
STARTCHAR uni0924094D
ENCODING -1
SWIDTH 263 0
DWIDTH 3 0
BBX 6 8 -1 0
BITMAP
188883
000000
007993
027000
036000
036000
019100
003600
ENDCHAR
STARTCHAR uni0925094D
ENCODING -1
SWIDTH 359 0
DWIDTH 4 0
BBX 6 7 0 1
BITMAP
089800
090900
010900
398500
450000
280005
069882
ENDCHAR
STARTCHAR uni0926094D
ENCODING -1
SWIDTH 489 0
DWIDTH 6 0
BBX 7 10 -1 -2
BITMAP
18888C80
00699800
01800000
03600000
03600600
01800A00
00699B00
00022400
00009000
00003200
ENDCHAR
STARTCHAR uni0927094D
ENCODING -1
SWIDTH 321 0
DWIDTH 4 0
BBX 7 7 -1 1
BITMAP
18D72830
02700000
01800000
00992000
01800000
01800120
00788810
ENDCHAR
STARTCHAR uni0928094D
ENCODING -1
SWIDTH 233 0
DWIDTH 3 0
BBX 5 6 -1 2
BITMAP
188880
000000
000000
039880
081000
031000
ENDCHAR
STARTCHAR uni092A094D
ENCODING -1
SWIDTH 269 0
DWIDTH 3 0
BBX 6 6 -1 2
BITMAP
18C886
008000
008000
008000
009004
005993
ENDCHAR
STARTCHAR uni092B094D
ENCODING -1
SWIDTH 530 0
DWIDTH 6 0
BBX 9 8 -1 0
BITMAP
18C88C8870
0080098950
00800A0030
00900A0000
00598A0000
0000090000
0000090000
0000040000
ENDCHAR
STARTCHAR uni092C094D
ENCODING -1
SWIDTH 265 0
DWIDTH 3 0
BBX 6 7 -1 1
BITMAP
188885
000000
007820
03A300
045542
036049
007893
ENDCHAR
STARTCHAR uni092D094D
ENCODING -1
SWIDTH 261 0
DWIDTH 3 0
BBX 6 6 -1 2
BITMAP
1A3083
018000
018000
01C883
018000
004000
ENDCHAR
STARTCHAR uni092E094D
ENCODING -1
SWIDTH 261 0
DWIDTH 3 0
BBX 6 6 -1 2
BITMAP
18C883
018000
018000
01C883
018000
004000
ENDCHAR
STARTCHAR uni092F094D
ENCODING -1
SWIDTH 323 0
DWIDTH 4 0
BBX 7 7 -1 1
BITMAP
188C8800
00062000
00072000
02A70000
03600000
01800220
00598700
ENDCHAR
STARTCHAR uni0930094D
ENCODING -1
SWIDTH 337 0
DWIDTH 4 0
BBX 6 10 -1 -2
BITMAP
188C91
000810
000910
079700
028000
007300
001900
000310
002600
000720
ENDCHAR
STARTCHAR uni0932094D
ENCODING -1
SWIDTH 431 0
DWIDTH 5 0
BBX 8 7 -1 1
BITMAP
18888886
00000000
00786784
01807502
02605300
02700000
00982000
ENDCHAR
STARTCHAR uni0933094D
ENCODING -1
SWIDTH 677 0
DWIDTH 8 0
BBX 10 7 -1 1
BITMAP
1888888882
0000000000
0079779700
0270660720
0360440530
0360550630
0098888900
ENDCHAR
STARTCHAR uni0935094D
ENCODING -1
SWIDTH 255 0
DWIDTH 3 0
BBX 6 7 -1 1
BITMAP
188885
000000
007820
036000
045002
036008
007893
ENDCHAR
STARTCHAR uni0936094D
ENCODING -1
SWIDTH 378 0
DWIDTH 5 0
BBX 4 8 0 0
BITMAP
0989
1709
0009
5996
1900
0640
00A0
0032
ENDCHAR
STARTCHAR uni0937094D
ENCODING -1
SWIDTH 282 0
DWIDTH 3 0
BBX 6 6 -1 2
BITMAP
18D887
00C500
008630
008071
00900A
004893
ENDCHAR
STARTCHAR uni0938094D
ENCODING -1
SWIDTH 338 0
DWIDTH 4 0
BBX 7 8 -1 0
BITMAP
188C8830
00090000
00090000
07AA9930
03700000
00910000
00280000
00050000
ENDCHAR
STARTCHAR uni0939094D
ENCODING -1
SWIDTH 457 0
DWIDTH 5 0
BBX 8 9 -1 -1
BITMAP
18888C70
00000900
00788700
00900000
00898886
00900000
01700000
00900000
00488600
ENDCHAR
STARTCHAR uni0915093C094D
ENCODING -1
SWIDTH 519 0
DWIDTH 6 0
BBX 9 8 -1 0
BITMAP
18888C8860
00691A8930
02700A0050
0450080000
0450080000
0270190000
0069790000
0060040000
ENDCHAR
STARTCHAR uni0916093C094D
ENCODING -1
SWIDTH 463 0
DWIDTH 6 0
BBX 8 8 -1 0
BITMAP
188C9887
00081670
00092800
07972600
02801803
00730685
00090000
02432000
ENDCHAR
STARTCHAR uni0917093C094D
ENCODING -1
SWIDTH 264 0
DWIDTH 3 0
BBX 5 8 -1 0
BITMAP
18B920
006300
006300
008200
077000
000000
001000
004000
ENDCHAR
STARTCHAR uni091C093C094D
ENCODING -1
SWIDTH 314 0
DWIDTH 4 0
BBX 6 9 -1 -1
BITMAP
188888
000000
019B98
000530
000450
000540
059800
000000
006000
ENDCHAR
STARTCHAR uni0928093C094D
ENCODING -1
SWIDTH 241 0
DWIDTH 3 0
BBX 5 8 0 0
BITMAP
888810
000000
000000
298810
620000
110000
000000
051000
ENDCHAR
STARTCHAR uni092B093C094D
ENCODING -1
SWIDTH 530 0
DWIDTH 6 0
BBX 9 8 -1 0
BITMAP
18C88C8870
0080098950
00800A0030
00900A0000
00598A0000
0000090000
0000090000
0033040000
ENDCHAR
STARTCHAR uni092F093C094D
ENCODING -1
SWIDTH 325 0
DWIDTH 4 0
BBX 7 9 -1 -1
BITMAP
188C8800
00062000
00072000
02A70000
03600000
01800220
00598700
00000000
00240000
ENDCHAR
STARTCHAR uni09080902
ENCODING -1
SWIDTH 478 0
DWIDTH 6 0
BBX 7 11 -1 0
BITMAP
00007930
00009510
00009000
18888C70
00788700
01800000
01800000
00788600
02400900
03A11A00
02877300
ENDCHAR
STARTCHAR uni09300941
ENCODING -1
SWIDTH 533 0
DWIDTH 6 0
BBX 8 8 -1 0
BITMAP
188C9884
00089920
00080180
07960080
02800550
00734700
00190000
00031000
ENDCHAR
STARTCHAR uni09300942
ENCODING -1
SWIDTH 645 0
DWIDTH 8 0
BBX 9 8 -1 0
BITMAP
188C988870
0008169600
0009180900
07A7150800
0280001900
0073049100
0009010000
0003100000
ENDCHAR
STARTCHAR uni09390941
ENCODING -1
SWIDTH 495 0
DWIDTH 6 0
BBX 8 11 -1 -3
BITMAP
18888C81
00688700
00900000
00800000
00898500
01800900
01800000
00688700
02100720
01900720
00498800
ENDCHAR
STARTCHAR uni09390942
ENCODING -1
SWIDTH 492 0
DWIDTH 6 0
BBX 7 11 -1 -3
BITMAP
18888C70
00000900
00788700
00900000
00998500
01800900
00900000
00888300
00800800
00800620
00781260
ENDCHAR
STARTCHAR uni09260943
ENCODING -1
SWIDTH 390 0
DWIDTH 5 0
BBX 6 7 -1 1
BITMAP
1888C6
006880
018000
008000
00A930
018000
00A881
ENDCHAR
STARTCHAR uni09390943
ENCODING -1
SWIDTH 519 0
DWIDTH 6 0
BBX 8 9 -1 -1
BITMAP
18888C83
00788700
01800000
01700000
0099A840
02745060
03536000
02706730
00788600
ENDCHAR
STARTCHAR uni094D0930
ENCODING -1
SWIDTH 0 0
DWIDTH 0 0
BBX 4 3 -5 -2
BITMAP
0330
1991
8228
ENDCHAR
STARTCHAR uni0930094D.1
ENCODING -1
SWIDTH 192 0
DWIDTH 2 0
BBX 5 4 -1 4
BITMAP
188300
000000
400140
499810
ENDCHAR
STARTCHAR uni0930094D.2
ENCODING -1
SWIDTH 0 0
DWIDTH 0 0
BBX 3 4 -2 7
BITMAP
5920
9000
9000
5000
ENDCHAR
STARTCHAR uni0930094D0902
ENCODING -1
SWIDTH 0 0
DWIDTH 0 0
BBX 3 4 -2 7
BITMAP
5920
9510
9000
5000
ENDCHAR
STARTCHAR uni093E0930094D
ENCODING -1
SWIDTH 231 0
DWIDTH 3 0
BBX 4 11 -1 0
BITMAP
0078
0090
0090
18C7
0090
0090
0090
0090
0090
0090
0040
ENDCHAR
STARTCHAR uni093E0930094D0902
ENCODING -1
SWIDTH 231 0
DWIDTH 3 0
BBX 5 11 -1 0
BITMAP
007800
009510
009000
18C700
009000
009000
009000
009000
009000
009000
004000
ENDCHAR
STARTCHAR uni0930094D.aMatraI
ENCODING -1
SWIDTH 0 0
DWIDTH 0 0
BBX 3 3 -1 8
BITMAP
2930
8100
9000
ENDCHAR
STARTCHAR uni0902.aMatraI
ENCODING -1
SWIDTH 0 0
DWIDTH 0 0
BBX 2 1 0 9
BITMAP
61
ENDCHAR
STARTCHAR uni0930094D0902.aMatraI
ENCODING -1
SWIDTH 0 0
DWIDTH 0 0
BBX 3 3 -1 8
BITMAP
2930
8100
9320
ENDCHAR
STARTCHAR uni09400930094D
ENCODING -1
SWIDTH 231 0
DWIDTH 3 0
BBX 5 11 -2 0
BITMAP
599890
900A00
100900
018C70
000900
000900
000900
000900
000900
000900
000400
ENDCHAR
STARTCHAR uni09400902
ENCODING -1
SWIDTH 231 0
DWIDTH 3 0
BBX 5 11 -2 0
BITMAP
699570
600900
000900
018C70
000900
000900
000900
000900
000900
000900
000400
ENDCHAR
STARTCHAR uni09400930094D0902
ENCODING -1
SWIDTH 231 0
DWIDTH 3 0
BBX 6 11 -2 0
BITMAP
599990
900A51
000900
018C70
000900
000900
000900
000900
000900
000900
000400
ENDCHAR
STARTCHAR uni0940.aLong
ENCODING -1
SWIDTH 231 0
DWIDTH 3 0
BBX 8 11 -5 0
BITMAP
49888950
90000090
10000090
000018C7
00000090
00000090
00000090
00000090
00000090
00000090
00000040
ENDCHAR
STARTCHAR uni09400930094D.aLong
ENCODING -1
SWIDTH 231 0
DWIDTH 3 0
BBX 8 11 -5 0
BITMAP
49888999
900000A0
10000090
000018C7
00000090
00000090
00000090
00000090
00000090
00000090
00000040
ENDCHAR
STARTCHAR uni09400902.aLong
ENCODING -1
SWIDTH 231 0
DWIDTH 3 0
BBX 9 11 -5 0
BITMAP
5988895620
5000009000
0000009000
000018C700
0000009000
0000009000
0000009000
0000009000
0000009000
0000009000
0000004000
ENDCHAR
STARTCHAR uni09400930094D0902.aLong
ENCODING -1
SWIDTH 231 0
DWIDTH 3 0
BBX 9 11 -5 0
BITMAP
4988899900
900000A510
0000009000
000018C700
0000009000
0000009000
0000009000
0000009000
0000009000
0000009000
0000004000
ENDCHAR
STARTCHAR uni09470930094D
ENCODING -1
SWIDTH 0 0
DWIDTH 0 0
BBX 5 3 -4 8
BITMAP
645920
089000
00A000
ENDCHAR
STARTCHAR uni09470902
ENCODING -1
SWIDTH 0 0
DWIDTH 0 0
BBX 4 4 -4 7
BITMAP
7300
0907
0270
0020
ENDCHAR
STARTCHAR uni09470901
ENCODING -1
SWIDTH 0 0
DWIDTH 0 0
BBX 7 4 -4 7
BITMAP
73206110
09388820
02700000
00200000
ENDCHAR
STARTCHAR uni09470930094D0902
ENCODING -1
SWIDTH 0 0
DWIDTH 0 0
BBX 5 3 -4 8
BITMAP
655920
09A410
01B000
ENDCHAR
STARTCHAR uni09480930094D
ENCODING -1
SWIDTH 0 0
DWIDTH 0 0
BBX 5 4 -4 7
BITMAP
929820
27C000
05B000
005000
ENDCHAR
STARTCHAR uni09480902
ENCODING -1
SWIDTH 0 0
DWIDTH 0 0
BBX 5 4 -4 7
BITMAP
828000
198430
03A000
004000
ENDCHAR
STARTCHAR uni09480901
ENCODING -1
SWIDTH 0 0
DWIDTH 0 0
BBX 8 4 -4 7
BITMAP
82810611
18871053
03A18880
00400000
ENDCHAR
STARTCHAR uni09480930094D0902
ENCODING -1
SWIDTH 0 0
DWIDTH 0 0
BBX 5 4 -4 7
BITMAP
929820
28C510
05C000
005000
ENDCHAR
STARTCHAR uni094B0930094D
ENCODING -1
SWIDTH 231 0
DWIDTH 3 0
BBX 4 11 -1 0
BITMAP
9178
1880
04A0
18C7
0090
0090
0090
0090
0090
0090
0040
ENDCHAR
STARTCHAR uni094B0902
ENCODING -1
SWIDTH 231 0
DWIDTH 3 0
BBX 4 11 -1 0
BITMAP
8125
1800
0450
18C7
0090
0090
0090
0090
0090
0090
0040
ENDCHAR
STARTCHAR uni094B0930094D0902
ENCODING -1
SWIDTH 231 0
DWIDTH 3 0
BBX 5 11 -1 0
BITMAP
928800
1A9510
04A000
18C700
009000
009000
009000
009000
009000
009000
004000
ENDCHAR
STARTCHAR uni094C0930094D
ENCODING -1
SWIDTH 231 0
DWIDTH 3 0
BBX 4 11 -1 0
BITMAP
9488
48A0
06A0
18C7
0090
0090
0090
0090
0090
0090
0040
ENDCHAR
STARTCHAR uni094C0902
ENCODING -1
SWIDTH 231 0
DWIDTH 3 0
BBX 4 11 -1 0
BITMAP
8187
2880
0490
18C7
0090
0090
0090
0090
0090
0090
0040
ENDCHAR
STARTCHAR uni094C0930094D0902
ENCODING -1
SWIDTH 231 0
DWIDTH 3 0
BBX 5 11 -1 0
BITMAP
948800
49A510
06A000
18C700
009000
009000
009000
009000
009000
009000
004000
ENDCHAR
STARTCHAR uni0915094D0937
ENCODING -1
SWIDTH 656 0
DWIDTH 8 0
BBX 8 8 0 0
BITMAP
049850B8
08108090
08AAA9A0
27000090
36006090
27019090
07989090
00004040
ENDCHAR
STARTCHAR uni0915094D0937094D
ENCODING -1
SWIDTH 429 0
DWIDTH 5 0
BBX 7 8 0 0
BITMAP
04995000
08108000
08AAA940
27000000
36006000
27019000
07989000
00004000
ENDCHAR
STARTCHAR uni0915094D0937094D092E
ENCODING -1
SWIDTH 933 0
DWIDTH 11 0
BBX 12 8 0 0
BITMAP
049853C88B93
081080900720
08AAA9B00720
270000A88C20
360060900720
270190200720
079890000720
000040000310
ENDCHAR
STARTCHAR uni0915094D0937094D092E094D
ENCODING -1
SWIDTH 717 0
DWIDTH 9 0
BBX 10 8 0 0
BITMAP
049953C888
0810809000
08AAA9B000
270000A887
3600609000
2701902000
0798900000
0000400000
ENDCHAR
STARTCHAR uni0915094D0937094D092E094D092F
ENCODING -1
SWIDTH 1283 0
DWIDTH 15 0
BBX 16 8 0 0
BITMAP
049853C8889C8AA4
0810809000090440
08AAA9B006950440
270000A88C000440
3600608007300640
2701900001888940
0796800000000440
0000400000000220
ENDCHAR
STARTCHAR uni0915094D0937094D092F
ENCODING -1
SWIDTH 989 0
DWIDTH 12 0
BBX 12 8 0 0
BITMAP
0498538C98C8
081080054090
08AAA9A91090
270001700090
3600609001B0
270190498890
079680000090
000040000040
ENDCHAR
STARTCHAR uni0915094D0937094D0935
ENCODING -1
SWIDTH 936 0
DWIDTH 11 0
BBX 12 8 0 0
BITMAP
049853888B93
081080396720
08AAA9B00720
270000900720
360060900820
270190398A20
079780000720
000040000310
ENDCHAR
STARTCHAR uni091C094D091E
ENCODING -1
SWIDTH 629 0
DWIDTH 8 0
BBX 9 9 -1 -1
BITMAP
1888889B50
007999A600
0180003600
0180003600
0078953600
0270093600
02B8873600
0260001300
0010000000
ENDCHAR
STARTCHAR uni091C094D091E094D
ENCODING -1
SWIDTH 398 0
DWIDTH 5 0
BBX 7 9 -1 -1
BITMAP
18888880
00799980
01800000
01800000
00789500
02700900
02B88700
02600000
00100000
ENDCHAR
STARTCHAR uni091C094D091E094D092F
ENCODING -1
SWIDTH 975 0
DWIDTH 12 0
BBX 13 9 -1 -1
BITMAP
18888888C88C70
00799980710900
01800053810900
0180004A700900
00789525002900
02700906887900
02B88700000900
02600000000400
00100000000000
ENDCHAR
STARTCHAR uni0915094D0928
ENCODING -1
SWIDTH 1003 0
DWIDTH 12 0
BBX 14 8 -1 0
BITMAP
18888C88888C81
00691A89500900
02700A00B88C00
04500801800900
04500800800900
02701900100900
00697900000900
00000400000400
ENDCHAR
STARTCHAR uni0916094D0928
ENCODING -1
SWIDTH 958 0
DWIDTH 12 0
BBX 13 8 -1 0
BITMAP
188C9888889B50
00081685003600
00092807103600
07971808A8A600
0280068B003600
00730002103600
00090000003600
00032000001300
ENDCHAR
STARTCHAR uni0917094D0928
ENCODING -1
SWIDTH 736 0
DWIDTH 9 0
BBX 10 8 -1 0
BITMAP
18B98888C8
0063000090
00630988A0
0082450090
0770350090
0000000090
0000000090
0000000040
ENDCHAR
STARTCHAR uni0918094D0928
ENCODING -1
SWIDTH 814 0
DWIDTH 10 0
BBX 11 8 -1 0
BITMAP
18D888888C70
018000000900
00B920000900
007002A99A00
018005400900
006888400900
000000000900
000000000400
ENDCHAR
STARTCHAR uni091A094D0928
ENCODING -1
SWIDTH 829 0
DWIDTH 10 0
BBX 12 8 -1 0
BITMAP
188888888C81
000000000900
06AA70000900
008000988B00
009003700900
002877600900
000000000900
000000000400
ENDCHAR
STARTCHAR uni091B094D0928
ENCODING -1
SWIDTH 977 0
DWIDTH 12 0
BBX 13 8 -1 0
BITMAP
18D88888888C70
01800870000900
00700082988900
00B91077300900
01900076400900
01800081000900
00888970000900
00000000000400
ENDCHAR
STARTCHAR uni091C094D0928
ENCODING -1
SWIDTH 831 0
DWIDTH 10 0
BBX 12 8 -1 0
BITMAP
188888888C81
000000000900
019B89B88B00
000532700900
000450600900
000540000900
058A10000900
000000000400
ENDCHAR
STARTCHAR uni091D094D0928
ENCODING -1
SWIDTH 935 0
DWIDTH 11 0
BBX 13 8 -1 0
BITMAP
1888BA8888B930
0088A200007200
01800000007200
0078A989107200
00101808007200
03600801007200
03B89300007200
03500000003100
ENDCHAR
STARTCHAR uni091F094D0928
ENCODING -1
SWIDTH 494 0
DWIDTH 6 0
BBX 7 11 -1 -3
BITMAP
18888C80
00000800
00699700
01800000
03600340
01800630
00699B00
00000900
00888A00
02700900
00200900
ENDCHAR
STARTCHAR uni0920094D0928
ENCODING -1
SWIDTH 516 0
DWIDTH 6 0
BBX 8 11 -1 -3
BITMAP
18888C83
00000900
0068A900
02800630
03600440
02800730
00699B00
00000900
00888A00
02700900
00200900
ENDCHAR
STARTCHAR uni0921094D0928
ENCODING -1
SWIDTH 481 0
DWIDTH 6 0
BBX 7 11 -1 -3
BITMAP
18888C70
00000800
00788700
01800000
00788700
01500A00
00888A00
00000900
00888A00
01800900
00300800
ENDCHAR
STARTCHAR uni0924094D0928
ENCODING -1
SWIDTH 756 0
DWIDTH 9 0
BBX 11 8 -1 0
BITMAP
18888888C820
000000009000
00400A88C000
026009009000
036006009000
036000009000
019100009000
003600004000
ENDCHAR
STARTCHAR uni0925094D0928
ENCODING -1
SWIDTH 855 0
DWIDTH 10 0
BBX 11 8 0 0
BITMAP
09992888BA30
050900006200
39960698B200
450009006200
18001B006200
058886006200
000000006200
000000003100
ENDCHAR
STARTCHAR uni0926094D0928
ENCODING -1
SWIDTH 955 0
DWIDTH 11 0
BBX 13 10 -1 -2
BITMAP
18888C8888AB50
00699800003500
0180000398A500
03600009003500
03600608003500
01800A01003500
00699B00003500
00000400001300
00000540000000
00000090000000
ENDCHAR
STARTCHAR uni0927094D0928
ENCODING -1
SWIDTH 814 0
DWIDTH 10 0
BBX 11 8 -1 0
BITMAP
18D805888C70
018000000900
00B920000900
007002A99A00
018006400900
007997400900
000000000900
000000000400
ENDCHAR
STARTCHAR uni0928094D0928
ENCODING -1
SWIDTH 738 0
DWIDTH 9 0
BBX 10 8 -1 0
BITMAP
18888888C8
0000000090
02989B88A0
0630350090
0320140090
0000000090
0000000090
0000000040
ENDCHAR
STARTCHAR uni092A094D0928
ENCODING -1
SWIDTH 782 0
DWIDTH 9 0
BBX 11 8 -1 0
BITMAP
18C88888AA40
008000004400
00800498B400
00900A004400
00599A004400
000000004400
000000004400
000000002200
ENDCHAR
STARTCHAR uni092B094D0928
ENCODING -1
SWIDTH 1013 0
DWIDTH 12 0
BBX 14 8 -1 0
BITMAP
18C88C88888C92
00800989500810
00800A00B88C10
00900A00900810
00598A00500810
00000900000810
00000900000810
00000400000400
ENDCHAR
STARTCHAR uni092C094D0928
ENCODING -1
SWIDTH 810 0
DWIDTH 10 0
BBX 11 8 -1 0
BITMAP
188888888C70
006820000800
029301988900
035616300800
035085400800
028037000800
006992000800
000000000400
ENDCHAR
STARTCHAR uni092D094D0928
ENCODING -1
SWIDTH 757 0
DWIDTH 9 0
BBX 11 8 -1 0
BITMAP
1A308888C820
018000009000
01800588C000
01C998009000
018008009000
002000009000
000000009000
000000004000
ENDCHAR
STARTCHAR uni092E094D0928
ENCODING -1
SWIDTH 757 0
DWIDTH 9 0
BBX 11 8 -1 0
BITMAP
18C88888C820
018000009000
01800588C000
01C998009000
018008009000
002000009000
000000009000
000000004000
ENDCHAR
STARTCHAR uni092F094D0928
ENCODING -1
SWIDTH 829 0
DWIDTH 10 0
BBX 12 8 -1 0
BITMAP
188C88888C81
000720000900
02A800000900
036000999B00
018003700900
004776500900
000000000900
000000000400
ENDCHAR
STARTCHAR uni0935094D0928
ENCODING -1
SWIDTH 798 0
DWIDTH 10 0
BBX 11 8 -1 0
BITMAP
188888889B60
006820002700
027002989700
035008102700
035007102700
027016002700
006891002700
000000001300
ENDCHAR
STARTCHAR uni0936094D0928
ENCODING -1
SWIDTH 845 0
DWIDTH 10 0
BBX 11 8 0 0
BITMAP
09890888C820
150900008100
00090788C100
599609008100
190007008100
064000008100
009000008100
002200004000
ENDCHAR
STARTCHAR uni0938094D0928
ENCODING -1
SWIDTH 831 0
DWIDTH 10 0
BBX 12 8 -1 0
BITMAP
188C88888C81
000900000900
000900788B00
07AA89700900
037001700900
009100000900
002800000900
000500000400
ENDCHAR
STARTCHAR uni0939094D0928
ENCODING -1
SWIDTH 500 0
DWIDTH 6 0
BBX 8 9 -1 -1
BITMAP
18888C81
00688A00
00900000
00800000
00888B40
00807760
02717260
01904000
00588600
ENDCHAR
STARTCHAR uni0915094D0930
ENCODING -1
SWIDTH 725 0
DWIDTH 9 0
BBX 10 8 -1 0
BITMAP
18888C8887
00781A8940
03600A0090
0450080090
0360190090
0078B93840
0009280000
0065040000
ENDCHAR
STARTCHAR uni0916094D0930
ENCODING -1
SWIDTH 698 0
DWIDTH 8 0
BBX 10 8 -1 0
BITMAP
188C988AA4
0008167440
0009180440
0797260440
0280180640
0073069B40
0009019540
0003291220
ENDCHAR
STARTCHAR uni0917094D0930
ENCODING -1
SWIDTH 494 0
DWIDTH 6 0
BBX 7 8 -1 0
BITMAP
18B98C80
00630900
00630900
00820900
07706B00
00046900
00270900
00400400
ENDCHAR
STARTCHAR uni0918094D0930
ENCODING -1
SWIDTH 559 0
DWIDTH 7 0
BBX 8 8 -1 0
BITMAP
18D888C7
02800090
00A92090
00800090
02700090
01900290
0069A790
00163040
ENDCHAR
STARTCHAR uni0919094D0930
ENCODING -1
SWIDTH 505 0
DWIDTH 6 0
BBX 8 10 -1 -2
BITMAP
18888C81
00799700
01800000
01800060
00688600
00000900
01811A00
005DC300
00558200
00701600
ENDCHAR
STARTCHAR uni091A094D0930
ENCODING -1
SWIDTH 563 0
DWIDTH 7 0
BBX 8 8 -1 0
BITMAP
188888C7
00000090
06AA7090
00800090
00900190
00399A90
0001A190
000A2040
ENDCHAR
STARTCHAR uni091B094D0930
ENCODING -1
SWIDTH 581 0
DWIDTH 7 0
BBX 9 9 -1 -1
BITMAP
18C888C810
0180008000
019008A000
0099108100
0180007100
0180008100
0088898000
0007670000
0028072000
ENDCHAR
STARTCHAR uni091C094D0930
ENCODING -1
SWIDTH 547 0
DWIDTH 7 0
BBX 8 8 -1 0
BITMAP
188889B6
00000270
019B8970
00053270
00045270
00054570
05985970
00047130
ENDCHAR
STARTCHAR uni091D094D0930
ENCODING -1
SWIDTH 684 0
DWIDTH 8 0
BBX 10 8 -1 0
BITMAP
1888BA8B93
0088A20720
0180000720
0078A98C20
0010180720
0360081D20
03B894A820
0350083310
ENDCHAR
STARTCHAR uni091E094D0930
ENCODING -1
SWIDTH 598 0
DWIDTH 7 0
BBX 9 8 -1 0
BITMAP
188888B920
0288107100
0002607100
0001C8C100
000270B100
0499179100
0000547100
0000403000
ENDCHAR
STARTCHAR uni091F094D0930
ENCODING -1
SWIDTH 485 0
DWIDTH 6 0
BBX 7 9 -1 -1
BITMAP
18888C80
00000800
00799600
02700000
03600110
02600630
00999900
000A9200
00731900
ENDCHAR
STARTCHAR uni0920094D0930
ENCODING -1
SWIDTH 512 0
DWIDTH 6 0
BBX 8 9 -1 -1
BITMAP
18888C82
00000900
0079A800
02700730
03600540
02600630
00999900
000A9200
00731900
ENDCHAR
STARTCHAR uni0921094D0930
ENCODING -1
SWIDTH 475 0
DWIDTH 6 0
BBX 7 9 -1 -1
BITMAP
18888C70
00799700
01800000
01800000
00688600
01400900
01911A00
004CC300
00734700
ENDCHAR
STARTCHAR uni0922094D0930
ENCODING -1
SWIDTH 485 0
DWIDTH 6 0
BBX 7 9 -1 -1
BITMAP
18888C80
00000900
00688700
01808800
03626530
02601530
00888900
000A9200
00731900
ENDCHAR
STARTCHAR uni0923094D0930
ENCODING -1
SWIDTH 681 0
DWIDTH 8 0
BBX 10 8 -1 0
BITMAP
18C89B8C92
0080270810
0080270810
0090360910
0069915B10
0000026810
0000190810
0000320400
ENDCHAR
STARTCHAR uni0924094D0930
ENCODING -1
SWIDTH 493 0
DWIDTH 6 0
BBX 7 8 -1 0
BITMAP
18888C80
00000900
00788A00
03700A00
02300A00
00019A00
00391900
00500400
ENDCHAR
STARTCHAR uni0925094D0930
ENCODING -1
SWIDTH 593 0
DWIDTH 7 0
BBX 8 8 0 0
BITMAP
08980892
09090800
01090800
39850800
36000B00
0789CB00
001A3800
00A30400
ENDCHAR
STARTCHAR uni0926094D0930
ENCODING -1
SWIDTH 489 0
DWIDTH 6 0
BBX 7 8 -1 0
BITMAP
18888C80
00699800
01800000
03600000
03600600
01800A00
0069BB00
00073400
ENDCHAR
STARTCHAR uni0927094D0930
ENCODING -1
SWIDTH 560 0
DWIDTH 7 0
BBX 8 8 -1 0
BITMAP
19D618C7
01800080
00A92080
00800080
02700080
00900290
0069A990
00055040
ENDCHAR
STARTCHAR uni0928094D0930
ENCODING -1
SWIDTH 473 0
DWIDTH 6 0
BBX 7 8 -1 0
BITMAP
18888C60
00000900
02988900
06304900
03219900
00091900
00740900
00500400
ENDCHAR
STARTCHAR uni092A094D0930
ENCODING -1
SWIDTH 503 0
DWIDTH 6 0
BBX 8 8 -1 0
BITMAP
18C88C81
00800800
00800800
00900A00
0058BB00
00055800
00370800
00500400
ENDCHAR
STARTCHAR uni092B094D0930
ENCODING -1
SWIDTH 741 0
DWIDTH 9 0
BBX 10 8 -1 0
BITMAP
18C88C8888
0080098960
00800A0081
00900A0062
0058BA0081
0007492860
0046090000
0050040000
ENDCHAR
STARTCHAR uni092C094D0930
ENCODING -1
SWIDTH 491 0
DWIDTH 6 0
BBX 7 8 -1 0
BITMAP
18888C80
00682800
02C20800
03581800
03518800
02703C00
0069A900
00270400
ENDCHAR
STARTCHAR uni092D094D0930
ENCODING -1
SWIDTH 491 0
DWIDTH 6 0
BBX 7 8 -1 0
BITMAP
1A308C80
01800800
01800800
01C88B00
01805B00
00246800
00280800
00400400
ENDCHAR
STARTCHAR uni092E094D0930
ENCODING -1
SWIDTH 490 0
DWIDTH 6 0
BBX 7 8 -1 0
BITMAP
18C88C80
01800900
01800900
01C88B00
01806B00
00246900
00380900
00500400
ENDCHAR
STARTCHAR uni092F094D0930
ENCODING -1
SWIDTH 564 0
DWIDTH 7 0
BBX 8 8 -1 0
BITMAP
188C88C7
00072080
02A80080
03600080
01800190
0059AA90
0002A180
001A1040
ENDCHAR
STARTCHAR uni0935094D0930
ENCODING -1
SWIDTH 484 0
DWIDTH 6 0
BBX 7 8 -1 0
BITMAP
18888C70
00692800
02800800
04500800
04500800
02701A00
0069A900
00370400
ENDCHAR
STARTCHAR uni0936094D0930
ENCODING -1
SWIDTH 558 0
DWIDTH 7 0
BBX 7 8 0 0
BITMAP
09880C70
36090900
190A0900
05D40900
58288900
00195900
01910900
00000400
ENDCHAR
STARTCHAR uni0938094D0930
ENCODING -1
SWIDTH 604 0
DWIDTH 7 0
BBX 9 8 -1 0
BITMAP
188C88B930
0009007200
0009007200
07AA89D200
0370089200
0091567200
0028107200
0005003100
ENDCHAR
STARTCHAR uni0939094D0930
ENCODING -1
SWIDTH 505 0
DWIDTH 6 0
BBX 8 9 -1 -1
BITMAP
18888C81
00788900
02800000
01800000
00988B30
02707740
03546440
02700000
00688600
ENDCHAR
STARTCHAR uni0915093C094D0930
ENCODING -1
SWIDTH 725 0
DWIDTH 9 0
BBX 10 9 -1 -1
BITMAP
18888C8887
00781A8940
03600A0090
0450080090
0360190090
0078B93840
0009280000
0065040000
0005200000
ENDCHAR
STARTCHAR uni0916093C094D0930
ENCODING -1
SWIDTH 698 0
DWIDTH 8 0
BBX 10 9 -1 -1
BITMAP
188C988AA4
0008167440
0009180440
0797260440
0280180640
0073069B40
0009019540
0003291220
0000006000
ENDCHAR
STARTCHAR uni0917093C094D0930
ENCODING -1
SWIDTH 494 0
DWIDTH 6 0
BBX 7 9 -1 -1
BITMAP
18B98C80
00630900
00630900
00820900
07706B00
00046900
00270900
00400400
00051000
ENDCHAR
STARTCHAR uni091C093C094D0930
ENCODING -1
SWIDTH 547 0
DWIDTH 7 0
BBX 8 8 -1 0
BITMAP
188889B6
00000270
019B8970
00053270
00045270
00054670
05886870
06034130
ENDCHAR
STARTCHAR uni0921093C094D0930
ENCODING -1
SWIDTH 475 0
DWIDTH 6 0
BBX 7 9 -1 -1
BITMAP
18888C70
00799700
01800000
01800000
00688600
01400900
01911A00
004DD300
06744700
ENDCHAR
STARTCHAR uni0922093C094D0930
ENCODING -1
SWIDTH 485 0
DWIDTH 6 0
BBX 7 9 -1 -1
BITMAP
18888C80
00000900
00688700
01808800
03626530
02601530
00888900
06099200
00731900
ENDCHAR
STARTCHAR uni0928093C094D0930
ENCODING -1
SWIDTH 473 0
DWIDTH 6 0
BBX 7 9 -1 -1
BITMAP
18888C60
00000900
02988900
06304900
03219900
00091900
00740900
00500400
00060000
ENDCHAR
STARTCHAR uni092B093C094D0930
ENCODING -1
SWIDTH 741 0
DWIDTH 9 0
BBX 10 9 -1 -1
BITMAP
18C88C8888
0080098960
00800A0081
00900A0062
0058BA0081
0007492860
0046090000
0050040000
0006100000
ENDCHAR
STARTCHAR uni092F093C094D0930
ENCODING -1
SWIDTH 564 0
DWIDTH 7 0
BBX 8 9 -1 -1
BITMAP
188C88C7
00072080
02A80080
03600080
01800190
0059AA90
0002A180
001A1040
00006000
ENDCHAR
STARTCHAR uni0915094D0930094D
ENCODING -1
SWIDTH 518 0
DWIDTH 6 0
BBX 9 8 -1 0
BITMAP
18888C8860
00781A8940
03600A0030
0450080000
0360190000
0078B90000
0009280000
0064040000
ENDCHAR
STARTCHAR uni0916094D0930094D
ENCODING -1
SWIDTH 469 0
DWIDTH 6 0
BBX 8 8 -1 0
BITMAP
188C9887
00081670
00091800
07972600
02801804
00730698
00090190
00032910
ENDCHAR
STARTCHAR uni0917094D0930094D
ENCODING -1
SWIDTH 264 0
DWIDTH 3 0
BBX 6 8 -1 0
BITMAP
18B920
006300
006300
008202
077064
000460
002800
005000
ENDCHAR
STARTCHAR uni0918094D0930094D
ENCODING -1
SWIDTH 319 0
DWIDTH 4 0
BBX 7 9 -1 -1
BITMAP
18D98800
02700000
01800000
00992000
01800000
01800220
0079AA00
00048000
00150000
ENDCHAR
STARTCHAR uni091A094D0930094D
ENCODING -1
SWIDTH 331 0
DWIDTH 4 0
BBX 7 9 -1 -1
BITMAP
18888700
00000000
06AA7000
00810000
00900000
00910130
0029AB10
00039100
00060000
ENDCHAR
STARTCHAR uni091C094D0930094D
ENCODING -1
SWIDTH 312 0
DWIDTH 4 0
BBX 7 9 -1 -1
BITMAP
18888800
00000000
019B8800
00053000
00045000
00054010
05881910
00009200
00032000
ENDCHAR
STARTCHAR uni091D094D0930094D
ENCODING -1
SWIDTH 441 0
DWIDTH 5 0
BBX 8 9 -1 -1
BITMAP
1888BA84
0088A200
01800000
0078A988
00001808
03600816
03B89371
03600730
00100100
ENDCHAR
STARTCHAR uni091E094D0930094D
ENCODING -1
SWIDTH 374 0
DWIDTH 4 0
BBX 7 8 -1 0
BITMAP
18888850
02881000
00026000
0001C8A0
00027090
04991660
00004800
00005000
ENDCHAR
STARTCHAR uni091F094D0930094D
ENCODING -1
SWIDTH 485 0
DWIDTH 6 0
BBX 7 11 -1 -3
BITMAP
18888C80
00000800
00799600
02700000
03600210
02600630
00999900
000A9200
00731900
00018000
00005400
ENDCHAR
STARTCHAR uni0920094D0930094D
ENCODING -1
SWIDTH 512 0
DWIDTH 6 0
BBX 8 11 -1 -3
BITMAP
18888C82
00000900
0079A800
02700730
03600540
02600630
00999900
001A8200
00621800
00009000
00005500
ENDCHAR
STARTCHAR uni0921094D0930094D
ENCODING -1
SWIDTH 475 0
DWIDTH 6 0
BBX 7 12 -1 -4
BITMAP
18888C70
00799700
01800000
01800000
00688600
00000900
01801A00
005DC300
00468300
00711600
00019000
00002200
ENDCHAR
STARTCHAR uni0922094D0930094D
ENCODING -1
SWIDTH 485 0
DWIDTH 6 0
BBX 7 11 -1 -3
BITMAP
18888C80
00000900
00688700
01808800
03626530
02601530
00888900
000A8300
00631800
00009000
00004500
ENDCHAR
STARTCHAR uni0923094D0930094D
ENCODING -1
SWIDTH 457 0
DWIDTH 5 0
BBX 8 8 -1 0
BITMAP
18C89B50
00802700
00802700
00903605
00699155
00000280
00001900
00003200
ENDCHAR
STARTCHAR uni0924094D0930094D
ENCODING -1
SWIDTH 268 0
DWIDTH 3 0
BBX 6 8 -1 0
BITMAP
188888
000000
007882
037007
023007
000192
003910
005000
ENDCHAR
STARTCHAR uni0925094D0930094D
ENCODING -1
SWIDTH 358 0
DWIDTH 4 0
BBX 6 9 0 -1
BITMAP
089800
090900
010900
398500
450000
280004
0699C2
002910
006000
ENDCHAR
STARTCHAR uni0926094D0930094D
ENCODING -1
SWIDTH 489 0
DWIDTH 6 0
BBX 7 10 -1 -2
BITMAP
18888C80
00699800
01800000
03600000
03600600
01800A00
0069BB00
00063400
00006300
00000900
ENDCHAR
STARTCHAR uni0927094D0930094D
ENCODING -1
SWIDTH 322 0
DWIDTH 4 0
BBX 7 9 -1 -1
BITMAP
18D62800
02700000
01800000
00992000
01800000
01800220
0079AA00
00029100
00060000
ENDCHAR
STARTCHAR uni0928094D0930094D
ENCODING -1
SWIDTH 247 0
DWIDTH 3 0
BBX 6 8 -1 0
BITMAP
188884
000000
029886
063027
0321A1
000920
007400
005000
ENDCHAR
STARTCHAR uni092A094D0930094D
ENCODING -1
SWIDTH 270 0
DWIDTH 3 0
BBX 6 8 -1 0
BITMAP
18C880
008000
008000
009004
0058C3
000560
003800
005000
ENDCHAR
STARTCHAR uni092B094D0930094D
ENCODING -1
SWIDTH 523 0
DWIDTH 6 0
BBX 9 8 -1 0
BITMAP
29B88C8860
02600A8940
02600B0030
02701A0000
0068B90000
0008290000
0064090000
0040040000
ENDCHAR
STARTCHAR uni092C094D0930094D
ENCODING -1
SWIDTH 267 0
DWIDTH 3 0
BBX 6 9 -1 -1
BITMAP
188885
000000
007820
03B400
045540
036058
0078C2
000930
003200
ENDCHAR
STARTCHAR uni092D094D0930094D
ENCODING -1
SWIDTH 257 0
DWIDTH 3 0
BBX 6 8 -1 0
BITMAP
1A3084
018000
018000
01C886
018073
002560
003800
005000
ENDCHAR
STARTCHAR uni092E094D0930094D
ENCODING -1
SWIDTH 261 0
DWIDTH 3 0
BBX 6 8 -1 0
BITMAP
18C884
018000
018000
01C996
018073
002560
003800
005000
ENDCHAR
STARTCHAR uni092F094D0930094D
ENCODING -1
SWIDTH 323 0
DWIDTH 4 0
BBX 7 9 -1 -1
BITMAP
188C8500
00062000
00072000
02A70000
03600000
01800230
0059A900
00058000
00150000
ENDCHAR
STARTCHAR uni0935094D0930094D
ENCODING -1
SWIDTH 255 0
DWIDTH 3 0
BBX 6 9 -1 -1
BITMAP
188870
000000
007820
037000
045000
037002
0079C2
001920
004200
ENDCHAR
STARTCHAR uni0938094D0930094D
ENCODING -1
SWIDTH 347 0
DWIDTH 4 0
BBX 7 8 -1 0
BITMAP
188C8810
00090000
00090000
07AA8960
03700820
00916400
00283000
00050000
ENDCHAR
STARTCHAR uni0915093C094D0930094D
ENCODING -1
SWIDTH 518 0
DWIDTH 6 0
BBX 9 9 -1 -1
BITMAP
18888C8860
00781A8940
03600A0030
0450080000
0360190000
0078B90000
0008380000
0055040000
0005100000
ENDCHAR
STARTCHAR uni0916093C094D0930094D
ENCODING -1
SWIDTH 466 0
DWIDTH 6 0
BBX 8 9 -1 -1
BITMAP
188C9887
00081670
00091800
07972600
02801804
00730698
00090190
00032920
00000160
ENDCHAR
STARTCHAR uni0917093C094D0930094D
ENCODING -1
SWIDTH 264 0
DWIDTH 3 0
BBX 6 9 -1 -1
BITMAP
18B920
006300
006300
008202
077064
000460
002800
005000
000420
ENDCHAR
STARTCHAR uni091C093C094D0930094D
ENCODING -1
SWIDTH 320 0
DWIDTH 4 0
BBX 7 9 -1 -1
BITMAP
18888800
00000000
019B8800
00053000
00045000
00054320
05883800
00038000
06010000
ENDCHAR
STARTCHAR uni0928093C094D0930094D
ENCODING -1
SWIDTH 247 0
DWIDTH 3 0
BBX 6 9 -1 -1
BITMAP
188884
000000
029886
063027
0321A1
000920
007400
005000
000600
ENDCHAR
STARTCHAR uni092B093C094D0930094D
ENCODING -1
SWIDTH 523 0
DWIDTH 6 0
BBX 9 9 -1 -1
BITMAP
29B88C8860
02600A8940
02600B0030
02701A0000
0068B90000
0008290000
0064090000
0040040000
0006000000
ENDCHAR
STARTCHAR uni092F093C094D0930094D
ENCODING -1
SWIDTH 323 0
DWIDTH 4 0
BBX 7 9 -1 -1
BITMAP
188C8500
00062000
00072000
02A70000
03600000
01800220
0059A700
00163000
00006000
ENDCHAR
STARTCHAR uni0915094D0915
ENCODING -1
SWIDTH 1255 0
DWIDTH 15 0
BBX 17 8 -1 0
BITMAP
18888C88888C888820
00691A897948787000
02700A00A009206300
045008009008004500
045008009008004500
02701900900A006300
00697900398B187000
000004000004000000
ENDCHAR
STARTCHAR uni0915094D0916
ENCODING -1
SWIDTH 1256 0
DWIDTH 15 0
BBX 17 8 -1 0
BITMAP
18888C8888C888C820
00691A892090848000
02700A018095408000
04500800B947208000
04500800640540A000
02701900090088A000
006968000370008000
000004000050004000
ENDCHAR
STARTCHAR uni0915094D091A
ENCODING -1
SWIDTH 1086 0
DWIDTH 13 0
BBX 15 8 -1 0
BITMAP
18888C888888C810
00691A8700008000
02700A059B918000
0450080053008000
045008006300A000
027019001888A000
0068680000008000
0000040000004000
ENDCHAR
STARTCHAR uni0915094D091C
ENCODING -1
SWIDTH 1071 0
DWIDTH 13 0
BBX 14 8 -1 0
BITMAP
18888C888888C8
00691800000090
02700A864B99A0
04500A00018090
04500800009090
02701900018090
00697903992090
00000400000040
ENDCHAR
STARTCHAR uni0915094D091F
ENCODING -1
SWIDTH 984 0
DWIDTH 12 0
BBX 13 8 -1 0
BITMAP
18888C88888C70
00691A89301800
02700A00D99600
04500802700000
04500803600000
01701902600630
00234900988900
00000400000000
ENDCHAR
STARTCHAR uni0915094D0923
ENCODING -1
SWIDTH 1183 0
DWIDTH 14 0
BBX 16 8 -1 0
BITMAP
18888C88C89B8B93
00691A8890170720
02700B0090170720
0450080090270720
0450080059910720
0270190000000720
0068790000000720
0000040000000310
ENDCHAR
STARTCHAR uni0915094D0924
ENCODING -1
SWIDTH 761 0
DWIDTH 9 0
BBX 11 8 -1 0
BITMAP
18888B988820
000007200000
029A8C888000
008107305400
009007203600
008107205400
002947288000
000003100000
ENDCHAR
STARTCHAR uni0915094D0925
ENCODING -1
SWIDTH 1118 0
DWIDTH 13 0
BBX 15 8 -1 0
BITMAP
18888C8369A14A40
0069180040634500
02700A88A8804500
04500A0090004500
0450080090006500
0270190039888500
0068680000004500
0000040000002200
ENDCHAR
STARTCHAR uni0915094D0926
ENCODING -1
SWIDTH 1009 0
DWIDTH 12 0
BBX 14 8 -1 0
BITMAP
18888C88888C82
00691A89699A00
02700A00A00000
04500800800000
04500800800420
02701900900730
00797800399A30
00000400000210
ENDCHAR
STARTCHAR uni0915094D092A
ENCODING -1
SWIDTH 1007 0
DWIDTH 12 0
BBX 14 8 -1 0
BITMAP
18888C88C88C82
00691A88900900
02700B00900900
04500800800A00
04500800498B00
02701900000900
00687900000900
00000400000400
ENDCHAR
STARTCHAR uni0915094D092B
ENCODING -1
SWIDTH 1242 0
DWIDTH 15 0
BBX 16 8 -1 0
BITMAP
18888C88C88C8888
00691A8890098950
02700B00900A0091
04500800800A0062
04500800488A0062
0270190000090081
0068790000092950
0000040000040000
ENDCHAR
STARTCHAR uni0915094D092E
ENCODING -1
SWIDTH 994 0
DWIDTH 12 0
BBX 13 8 -1 0
BITMAP
18888C88C88C80
00691A88900900
02700B00900900
04500800C88B00
04500800900900
02701900500900
00697900000900
00000400000400
ENDCHAR
STARTCHAR uni0915094D092F
ENCODING -1
SWIDTH 1076 0
DWIDTH 13 0
BBX 14 8 -1 0
BITMAP
18888C888C98C8
00691800044090
02700A88A81090
04500A01800090
045008009001B0
02701900488890
00686800000090
00000400000040
ENDCHAR
STARTCHAR uni0915094D0932
ENCODING -1
SWIDTH 1178 0
DWIDTH 14 0
BBX 16 8 -1 0
BITMAP
18888C8888888C82
00691A8930000810
02700A01D9678B10
0450080180650A10
0450080270540810
0170190170210810
0023490089300810
0000040000000400
ENDCHAR
STARTCHAR uni0915094D0935
ENCODING -1
SWIDTH 1013 0
DWIDTH 12 0
BBX 14 8 -1 0
BITMAP
18888C88888C82
00691A89695810
02700A00B00810
04500800900810
04500800900810
02701900900A10
00697900398B10
00000400000400
ENDCHAR
STARTCHAR uni0915094D0936
ENCODING -1
SWIDTH 1194 0
DWIDTH 14 0
BBX 16 8 -1 0
BITMAP
18888C871A8805A4
00691A8931090530
02700B0090090530
04500800A9950530
0450080037000530
0270190008200530
0069790001900530
0000040000310310
ENDCHAR
STARTCHAR uni0915094D0938
ENCODING -1
SWIDTH 1143 0
DWIDTH 14 0
BBX 15 8 -1 0
BITMAP
18888C8888C88C70
00691A8920900900
02700A0081800900
04500800BA989900
0450080055000900
0270190009000900
0069790004600900
0000040000500400
ENDCHAR
STARTCHAR uni0916094D0916
ENCODING -1
SWIDTH 1223 0
DWIDTH 15 0
BBX 16 8 -1 0
BITMAP
188C988889B888C6
0008167003639180
0009280004590080
07972603A9190080
02801803C0090190
0073068737039780
0009000008200080
0003200001400040
ENDCHAR
STARTCHAR uni0916094D0924
ENCODING -1
SWIDTH 984 0
DWIDTH 12 0
BBX 13 8 -1 0
BITMAP
188C9888888C70
00081670000900
00092800899A00
07972604500900
02801805300900
0073068B300900
00090003810900
00032000450400
ENDCHAR
STARTCHAR uni0916094D092E
ENCODING -1
SWIDTH 965 0
DWIDTH 12 0
BBX 13 8 -1 0
BITMAP
188C988BA89B60
00081675301700
00092805301700
07972605A89700
02801806301700
00730687001700
00090000001700
00032000001300
ENDCHAR
STARTCHAR uni0916094D092F
ENCODING -1
SWIDTH 1047 0
DWIDTH 13 0
BBX 14 8 -1 0
BITMAP
188C98888C89B6
00081670090270
00092804960270
07972606300270
02801807600470
00730686888870
00090000000270
00032000000130
ENDCHAR
STARTCHAR uni0916094D0935
ENCODING -1
SWIDTH 975 0
DWIDTH 12 0
BBX 13 8 -1 0
BITMAP
188C9888888C70
00081670891900
00092804600900
07973605400900
02801806400900
00730687602900
00090000587900
00032000000400
ENDCHAR
STARTCHAR uni0916094D0936
ENCODING -1
SWIDTH 1123 0
DWIDTH 13 0
BBX 15 8 -1 0
BITMAP
188C988098903B50
0008167040723600
0009280000813600
0797260988703600
0280180850003600
00730686A1003600
0009000038003600
0003200005001300
ENDCHAR
STARTCHAR uni0917094D0917
ENCODING -1
SWIDTH 744 0
DWIDTH 9 0
BBX 10 8 -1 0
BITMAP
18B98B98C8
0063063090
0063063090
0082082090
0770770090
0000000090
0000000090
0000000040
ENDCHAR
STARTCHAR uni0917094D0918
ENCODING -1
SWIDTH 823 0
DWIDTH 10 0
BBX 11 8 -1 0
BITMAP
18B98C988C80
006309000900
006308A40900
008209000900
077009000900
000009001A00
000004988900
000000000400
ENDCHAR
STARTCHAR uni0917094D091C
ENCODING -1
SWIDTH 801 0
DWIDTH 10 0
BBX 11 8 -1 0
BITMAP
18B988888C60
006300001800
006319B99800
008200541800
077000361800
000000551800
000059801800
000000000400
ENDCHAR
STARTCHAR uni0917094D0923
ENCODING -1
SWIDTH 945 0
DWIDTH 11 0
BBX 13 8 -1 0
BITMAP
18B98C88C8AA40
00630800805400
00630800805400
00820901805400
06700599205400
00000000005400
00000000005400
00000000002200
ENDCHAR
STARTCHAR uni0917094D0926
ENCODING -1
SWIDTH 748 0
DWIDTH 9 0
BBX 11 8 -1 0
BITMAP
18B98888C810
006305999000
006309000000
007218000000
056018005100
000009009100
00000499B100
000000003000
ENDCHAR
STARTCHAR uni0917094D0927
ENCODING -1
SWIDTH 823 0
DWIDTH 10 0
BBX 11 8 -1 0
BITMAP
18B98C808C80
006309000900
006308A40900
008209000900
077009000900
000009001A00
000004998900
000000000400
ENDCHAR
STARTCHAR uni0917094D092C
ENCODING -1
SWIDTH 755 0
DWIDTH 9 0
BBX 11 8 -1 0
BITMAP
18B98888C820
006304849000
00630C309000
008218729000
07701808A000
00000901E000
00000488B000
000000004000
ENDCHAR
STARTCHAR uni0917094D092D
ENCODING -1
SWIDTH 755 0
DWIDTH 9 0
BBX 11 8 -1 0
BITMAP
18B99606C810
006309009000
006309009000
00820B88C000
077009009000
000003009000
000000009000
000000004000
ENDCHAR
STARTCHAR uni0917094D092E
ENCODING -1
SWIDTH 754 0
DWIDTH 9 0
BBX 11 8 -1 0
BITMAP
18B98C88C810
006309008000
006309008000
00820B88C000
077009008000
000003008000
000000008000
000000004000
ENDCHAR
STARTCHAR uni0917094D092F
ENCODING -1
SWIDTH 828 0
DWIDTH 10 0
BBX 12 8 -1 0
BITMAP
18B988C98C81
006300550900
00630A810900
008208000900
077009000B00
000004988A00
000000000900
000000000400
ENDCHAR
STARTCHAR uni0917094D0932
ENCODING -1
SWIDTH 924 0
DWIDTH 11 0
BBX 13 8 -1 0
BITMAP
18B9888888C820
00630000009000
0063078578B000
0082270740A000
07703605309000
00002700009000
00000982009000
00000000004000
ENDCHAR
STARTCHAR uni0917094D0935
ENCODING -1
SWIDTH 747 0
DWIDTH 9 0
BBX 11 8 -1 0
BITMAP
18B98888C810
006305938000
006309008000
008218008000
077018008000
00000900A000
00000588A000
000000004000
ENDCHAR
STARTCHAR uni0917094D0938
ENCODING -1
SWIDTH 839 0
DWIDTH 10 0
BBX 12 8 -1 0
BITMAP
18B988C88C82
006300900900
006300900900
00825AB88C00
077019000900
000007300900
000001900900
000000410400
ENDCHAR
STARTCHAR uni0918094D092E
ENCODING -1
SWIDTH 818 0
DWIDTH 10 0
BBX 11 8 -1 0
BITMAP
18C889B88C80
028002700900
00B922700900
007002C88A00
027002700900
019003500900
006988100900
000000000400
ENDCHAR
STARTCHAR uni0918094D092F
ENCODING -1
SWIDTH 867 0
DWIDTH 10 0
BBX 12 8 -1 0
BITMAP
18C8889C8AA4
028000090440
00A926950440
008008000440
027006300640
019006D98840
006987000440
000000000220
ENDCHAR
STARTCHAR uni091A094D091A
ENCODING -1
SWIDTH 868 0
DWIDTH 10 0
BBX 12 8 -1 0
BITMAP
188888888AA4
000000000450
06AA36B94450
008000800450
009001900650
003988688950
000000000450
000000000220
ENDCHAR
STARTCHAR uni091A094D091B
ENCODING -1
SWIDTH 922 0
DWIDTH 11 0
BBX 13 7 -1 1
BITMAP
188888C888C820
00000090009000
06AA709008B000
0080008A107200
00900090006300
00398880006200
00000068888000
ENDCHAR
STARTCHAR uni091A094D092E
ENCODING -1
SWIDTH 830 0
DWIDTH 10 0
BBX 12 8 -1 0
BITMAP
188888C88C81
000000900900
06AB80900900
008000C88B00
009001800900
003989200900
000000000900
000000000400
ENDCHAR
STARTCHAR uni091A094D092F
ENCODING -1
SWIDTH 904 0
DWIDTH 11 0
BBX 12 8 -1 0
BITMAP
1888888C88C8
000000063090
06AA71A80090
008002700090
009002A001A0
003A98599890
000000000090
000000000040
ENDCHAR
STARTCHAR uni091B094D092F
ENCODING -1
SWIDTH 1068 0
DWIDTH 13 0
BBX 14 8 -1 0
BITMAP
18C888888888C8
018008B8892090
01900081018090
00991071018090
01800071882090
018000819102A0
00888970298790
00000000000040
ENDCHAR
STARTCHAR uni091B094D0935
ENCODING -1
SWIDTH 581 0
DWIDTH 7 0
BBX 9 9 -1 -1
BITMAP
18D888C810
0180009000
008008A000
0099108100
0080007100
0080008000
008A99A000
0090009000
0049893000
ENDCHAR
STARTCHAR uni091C094D0915
ENCODING -1
SWIDTH 1054 0
DWIDTH 13 0
BBX 14 8 -1 0
BITMAP
188888888C8886
000000681A8930
019B9A600A0090
00053540080090
00045540080090
00054360290090
05980078784930
00000000040000
ENDCHAR
STARTCHAR uni091C094D091C
ENCODING -1
SWIDTH 903 0
DWIDTH 11 0
BBX 12 8 -1 0
BITMAP
1888888888C8
000000000090
019B955B99A0
000540018090
000450009090
000540018090
059804992090
000000000040
ENDCHAR
STARTCHAR uni091C094D091D
ENCODING -1
SWIDTH 990 0
DWIDTH 12 0
BBX 13 8 -1 0
BITMAP
18888888B98C80
00000078A10900
019B9A70000900
00053198A98B00
00045000270900
00054450270900
059804C8920900
00000340000400
ENDCHAR
STARTCHAR uni091C094D091F
ENCODING -1
SWIDTH 815 0
DWIDTH 10 0
BBX 11 7 -1 1
BITMAP
188888889C70
000000001800
029B99799600
000633700000
000444500210
000633600720
069800988800
ENDCHAR
STARTCHAR uni091C094D0921
ENCODING -1
SWIDTH 797 0
DWIDTH 10 0
BBX 11 8 -1 0
BITMAP
188888889B60
000000699500
029B9A600000
000633600000
000440888500
000630000900
069804611900
000000577200
ENDCHAR
STARTCHAR uni091C094D0924
ENCODING -1
SWIDTH 830 0
DWIDTH 10 0
BBX 12 8 -1 0
BITMAP
188888888C81
000000000900
02ACAA9AAB00
000622700900
000443500900
000633500900
069801910900
000000360400
ENDCHAR
STARTCHAR uni091C094D0926
ENCODING -1
SWIDTH 817 0
DWIDTH 10 0
BBX 11 8 -1 0
BITMAP
188888888C70
000000499800
019B99700000
000533500000
000454500600
000542800A00
059800698A00
000000000400
ENDCHAR
STARTCHAR uni091C094D092C
ENCODING -1
SWIDTH 820 0
DWIDTH 10 0
BBX 11 8 -1 0
BITMAP
188888888C80
000000682900
019B9AC10900
000534580900
000454427900
000543704B00
059800788900
000000000400
ENDCHAR
STARTCHAR uni091C094D092E
ENCODING -1
SWIDTH 813 0
DWIDTH 10 0
BBX 11 8 -1 0
BITMAP
188889B88C70
000003600900
019B9A600900
000533B88900
000453600900
000541200900
059800000900
000000000400
ENDCHAR
STARTCHAR uni091C094D092F
ENCODING -1
SWIDTH 893 0
DWIDTH 11 0
BBX 12 8 -1 0
BITMAP
1888888C88C7
000000082090
029B8AA80090
000633500090
000442800290
000630698790
069800000090
000000000040
ENDCHAR
STARTCHAR uni091C094D0935
ENCODING -1
SWIDTH 813 0
DWIDTH 10 0
BBX 11 8 -1 0
BITMAP
188888888C70
000000691800
019B9A700800
000534400800
000454400800
000543701900
059800687900
000000000400
ENDCHAR
STARTCHAR uni091D094D092E
ENCODING -1
SWIDTH 936 0
DWIDTH 11 0
BBX 13 8 -1 0
BITMAP
1888BA8C88B930
0088A209007200
01800009007200
0078A98C88B200
00101809007200
03600802007200
03B89300007200
03500000003100
ENDCHAR
STARTCHAR uni091D094D092F
ENCODING -1
SWIDTH 1000 0
DWIDTH 12 0
BBX 14 8 -1 0
BITMAP
1888BA88B98C81
0088A200460900
0180000A910900
0078A989000900
00101809000B00
03600803988A00
03B89300000900
03500000000400
ENDCHAR
STARTCHAR uni091E094D091B
ENCODING -1
SWIDTH 913 0
DWIDTH 11 0
BBX 13 7 -1 1
BITMAP
188888D888C810
03881180008000
0003608008A000
0001C8D9108100
00036180007100
04881180008100
00000088897000
ENDCHAR
STARTCHAR uni091E094D091C
ENCODING -1
SWIDTH 932 0
DWIDTH 11 0
BBX 13 8 -1 0
BITMAP
1888888888C920
00000000008100
02981049A9C100
00036000908100
0001C800908100
00036000908100
04981089508100
00000000004000
ENDCHAR
STARTCHAR uni091E094D0936
ENCODING -1
SWIDTH 975 0
DWIDTH 12 0
BBX 13 8 -1 0
BITMAP
18888278A20C70
02891070450900
00026000450900
0001C9B9800900
00027091000900
04891028000900
00000007300900
00000000400400
ENDCHAR
STARTCHAR uni091F094D091F
ENCODING -1
SWIDTH 494 0
DWIDTH 6 0
BBX 8 11 -1 -3
BITMAP
18888C81
00688600
02700000
04500210
02700710
00689900
00012800
00988400
03500100
03600720
00788700
ENDCHAR
STARTCHAR uni091F094D0920
ENCODING -1
SWIDTH 495 0
DWIDTH 6 0
BBX 8 11 -1 -3
BITMAP
18888C81
00688600
02700000
04500210
02700710
00688B00
00013800
00A88900
03600530
02700730
00799700
ENDCHAR
STARTCHAR uni091F094D092F
ENCODING -1
SWIDTH 990 0
DWIDTH 12 0
BBX 13 8 -1 0
BITMAP
18888C88888C80
00000800000900
00789A88940900
02700000090900
03600217940900
02600638100A00
00988802988A00
00000000000400
ENDCHAR
STARTCHAR uni091F094D0935
ENCODING -1
SWIDTH 501 0
DWIDTH 6 0
BBX 8 9 -1 -1
BITMAP
18888C81
00000800
00688700
02800000
03600330
01800630
00A99C10
00900810
00788600
ENDCHAR
STARTCHAR uni0920094D092F
ENCODING -1
SWIDTH 998 0
DWIDTH 12 0
BBX 14 8 -1 0
BITMAP
18888C88888C81
00000900000900
0068A878840900
02700750090900
03600547940900
02600638100A00
00999902988B00
00000000000400
ENDCHAR
STARTCHAR uni0921094D0921
ENCODING -1
SWIDTH 493 0
DWIDTH 6 0
BBX 7 12 -1 -4
BITMAP
18888C80
00000800
00788700
01800000
00788700
01500A00
00C98700
01800000
00888600
01200900
01700900
00788600
ENDCHAR
STARTCHAR uni0921094D0922
ENCODING -1
SWIDTH 493 0
DWIDTH 6 0
BBX 7 11 -1 -3
BITMAP
18888C80
00000800
00788700
01800000
00788700
01500A00
00B98700
01809910
02616530
01701530
00888900
ENDCHAR
STARTCHAR uni0921094D092F
ENCODING -1
SWIDTH 973 0
DWIDTH 12 0
BBX 13 8 -1 0
BITMAP
18888C88888C60
00688A88810900
01800000360900
01800000360900
007AA70A910900
00100909003900
01811A03886900
00477300000400
ENDCHAR
STARTCHAR uni0921094D0935
ENCODING -1
SWIDTH 493 0
DWIDTH 6 0
BBX 7 10 -1 -2
BITMAP
18888C80
00000800
00788700
01800000
00788600
01500900
00B98C00
00900800
00900900
00599500
ENDCHAR
STARTCHAR uni0922094D092F
ENCODING -1
SWIDTH 981 0
DWIDTH 12 0
BBX 13 8 -1 0
BITMAP
18888C88888C70
00000900000900
00688A88920900
01807800280900
03617539920900
02713539001A00
00888904988900
00000000000400
ENDCHAR
STARTCHAR uni0923094D091F
ENCODING -1
SWIDTH 908 0
DWIDTH 11 0
BBX 12 7 -1 1
BITMAP
18C89B8888C8
008027000090
008027069970
009036180000
006991270034
000000180063
000000089890
ENDCHAR
STARTCHAR uni0923094D0920
ENCODING -1
SWIDTH 936 0
DWIDTH 11 0
BBX 13 7 -1 1
BITMAP
18C89B8888C830
00802700009000
008027069A9000
00903618006400
00699127004500
00000018005400
00000008989100
ENDCHAR
STARTCHAR uni0923094D0921
ENCODING -1
SWIDTH 892 0
DWIDTH 11 0
BBX 12 8 -1 0
BITMAP
18C89B8888C7
008027089970
008027180000
009036060000
006991000040
000000140090
0000001811A0
000000047730
ENDCHAR
STARTCHAR uni0923094D0922
ENCODING -1
SWIDTH 908 0
DWIDTH 11 0
BBX 12 7 -1 1
BITMAP
18C89B8888C8
008027000090
008027069880
009036190781
006991170744
000000180144
000000088890
ENDCHAR
STARTCHAR uni0923094D0923
ENCODING -1
SWIDTH 1127 0
DWIDTH 14 0
BBX 15 8 -1 0
BITMAP
18C89B8C88C89B50
0080270800802700
0080270800802700
0090360900902700
0069910399402700
0000000000002700
0000000000002700
0000000000001300
ENDCHAR
STARTCHAR uni0923094D092E
ENCODING -1
SWIDTH 932 0
DWIDTH 11 0
BBX 13 8 -1 0
BITMAP
18C89B8C88C920
00802709008100
00802709008100
0090360A88C100
00699107008100
00000000008100
00000000008100
00000000004000
ENDCHAR
STARTCHAR uni0923094D092F
ENCODING -1
SWIDTH 998 0
DWIDTH 12 0
BBX 14 8 -1 0
BITMAP
18C89B88B98C81
00802700450900
0080270A910900
00903608000900
00699109000B00
00000003988A00
00000000000900
00000000000400
ENDCHAR
STARTCHAR uni0923094D0935
ENCODING -1
SWIDTH 923 0
DWIDTH 11 0
BBX 13 8 -1 0
BITMAP
18C89B8888C820
00802704948000
00802709008000
00903609008000
00699109008000
0000000900B000
0000000388A000
00000000004000
ENDCHAR
STARTCHAR uni0924094D0915
ENCODING -1
SWIDTH 992 0
DWIDTH 12 0
BBX 13 8 -1 0
BITMAP
18888888C88880
00000383989600
00799900A10810
02701800900620
03601800900620
03600900A00810
01910598A29600
00360000400000
ENDCHAR
STARTCHAR uni0924094D0916
ENCODING -1
SWIDTH 1014 0
DWIDTH 12 0
BBX 14 8 -1 0
BITMAP
1888888C888C92
00000009075810
00789509450810
02700B95530810
04500550450910
03500091078A10
01910028000810
00360004000400
ENDCHAR
STARTCHAR uni0924094D0924
ENCODING -1
SWIDTH 542 0
DWIDTH 7 0
BBX 8 8 -1 0
BITMAP
188889B5
00000360
05AA9A60
00810360
00900360
00900360
00740360
00063130
ENDCHAR
STARTCHAR uni0924094D0925
ENCODING -1
SWIDTH 869 0
DWIDTH 10 0
BBX 12 8 -1 0
BITMAP
1888369A13A4
000004054450
00788A880450
027009000450
035009000650
036003988850
019100000450
003600000220
ENDCHAR
STARTCHAR uni0924094D092A
ENCODING -1
SWIDTH 757 0
DWIDTH 9 0
BBX 11 8 -1 0
BITMAP
18888C88C820
000009009000
008999009000
03700900A000
04500598B000
035000009000
019100009000
003600004000
ENDCHAR
STARTCHAR uni0924094D092B
ENCODING -1
SWIDTH 992 0
DWIDTH 12 0
BBX 13 8 -1 0
BITMAP
18888C88C88880
00000900989500
00899900A00910
03700900A00620
04500599A00620
03500000900810
01910000929500
00360000400000
ENDCHAR
STARTCHAR uni0924094D092E
ENCODING -1
SWIDTH 764 0
DWIDTH 9 0
BBX 11 8 -1 0
BITMAP
18888C88C920
000009008100
00799B008100
02700A88C100
036009008100
036002008100
019100008100
003600004000
ENDCHAR
STARTCHAR uni0924094D092F
ENCODING -1
SWIDTH 830 0
DWIDTH 10 0
BBX 12 8 -1 0
BITMAP
188888B98C81
000000450900
00788A910900
027008000900
035009000B00
036003988A00
019100000900
003600000400
ENDCHAR
STARTCHAR uni0924094D0932
ENCODING -1
SWIDTH 957 0
DWIDTH 11 0
BBX 13 8 -1 0
BITMAP
18888888889B50
00000000003600
00677677478600
02700B01A04600
04500900803600
03500900003600
02910595003600
00460000001300
ENDCHAR
STARTCHAR uni0924094D0935
ENCODING -1
SWIDTH 751 0
DWIDTH 9 0
BBX 11 8 -1 0
BITMAP
18888888C810
000003948000
00799A008000
027018008000
036018008000
03600900A000
01910488A000
003600004000
ENDCHAR
STARTCHAR uni0924094D0938
ENCODING -1
SWIDTH 876 0
DWIDTH 11 0
BBX 12 8 -1 0
BITMAP
1888889B89B5
000000270360
007893360360
02701CB98A60
045008200360
035001900360
019100730360
003600140130
ENDCHAR
STARTCHAR uni0925094D092F
ENCODING -1
SWIDTH 931 0
DWIDTH 11 0
BBX 12 8 0 0
BITMAP
089818AA8C92
050900180810
000908930810
398509000810
36000A100A10
079984999A10
000000000810
000000000400
ENDCHAR
STARTCHAR uni0925094D0935
ENCODING -1
SWIDTH 862 0
DWIDTH 10 0
BBX 11 8 0 0
BITMAP
09981888AA40
040902965400
000909105400
398509005400
36000A005400
078897107400
000000888400
000000002200
ENDCHAR
STARTCHAR uni0926094D0917
ENCODING -1
SWIDTH 489 0
DWIDTH 6 0
BBX 7 9 -1 -1
BITMAP
18888C80
00699800
01800000
03600100
01800900
006B8B00
00090800
00190400
02920000
ENDCHAR
STARTCHAR uni0926094D0918
ENCODING -1
SWIDTH 686 0
DWIDTH 8 0
BBX 10 8 -1 0
BITMAP
1888888B93
0000399A20
0188B00000
0540900000
0540800240
01C6800550
05402C9950
0188830220
ENDCHAR
STARTCHAR uni0926094D0926
ENCODING -1
SWIDTH 506 0
DWIDTH 6 0
BBX 8 8 -1 0
BITMAP
18888C81
00688900
00800000
00800000
00A96100
01900630
00988B30
00000530
ENDCHAR
STARTCHAR uni0926094D0927
ENCODING -1
SWIDTH 686 0
DWIDTH 8 0
BBX 10 8 -1 0
BITMAP
1888888B93
0000299A20
0183900000
0540800000
0540800340
01C6800550
05402C9950
0188830220
ENDCHAR
STARTCHAR uni0926094D092C
ENCODING -1
SWIDTH 481 0
DWIDTH 6 0
BBX 7 10 -1 -2
BITMAP
18888C70
00000800
00699800
02800000
03600200
01800900
00AA9B00
00992800
00808A00
00688400
ENDCHAR
STARTCHAR uni0926094D092D
ENCODING -1
SWIDTH 499 0
DWIDTH 6 0
BBX 8 10 -1 -2
BITMAP
18888C81
00000800
00699900
01800000
01800900
00698A00
04700800
00710800
00698A00
00310800
ENDCHAR
STARTCHAR uni0926094D092E
ENCODING -1
SWIDTH 706 0
DWIDTH 8 0
BBX 10 8 -1 0
BITMAP
18889B8AB5
0089950450
0450000450
0450160450
0088890450
00000C8A50
0000080450
0000000220
ENDCHAR
STARTCHAR uni0926094D092F
ENCODING -1
SWIDTH 583 0
DWIDTH 7 0
BBX 9 8 -1 0
BITMAP
1888C8C810
0078609000
0180009000
00A9109000
0080009000
0180009000
008889B000
0000004000
ENDCHAR
STARTCHAR uni0926094D0935
ENCODING -1
SWIDTH 483 0
DWIDTH 6 0
BBX 7 10 -1 -2
BITMAP
18888C70
00000800
00699800
02800000
03600200
01800900
00AA9B00
00900800
00900900
00689400
ENDCHAR
STARTCHAR uni0927094D092E
ENCODING -1
SWIDTH 817 0
DWIDTH 10 0
BBX 11 8 -1 0
BITMAP
18D707B88C80
028002700900
00A922700900
018002C88A00
027002700900
018003600900
006988100900
000000000400
ENDCHAR
STARTCHAR uni0927094D092F
ENCODING -1
SWIDTH 886 0
DWIDTH 11 0
BBX 12 8 -1 0
BITMAP
18C7068C88C6
028000090180
00A923970180
008005400180
027002600380
019005A98780
006987000180
000000000040
ENDCHAR
STARTCHAR uni0927094D0935
ENCODING -1
SWIDTH 810 0
DWIDTH 10 0
BBX 11 8 -1 0
BITMAP
18D706888C70
028000791800
00A923600800
018005400800
027005400800
018004601900
006988787900
000000000400
ENDCHAR
STARTCHAR uni0928094D0915
ENCODING -1
SWIDTH 973 0
DWIDTH 12 0
BBX 13 8 -1 0
BITMAP
18888888C88860
00000891B89300
0298A700A00900
08104400800900
07104400800900
01002601900900
00000687949300
00000000400000
ENDCHAR
STARTCHAR uni0928094D091A
ENCODING -1
SWIDTH 820 0
DWIDTH 10 0
BBX 11 8 -1 0
BITMAP
188888888C80
000000000900
000039B80900
039968100900
072009100A00
011002988900
000000000900
000000000400
ENDCHAR
STARTCHAR uni0928094D091B
ENCODING -1
SWIDTH 781 0
DWIDTH 9 0
BBX 11 7 -1 1
BITMAP
1888BA88B940
000090006300
00009105B200
0298AC402700
063080001800
011090002700
00005988A200
ENDCHAR
STARTCHAR uni0928094D091F
ENCODING -1
SWIDTH 715 0
DWIDTH 9 0
BBX 10 7 -1 1
BITMAP
1888888AA6
0000000450
0398A60110
0810720000
0510720060
0000530090
0000198960
ENDCHAR
STARTCHAR uni0928094D0921
ENCODING -1
SWIDTH 705 0
DWIDTH 8 0
BBX 10 8 -1 0
BITMAP
18888889B5
0000199940
0298A50000
0810440000
0710078840
0100100090
0000551290
0000067710
ENDCHAR
STARTCHAR uni0928094D0924
ENCODING -1
SWIDTH 717 0
DWIDTH 9 0
BBX 10 8 -1 0
BITMAP
18888889C6
0000000180
0398AB8980
0810820180
0510800180
0000800180
0000550180
0000053040
ENDCHAR
STARTCHAR uni0928094D0925
ENCODING -1
SWIDTH 804 0
DWIDTH 10 0
BBX 11 8 -1 0
BITMAP
18852AA30C60
000063270800
000010360800
0498A8810800
061090003800
000039887800
000000000800
000000000400
ENDCHAR
STARTCHAR uni0928094D0926
ENCODING -1
SWIDTH 724 0
DWIDTH 9 0
BBX 10 8 -1 0
BITMAP
18888888C7
0000099970
0298A60000
0810530000
0710530060
01003600A0
00000799A0
0000000040
ENDCHAR
STARTCHAR uni0928094D0927
ENCODING -1
SWIDTH 753 0
DWIDTH 9 0
BBX 11 8 -1 0
BITMAP
1888C917C810
000090009000
0298CB509000
081090009000
062080009000
00009000B000
00003999A000
000000004000
ENDCHAR
STARTCHAR uni0928094D092A
ENCODING -1
SWIDTH 742 0
DWIDTH 9 0
BBX 10 8 -1 0
BITMAP
18889B88C8
0000260090
0000260090
03989800A0
04200898A0
0000000090
0000000090
0000000040
ENDCHAR
STARTCHAR uni0928094D092B
ENCODING -1
SWIDTH 970 0
DWIDTH 12 0
BBX 13 8 -1 0
BITMAP
1888AA88C88860
00004500B89300
0398A500A00900
08102601900900
04100687900900
00000000900900
00000000949300
00000000400000
ENDCHAR
STARTCHAR uni0928094D092D
ENCODING -1
SWIDTH 739 0
DWIDTH 9 0
BBX 10 8 -1 0
BITMAP
1888A308C8
0000180090
0000180090
02989C88A0
0620180090
0110020090
0000000090
0000000040
ENDCHAR
STARTCHAR uni0928094D092E
ENCODING -1
SWIDTH 735 0
DWIDTH 9 0
BBX 10 8 -1 0
BITMAP
18889B88C8
0000270090
0000270090
02989C88A0
0620270090
0110020090
0000000090
0000000040
ENDCHAR
STARTCHAR uni0928094D092F
ENCODING -1
SWIDTH 801 0
DWIDTH 10 0
BBX 11 8 -1 0
BITMAP
188888C89C60
000000901800
039899701800
081054001800
021036003800
000006887800
000000001800
000000000400
ENDCHAR
STARTCHAR uni0928094D0935
ENCODING -1
SWIDTH 732 0
DWIDTH 9 0
BBX 10 8 -1 0
BITMAP
18888888C7
0000089290
0298A70090
0810450090
0710450090
01001701A0
0000058790
0000000040
ENDCHAR
STARTCHAR uni0928094D0938
ENCODING -1
SWIDTH 867 0
DWIDTH 10 0
BBX 12 8 -1 0
BITMAP
188888AA8AA4
000000450440
03A991540440
08102CB88A40
041009100440
000002800440
000000810440
000000130220
ENDCHAR
STARTCHAR uni0928094D0939
ENCODING -1
SWIDTH 714 0
DWIDTH 9 0
BBX 10 9 -1 -1
BITMAP
18888889C6
0000000180
0000088950
0298A60000
06200B8930
0110260080
0000540050
0000370000
0000068840
ENDCHAR
STARTCHAR uni092A094D091F
ENCODING -1
SWIDTH 489 0
DWIDTH 6 0
BBX 7 8 -1 0
BITMAP
18C88C80
01800900
00900900
00998900
02700000
03600430
01911910
00377300
ENDCHAR
STARTCHAR uni092A094D0920
ENCODING -1
SWIDTH 506 0
DWIDTH 6 0
BBX 8 8 -1 0
BITMAP
18C88B92
01800710
00900810
00999A00
01800720
02600630
01911910
00377300
ENDCHAR
STARTCHAR uni092A094D0924
ENCODING -1
SWIDTH 495 0
DWIDTH 6 0
BBX 8 8 -1 0
BITMAP
19B88C81
02700900
01800900
00A98B00
02700900
03500900
01900900
00360400
ENDCHAR
STARTCHAR uni092A094D092A
ENCODING -1
SWIDTH 770 0
DWIDTH 9 0
BBX 11 8 -1 0
BITMAP
18C88C88B930
008009006200
008009006200
00900A008200
00599598A200
000000006200
000000006200
000000003100
ENDCHAR
STARTCHAR uni092A094D092B
ENCODING -1
SWIDTH 1003 0
DWIDTH 12 0
BBX 14 8 -1 0
BITMAP
18C88C88C88881
00800900978600
00800900910720
00900A00A00440
00578577A00440
00000000900720
00000000918700
00000000400000
ENDCHAR
STARTCHAR uni092A094D092E
ENCODING -1
SWIDTH 774 0
DWIDTH 9 0
BBX 11 8 -1 0
BITMAP
18C88C88B930
008009006300
008009006300
00900A88B300
00588B006300
000002006300
000000006300
000000003100
ENDCHAR
STARTCHAR uni092A094D092F
ENCODING -1
SWIDTH 855 0
DWIDTH 10 0
BBX 12 8 -1 0
BITMAP
18C8889B8B93
008000090620
008008930620
00900A000620
00599A100920
000001888920
000000000620
000000000310
ENDCHAR
STARTCHAR uni092A094D0932
ENCODING -1
SWIDTH 960 0
DWIDTH 12 0
BBX 13 8 -1 0
BITMAP
18C88888889B50
00800000002600
00800498588600
00900A00A04600
00599B00402600
00000800002600
00000396002600
00000000001300
ENDCHAR
STARTCHAR uni092A094D0935
ENCODING -1
SWIDTH 780 0
DWIDTH 9 0
BBX 11 8 -1 0
BITMAP
18C88888AA40
008002975400
008009105400
00900A005400
00599A005400
000006107400
000001889400
000000002200
ENDCHAR
STARTCHAR uni092A094D0938
ENCODING -1
SWIDTH 880 0
DWIDTH 11 0
BBX 12 8 -1 0
BITMAP
18C8889B89B5
008000270270
008000360270
00900AB98970
005988200270
000000800270
000000630270
000000040130
ENDCHAR
STARTCHAR uni092B094D091C
ENCODING -1
SWIDTH 1100 0
DWIDTH 13 0
BBX 15 8 -1 0
BITMAP
18C88C888888B930
0080090000007100
0080098809A9C100
00900B0000907100
00598A0000907100
0000090000907100
0000090199507100
0000040000003100
ENDCHAR
STARTCHAR uni092B094D091F
ENCODING -1
SWIDTH 1006 0
DWIDTH 12 0
BBX 14 8 -1 0
BITMAP
18C88C88888C82
00800989400900
00800A00BA9800
00900A00900000
006A9A00800160
00000900900360
00000900698910
00000400000000
ENDCHAR
STARTCHAR uni092B094D0924
ENCODING -1
SWIDTH 1034 0
DWIDTH 12 0
BBX 14 8 -1 0
BITMAP
18C88C88888AA4
00800979400440
00800A00999B40
00900A00900440
00598A00900440
00000900900440
00000900830440
00000400162220
ENDCHAR
STARTCHAR uni092B094D092A
ENCODING -1
SWIDTH 1021 0
DWIDTH 12 0
BBX 14 8 -1 0
BITMAP
18C88C88C88B93
00800988A00620
00800A00900620
00900A00900820
006A99003AAA20
00000900000620
00000900000620
00000400000310
ENDCHAR
STARTCHAR uni092B094D092B
ENCODING -1
SWIDTH 1256 0
DWIDTH 15 0
BBX 17 8 -1 0
BITMAP
18C88C88C88C888820
00800988A009787000
00800A009009206300
00900A00800A004500
00598A00398B004500
000009000009006300
000009000009187000
000004000004000000
ENDCHAR
STARTCHAR uni092B094D092F
ENCODING -1
SWIDTH 1120 0
DWIDTH 13 0
BBX 15 8 -1 0
BITMAP
18C88C888BA8C820
0080090002709000
00800989B9209000
00900B0090009000
00598A009000B000
000009002998A000
0000090000009000
0000040000004000
ENDCHAR
STARTCHAR uni092B094D0932
ENCODING -1
SWIDTH 1202 0
DWIDTH 14 0
BBX 16 8 -1 0
BITMAP
18C88C8888888AA4
0080098940000450
00800A00BA858950
00900A0090290550
00598A0090040450
0000090090000450
0000090069500450
0000040000000220
ENDCHAR
STARTCHAR uni092B094D0936
ENCODING -1
SWIDTH 1211 0
DWIDTH 15 0
BBX 16 8 -1 0
BITMAP
18C88C88498902B5
0080098925063260
00800A0080072260
00900A00B8870260
00598A0055000260
0000090009100260
0000090002800260
0000040000500130
ENDCHAR
STARTCHAR uni092C094D091C
ENCODING -1
SWIDTH 883 0
DWIDTH 11 0
BBX 12 8 -1 0
BITMAP
1888888889B6
007920000170
02D0019B9970
047700054170
045450036170
027063054170
00699A980170
000000000030
ENDCHAR
STARTCHAR uni092C094D091D
ENCODING -1
SWIDTH 962 0
DWIDTH 12 0
BBX 13 9 -1 -1
BITMAP
18888888C89B50
00782498802700
03C20900002700
04561900002700
03605A99B8A700
00788400722700
00000641912700
00000677401300
00000410000000
ENDCHAR
STARTCHAR uni092C094D0924
ENCODING -1
SWIDTH 786 0
DWIDTH 9 0
BBX 11 8 -1 0
BITMAP
18888888AA40
006820004500
02C10299A500
035808004500
035179004500
02703C004500
00689B304500
000001722200
ENDCHAR
STARTCHAR uni092C094D0926
ENCODING -1
SWIDTH 775 0
DWIDTH 9 0
BBX 11 8 -1 0
BITMAP
18888888AA40
00582299A300
02B408100000
035719000000
035089001500
02802E104600
006993999600
000000001300
ENDCHAR
STARTCHAR uni092C094D0927
ENCODING -1
SWIDTH 844 0
DWIDTH 10 0
BBX 12 8 -1 0
BITMAP
18888C916C82
006829000800
029304B60800
035618000800
035089000800
02802E100B00
006995999B00
000000000400
ENDCHAR
STARTCHAR uni092C094D092C
ENCODING -1
SWIDTH 783 0
DWIDTH 9 0
BBX 11 8 -1 0
BITMAP
18888888AA40
006822964400
02C108704400
035809454400
035179067400
02703E10A400
006883889400
000000002200
ENDCHAR
STARTCHAR uni092C094D092D
ENCODING -1
SWIDTH 764 0
DWIDTH 9 0
BBX 11 8 -1 0
BITMAP
18889705C920
006829008100
02C109008100
03580A88C100
035179008100
02703A008100
006892008100
000000004000
ENDCHAR
STARTCHAR uni092C094D092F
ENCODING -1
SWIDTH 852 0
DWIDTH 10 0
BBX 12 8 -1 0
BITMAP
188888AB8B93
006820190720
02A308930720
035539000720
03505C100920
027028888A20
006981000720
000000000310
ENDCHAR
STARTCHAR uni092C094D0932
ENCODING -1
SWIDTH 961 0
DWIDTH 12 0
BBX 13 8 -1 0
BITMAP
18888888889B50
00792000002600
02D00298498600
03770901B04600
03526900802600
01604C00202600
002347A6002600
00000000001300
ENDCHAR
STARTCHAR uni092C094D0935
ENCODING -1
SWIDTH 776 0
DWIDTH 9 0
BBX 11 8 -1 0
BITMAP
18888888BA40
006822965300
02C108105300
035809005300
035179005300
02703E107300
00688388A300
000000003100
ENDCHAR
STARTCHAR uni092C094D0936
ENCODING -1
SWIDTH 926 0
DWIDTH 11 0
BBX 13 8 -1 0
BITMAP
188852A8608820
00682420908000
02B20000908000
03581899308000
03518A60008000
02702891008000
00689128008000
00000004004000
ENDCHAR
STARTCHAR uni092C094D0938
ENCODING -1
SWIDTH 897 0
DWIDTH 11 0
BBX 12 8 -1 0
BITMAP
1888888C88C7
006820090090
02B200090090
035818AA88A0
03518B600090
027029A00090
006892460090
000000050040
ENDCHAR
STARTCHAR uni092D094D092F
ENCODING -1
SWIDTH 827 0
DWIDTH 10 0
BBX 12 8 -1 0
BITMAP
193088C98C81
018000550900
01800A810900
01C888000900
01700A000B00
000004988900
000000000900
000000000400
ENDCHAR
STARTCHAR uni092D094D0932
ENCODING -1
SWIDTH 941 0
DWIDTH 11 0
BBX 13 8 -1 0
BITMAP
1A30888888B930
01800000006300
0180069768A300
01C88A04707300
01800902506300
00200900006300
00000794006300
00000000003100
ENDCHAR
STARTCHAR uni092D094D0935
ENCODING -1
SWIDTH 755 0
DWIDTH 9 0
BBX 11 8 -1 0
BITMAP
1A308888C810
018004948000
018009008000
01C889008000
018009008000
00500900B000
00000488A000
000000004000
ENDCHAR
STARTCHAR uni092E094D0924
ENCODING -1
SWIDTH 765 0
DWIDTH 9 0
BBX 11 8 -1 0
BITMAP
18C88888C920
018000008100
01800599C100
01C99A008100
018009008100
002009008100
000009208100
000002704000
ENDCHAR
STARTCHAR uni092E094D0926
ENCODING -1
SWIDTH 766 0
DWIDTH 9 0
BBX 11 8 -1 0
BITMAP
18C88888B930
01800299A100
018009000000
01C88A000000
018009003300
004009006400
00000399A400
000000002200
ENDCHAR
STARTCHAR uni092E094D092A
ENCODING -1
SWIDTH 762 0
DWIDTH 9 0
BBX 11 8 -1 0
BITMAP
18C88C88C820
018009008100
018009008100
01C88A009100
00600598B100
000000008100
000000008100
000000004000
ENDCHAR
STARTCHAR uni092E094D092C
ENCODING -1
SWIDTH 768 0
DWIDTH 9 0
BBX 11 8 -1 0
BITMAP
18C88888B930
018003957200
01800A507200
01C889637200
018009079200
00400900D200
00000388A200
000000003100
ENDCHAR
STARTCHAR uni092E094D092D
ENCODING -1
SWIDTH 768 0
DWIDTH 9 0
BBX 11 8 -1 0
BITMAP
18C88705B930
018009007200
018009007200
01C88C88C200
018009007200
002002007200
000000007200
000000003100
ENDCHAR
STARTCHAR uni092E094D092E
ENCODING -1
SWIDTH 759 0
DWIDTH 9 0
BBX 11 8 -1 0
BITMAP
18C88C88C820
018009009000
018009009000
01C88C88C000
018009009000
002002009000
000000009000
000000004000
ENDCHAR
STARTCHAR uni092E094D092F
ENCODING -1
SWIDTH 834 0
DWIDTH 10 0
BBX 12 8 -1 0
BITMAP
18C888B98C81
018000460900
018009910900
01C889000900
01700A000B00
000004988A00
000000000900
000000000400
ENDCHAR
STARTCHAR uni092E094D0932
ENCODING -1
SWIDTH 945 0
DWIDTH 11 0
BBX 13 8 -1 0
BITMAP
18C8888888AA40
01800000005400
0180069868A400
01C88A03807400
01800902605400
00200900005400
00000694005400
00000000002200
ENDCHAR
STARTCHAR uni092E094D0935
ENCODING -1
SWIDTH 761 0
DWIDTH 9 0
BBX 11 8 -1 0
BITMAP
18C88888C820
018003958000
018009008000
01C88A008000
018009008000
00500900A000
00000398B000
000000004000
ENDCHAR
STARTCHAR uni092E094D0936
ENCODING -1
SWIDTH 884 0
DWIDTH 11 0
BBX 12 8 -1 0
BITMAP
18C8178A11B6
018008054180
018000063180
01C89A880180
018009000180
003003700180
000000820180
000000140040
ENDCHAR
STARTCHAR uni092E094D0938
ENCODING -1
SWIDTH 816 0
DWIDTH 10 0
BBX 11 8 -1 0
BITMAP
18C888C88C70
018000900900
018000900900
01C8BAA88A00
018046000900
003009000900
000003700900
000000500400
ENDCHAR
STARTCHAR uni092E094D0939
ENCODING -1
SWIDTH 758 0
DWIDTH 9 0
BBX 11 9 -1 -1
BITMAP
18C88888C820
018000008000
01800598A000
01C88C000000
018004B87000
005008006200
000008003200
000008100000
000002888000
ENDCHAR
STARTCHAR uni092F094D092F
ENCODING -1
SWIDTH 897 0
DWIDTH 11 0
BBX 12 8 -1 0
BITMAP
188C888C88C7
000720072090
02A802A80090
036003600090
0180038001A0
005987588790
000000000090
000000000040
ENDCHAR
STARTCHAR uni0930094D092F
ENCODING -1
SWIDTH 713 0
DWIDTH 9 0
BBX 10 8 -1 0
BITMAP
18888C89B5
0200090270
059A960270
0006300270
0004500470
0000788770
0000000270
0000000130
ENDCHAR
STARTCHAR uni0930094D0939
ENCODING -1
SWIDTH 619 0
DWIDTH 7 0
BBX 9 9 -1 -1
BITMAP
188888AB40
0000003500
0301889400
049B400000
0001B88100
0005401700
0007200500
0005400000
0000788300
ENDCHAR
STARTCHAR uni0932094D0915
ENCODING -1
SWIDTH 1182 0
DWIDTH 14 0
BBX 16 8 -1 0
BITMAP
1888888888B98883
0000000295778800
0078579B10740450
0180750900720270
0260530900720270
0270210810920430
0098200043923300
0000000000310000
ENDCHAR
STARTCHAR uni0932094D0916
ENCODING -1
SWIDTH 1195 0
DWIDTH 14 0
BBX 16 8 -1 0
BITMAP
188888888C888AA4
0000000008166540
0079689509280540
0180750997360540
0260530280180740
0270000083068940
009820000A000540
0000000003200220
ENDCHAR
STARTCHAR uni0932094D0917
ENCODING -1
SWIDTH 950 0
DWIDTH 11 0
BBX 13 8 -1 0
BITMAP
18888888C8AA40
00000000904500
00786770904500
01807401904500
02605329204500
02700000004500
00982000004500
00000000002200
ENDCHAR
STARTCHAR uni0932094D091C
ENCODING -1
SWIDTH 1035 0
DWIDTH 12 0
BBX 14 8 -1 0
BITMAP
18888888888AA4
00000000000450
007867729B9A50
01807500072450
02605300063450
02701000072450
00982019970450
00000000000220
ENDCHAR
STARTCHAR uni0932094D091F
ENCODING -1
SWIDTH 929 0
DWIDTH 11 0
BBX 13 7 -1 1
BITMAP
1888888888C820
00000000009000
0079679799A000
01807509000000
02605309000200
02700009001800
00982005989200
ENDCHAR
STARTCHAR uni0932094D0920
ENCODING -1
SWIDTH 953 0
DWIDTH 11 0
BBX 13 7 -1 1
BITMAP
1888888888C840
00000000009000
0078679799B100
01807509003700
02605309001800
02700009001700
00982006989200
ENDCHAR
STARTCHAR uni0932094D0921
ENCODING -1
SWIDTH 916 0
DWIDTH 11 0
BBX 13 8 -1 0
BITMAP
1888888888C810
00000004999000
007867AC000000
01807509000000
02605305888000
02700002006300
00982009118200
00000002775000
ENDCHAR
STARTCHAR uni0932094D0922
ENCODING -1
SWIDTH 924 0
DWIDTH 11 0
BBX 13 7 -1 1
BITMAP
1888888888C820
00000000009000
00686786889000
01806409069200
02603208081700
02700008021700
00982006989200
ENDCHAR
STARTCHAR uni0932094D0924
ENCODING -1
SWIDTH 929 0
DWIDTH 11 0
BBX 13 8 -1 0
BITMAP
1888888888C820
00000000008100
0079788699C100
01807409008100
02605308008100
02700008008100
0098200A108100
00000002704000
ENDCHAR
STARTCHAR uni0932094D0925
ENCODING -1
SWIDTH 1061 0
DWIDTH 13 0
BBX 14 8 -1 0
BITMAP
18888861A940C7
00000005408090
00786895018090
0180640B892090
026032091002A0
02700002888790
00982000000090
00000000000040
ENDCHAR
STARTCHAR uni0932094D0926
ENCODING -1
SWIDTH 939 0
DWIDTH 11 0
BBX 13 8 -1 0
BITMAP
1888888888B930
0000000199A200
0078679B100000
01807508000000
02605308002400
02700008104600
00982000446600
00000000001300
ENDCHAR
STARTCHAR uni0932094D092A
ENCODING -1
SWIDTH 939 0
DWIDTH 11 0
BBX 13 8 -1 0
BITMAP
1888888C88B930
00000009006300
0078679B006300
01806409007300
0260210498A300
02700000006300
00982000006300
00000000003100
ENDCHAR
STARTCHAR uni0932094D092B
ENCODING -1
SWIDTH 1176 0
DWIDTH 14 0
BBX 16 8 -1 0
BITMAP
1888888C88C88882
0000000900878800
0078679B00830640
0180640900910360
0260320498B10350
0270000000810520
0098200000813300
0000000000400000
ENDCHAR
STARTCHAR uni0932094D092C
ENCODING -1
SWIDTH 949 0
DWIDTH 11 0
BBX 13 8 -1 0
BITMAP
1888888888AA40
00000001964400
0078679B604400
01807509634400
02605309076400
0270110710A400
00982000437400
00000000002200
ENDCHAR
STARTCHAR uni0932094D092D
ENCODING -1
SWIDTH 931 0
DWIDTH 11 0
BBX 13 8 -1 0
BITMAP
1888889705C920
00000009008100
0079679B008100
0180740A88C100
02605309008100
02700002008100
00982000008100
00000000004000
ENDCHAR
STARTCHAR uni0932094D092E
ENCODING -1
SWIDTH 931 0
DWIDTH 11 0
BBX 13 8 -1 0
BITMAP
1888888C88C920
00000009008100
0079679B008100
0180740A88C100
02605309008100
02700002008100
00982000008100
00000000004000
ENDCHAR
STARTCHAR uni0932094D092F
ENCODING -1
SWIDTH 1033 0
DWIDTH 12 0
BBX 14 8 -1 0
BITMAP
188888889C8AA4
00685683080440
01807507090440
02605308940440
02603206100640
01700000788940
00892000000440
00000000000220
ENDCHAR
STARTCHAR uni0932094D0932
ENCODING -1
SWIDTH 1112 0
DWIDTH 13 0
BBX 15 8 -1 0
BITMAP
188888888888AA40
0000000000005400
007867979758A400
0180750903806400
0260530902605400
0270000900005400
0098200794005400
0000000000002200
ENDCHAR
STARTCHAR uni0932094D0935
ENCODING -1
SWIDTH 940 0
DWIDTH 11 0
BBX 13 8 -1 0
BITMAP
1888888888B930
00000001966300
0078679B106300
01807509006300
02605309006300
02702108108300
00982000438300
00000000003100
ENDCHAR
STARTCHAR uni0932094D0938
ENCODING -1
SWIDTH 1068 0
DWIDTH 13 0
BBX 14 8 -1 0
BITMAP
188888888C88C8
00000000090090
00796795090090
0180640AAA88A0
02604304600090
02700000910090
00982000370090
00000000050040
ENDCHAR
STARTCHAR uni0932094D0939
ENCODING -1
SWIDTH 922 0
DWIDTH 11 0
BBX 13 8 -1 0
BITMAP
1888888888C820
0000000398A000
0078679C000000
01807509000000
02605305A88000
02700009006300
00982009000000
00000003888000
ENDCHAR
STARTCHAR uni0933094D092F
ENCODING -1
SWIDTH 1050 0
DWIDTH 13 0
BBX 14 8 -1 0
BITMAP
188888888C89C6
00687786090180
01706607970180
03604405300180
03604405600380
01805506688780
00685584000180
00000000000040
ENDCHAR
STARTCHAR uni0935094D092F
ENCODING -1
SWIDTH 852 0
DWIDTH 10 0
BBX 12 8 -1 0
BITMAP
188888AB8B93
006820090720
027008930720
035009000720
03500A100920
027006888A20
006881000720
000000000310
ENDCHAR
STARTCHAR uni0935094D0932
ENCODING -1
SWIDTH 961 0
DWIDTH 12 0
BBX 13 8 -1 0
BITMAP
18888888889B50
00682298398700
02700811B04700
03500900902700
03500900702700
02700C00002700
00689696002700
00000000001300
ENDCHAR
STARTCHAR uni0935094D0935
ENCODING -1
SWIDTH 776 0
DWIDTH 9 0
BBX 11 8 -1 0
BITMAP
18888888BA40
006822965300
027008105300
035009005300
035009005300
02700C107300
006773879300
000000003100
ENDCHAR
STARTCHAR uni0935094D0939
ENCODING -1
SWIDTH 754 0
DWIDTH 9 0
BBX 11 9 -1 -1
BITMAP
18888888C810
000000009000
00782588A000
036009000000
045005A87000
03600A007200
00788A003100
000009000000
000002888000
ENDCHAR
STARTCHAR uni0936094D0915
ENCODING -1
SWIDTH 1093 0
DWIDTH 13 0
BBX 14 8 0 0
BITMAP
09890888C88882
16090395889700
00090900830640
59960900810360
19000900810360
06400900A10640
00A00398B18700
00320000400000
ENDCHAR
STARTCHAR uni0936094D091A
ENCODING -1
SWIDTH 950 0
DWIDTH 11 0
BBX 12 8 0 0
BITMAP
098908888AA4
170900000450
010909B94450
599600800450
190001800650
064000698950
009000000450
002200000220
ENDCHAR
STARTCHAR uni0936094D091B
ENCODING -1
SWIDTH 968 0
DWIDTH 12 0
BBX 12 8 0 0
BITMAP
098819B889B6
270906200260
010905303960
699602C60090
180006300090
073006300090
00A002988940
003200000000
ENDCHAR
STARTCHAR uni0936094D091F
ENCODING -1
SWIDTH 854 0
DWIDTH 10 0
BBX 11 8 0 0
BITMAP
09890888C830
170900009000
02090299A000
599609000000
190008000500
064009000800
009004989300
002200000000
ENDCHAR
STARTCHAR uni0936094D0924
ENCODING -1
SWIDTH 864 0
DWIDTH 10 0
BBX 11 8 0 0
BITMAP
09890888AA40
170900004400
00090399B400
599609004400
190009004400
064009004400
009009204400
002201622200
ENDCHAR
STARTCHAR uni0936094D092E
ENCODING -1
SWIDTH 885 0
DWIDTH 11 0
BBX 11 8 0 0
BITMAP
09891AA88C60
170905401800
010905401800
599605A89800
190005401800
064000001800
009000001800
002200000400
ENDCHAR
STARTCHAR uni0936094D092F
ENCODING -1
SWIDTH 940 0
DWIDTH 11 0
BBX 12 8 0 0
BITMAP
0989089B8B93
160900090630
000907940630
599609000630
190008100830
064001888930
009000000630
002200000310
ENDCHAR
STARTCHAR uni0936094D0932
ENCODING -1
SWIDTH 1039 0
DWIDTH 12 0
BBX 13 8 0 0
BITMAP
0989088888AB50
17090000003500
02090398689500
59960901905500
19000900603500
06400900003500
00900595003500
00220000001300
ENDCHAR
STARTCHAR uni0936094D0935
ENCODING -1
SWIDTH 850 0
DWIDTH 10 0
BBX 11 8 0 0
BITMAP
09890888B930
160903957200
000909007200
599609007200
190009007200
064009009200
00A00298A200
003200003100
ENDCHAR
STARTCHAR uni0936094D0936
ENCODING -1
SWIDTH 1009 0
DWIDTH 12 0
BBX 13 8 0 0
BITMAP
09890298608820
17090530909000
00090000909000
59960899309000
19000460009000
06400091009000
00A00028009000
00320004004000
ENDCHAR
STARTCHAR uni0937094D0915
ENCODING -1
SWIDTH 1039 0
DWIDTH 12 0
BBX 14 8 -1 0
BITMAP
18D888889B8885
009501983A8920
00816730380180
00901D10360090
00588A10360090
00000430460180
00000078866920
00000000130000
ENDCHAR
STARTCHAR uni0937094D091F
ENCODING -1
SWIDTH 493 0
DWIDTH 6 0
BBX 7 8 -1 0
BITMAP
18E88C80
01971800
00807B00
00998900
02700000
03600340
01911820
00377300
ENDCHAR
STARTCHAR uni0937094D0920
ENCODING -1
SWIDTH 511 0
DWIDTH 6 0
BBX 8 8 -1 0
BITMAP
18EFFF92
01FFFF20
00FFFF10
00AEEB00
01800720
03600540
01911820
00377400
ENDCHAR
STARTCHAR uni0937094D0923
ENCODING -1
SWIDTH 980 0
DWIDTH 12 0
BBX 13 8 -1 0
BITMAP
18D88B98C88C70
00B60620800900
00826620800900
00902C30900900
00588478600900
00000000000900
00000000000900
00000000000400
ENDCHAR
STARTCHAR uni0937094D092A
ENCODING -1
SWIDTH 980 0
DWIDTH 12 0
BBX 13 8 -1 0
BITMAP
18D88B98C88C70
00B60620800900
00826620800900
00902C30900900
00588478600900
00000000000900
00000000000900
00000000000400
ENDCHAR
STARTCHAR uni0937094D092B
ENCODING -1
SWIDTH 1036 0
DWIDTH 12 0
BBX 14 8 -1 0
BITMAP
18D88B98AB8884
009507203A8910
00816720370180
00902C30550090
00588488850090
00000000350180
00000000356910
00000000130000
ENDCHAR
STARTCHAR uni0937094D092E
ENCODING -1
SWIDTH 791 0
DWIDTH 9 0
BBX 11 8 -1 0
BITMAP
18D88B989B50
00B507203600
008357203600
00903B98A600
006A98203600
000000003600
000000003600
000000001300
ENDCHAR
STARTCHAR uni0937094D092F
ENCODING -1
SWIDTH 877 0
DWIDTH 11 0
BBX 12 8 -1 0
BITMAP
18D8888C89B5
00A600090270
008175960270
00901C200270
005887500470
000000788770
000000000270
000000000130
ENDCHAR
STARTCHAR uni0937094D0935
ENCODING -1
SWIDTH 802 0
DWIDTH 10 0
BBX 11 8 -1 0
BITMAP
18D888888C60
009500891800
008176501800
00901D201800
005889201800
000003503800
000000687800
000000000400
ENDCHAR
STARTCHAR uni0937094D0937
ENCODING -1
SWIDTH 804 0
DWIDTH 10 0
BBX 11 8 -1 0
BITMAP
18D88BB88C60
00B606830800
008276253800
00902C306800
005883787800
000000000800
000000000800
000000000400
ENDCHAR
STARTCHAR uni0938094D0915
ENCODING -1
SWIDTH 1089 0
DWIDTH 13 0
BBX 15 8 -1 0
BITMAP
188C88888C888820
0009003948787000
000900A008206300
07AA88A008004500
0370009008004500
009100900A006300
002800398B087000
0005000004000000
ENDCHAR
STARTCHAR uni0938094D0916
ENCODING -1
SWIDTH 990 0
DWIDTH 12 0
BBX 13 8 -1 0
BITMAP
188C888C888C80
00090008193800
00090018810800
07AA8B92900800
03700820810A00
00910190198900
00280055000800
00050005000400
ENDCHAR
STARTCHAR uni0938094D091C
ENCODING -1
SWIDTH 970 0
DWIDTH 12 0
BBX 13 8 -1 0
BITMAP
188C8888888C60
00090000001800
00090009B99800
07AA9930451800
03700000261800
00910000451800
00280069801800
00050000000400
ENDCHAR
STARTCHAR uni0938094D091F
ENCODING -1
SWIDTH 844 0
DWIDTH 10 0
BBX 12 8 -1 0
BITMAP
188C88888C82
000900000900
000900599900
07AA88B00000
037000900040
009100900270
002800598920
000500000000
ENDCHAR
STARTCHAR uni0938094D0924
ENCODING -1
SWIDTH 852 0
DWIDTH 10 0
BBX 12 8 -1 0
BITMAP
188C88888B93
000900000720
000900599C20
07AA88A00720
037000900720
009100900720
002800920720
000500171310
ENDCHAR
STARTCHAR uni0938094D0925
ENCODING -1
SWIDTH 960 0
DWIDTH 12 0
BBX 13 8 -1 0
BITMAP
188C8449A22B50
00090081452600
00090020452600
07AA88A8802600
03700090005600
00910039888600
00280000002600
00050000001300
ENDCHAR
STARTCHAR uni0938094D0926
ENCODING -1
SWIDTH 851 0
DWIDTH 10 0
BBX 12 8 -1 0
BITMAP
188C88888B93
000900299A10
000900900000
07AA88A00000
037000900340
009100900550
002800299A50
000500000220
ENDCHAR
STARTCHAR uni0938094D092A
ENCODING -1
SWIDTH 857 0
DWIDTH 10 0
BBX 12 8 -1 0
BITMAP
188C88C88B93
000900900630
000900900630
07AA88B00730
037000398A30
009100000630
002800000630
000500000310
ENDCHAR
STARTCHAR uni0938094D092B
ENCODING -1
SWIDTH 1092 0
DWIDTH 13 0
BBX 15 8 -1 0
BITMAP
188C88C88C888820
0009009008787000
0009009008206300
07AA88B00A003500
037000488B003500
0091000008006300
0028000008187000
0005000004000000
ENDCHAR
STARTCHAR uni0938094D092C
ENCODING -1
SWIDTH 857 0
DWIDTH 10 0
BBX 12 8 -1 0
BITMAP
188C88888B93
000900395630
000900A60630
07AA88A45630
037000906930
009100800C30
002800288A30
000500000310
ENDCHAR
STARTCHAR uni0938094D092E
ENCODING -1
SWIDTH 850 0
DWIDTH 10 0
BBX 12 8 -1 0
BITMAP
188C88C88B93
000900900710
000900900710
07AA88C88C10
037000900710
009100300710
002800000710
000500000310
ENDCHAR
STARTCHAR uni0938094D092F
ENCODING -1
SWIDTH 920 0
DWIDTH 11 0
BBX 13 8 -1 0
BITMAP
188C888B98C810
00090003609000
00090099209000
07AA8890009000
0370009000B000
0091003988A000
00280000009000
00050000004000
ENDCHAR
STARTCHAR uni0938094D0932
ENCODING -1
SWIDTH 1027 0
DWIDTH 12 0
BBX 14 8 -1 0
BITMAP
188C8888888BA4
00090000000540
00090069868A40
07AA88A0370740
03700090250540
00910090000540
00280069400540
00050000000320
ENDCHAR
STARTCHAR uni0938094D0935
ENCODING -1
SWIDTH 842 0
DWIDTH 10 0
BBX 12 8 -1 0
BITMAP
188C88888C82
000900495800
000900A00800
07AA88900800
037000900800
009100900A00
002800388B00
000500000400
ENDCHAR
STARTCHAR uni0938094D0938
ENCODING -1
SWIDTH 871 0
DWIDTH 10 0
BBX 12 8 -1 0
BITMAP
188C88AB8AB5
000900360450
000900450450
07AA8BB98A50
037008100450
009102800450
002800820450
000500140230
ENDCHAR
STARTCHAR uni0939094D0923
ENCODING -1
SWIDTH 1136 0
DWIDTH 14 0
BBX 15 11 -1 -3
BITMAP
18888C8C88C88C60
0000090800901800
0078870800901800
0090000800901800
0089840720901800
0090090188401800
0170050000001800
0090000000000400
0048860000000000
0000600000000000
0000460000000000
ENDCHAR
STARTCHAR uni0939094D092E
ENCODING -1
SWIDTH 746 0
DWIDTH 9 0
BBX 11 9 -1 -1
BITMAP
18888C88C810
007888009000
018000009000
018000009000
009988009000
01700B88B000
036008009000
028004009000
006885003000
ENDCHAR
STARTCHAR uni0939094D092F
ENCODING -1
SWIDTH 785 0
DWIDTH 9 0
BBX 11 10 -1 -2
BITMAP
18888C88AA40
000009004500
008888004500
018000004500
00A988804500
018000724500
03602A804500
036018007500
017005888500
003540002300
ENDCHAR
STARTCHAR uni0939094D0932
ENCODING -1
SWIDTH 1110 0
DWIDTH 13 0
BBX 15 11 -1 -3
BITMAP
18888C888888BA40
0068870000005400
009000059758A400
0080000903807400
0089850902605400
0180090900005400
0180010794005400
0068860000003200
0000200000000000
0000900000000000
0000460000000000
ENDCHAR
STARTCHAR uni0939094D0935
ENCODING -1
SWIDTH 920 0
DWIDTH 11 0
BBX 13 11 -1 -3
BITMAP
18888C8888C820
00577704948000
00900009008000
00800009008000
00898509008000
0090090900B000
0170040488A000
00900000004000
00488600000000
00006000000000
00005500000000
ENDCHAR
STARTCHAR uni0915093C094D0915093C
ENCODING -1
SWIDTH 1275 0
DWIDTH 15 0
BBX 17 8 -1 0
BITMAP
18888C88888AA88840
00691A895965888100
02700A00C105503600
045008009005400800
045008009005400800
027019008107403600
006979001989478100
004204000602200000
ENDCHAR
STARTCHAR uni0915093C094D0924
ENCODING -1
SWIDTH 1016 0
DWIDTH 12 0
BBX 14 8 -1 0
BITMAP
18888C88888B93
00691A89400710
02700A00A99C10
04500800900710
04500800900710
02701900900710
00697900920710
00420400270310
ENDCHAR
STARTCHAR uni0915093C094D092B
ENCODING -1
SWIDTH 1246 0
DWIDTH 15 0
BBX 17 8 -1 0
BITMAP
18888C88C88C888810
00691A889009896000
02700B00900A108100
04500800800A006300
04500800498A006300
027019000009008100
006879000009296000
004204000004000000
ENDCHAR
STARTCHAR uni0915093C094D092B093C
ENCODING -1
SWIDTH 1247 0
DWIDTH 15 0
BBX 17 8 -1 0
BITMAP
18888C88C88C888810
00691A889009886000
02700B00900A108200
04500800800A005300
04500800498A005300
027019000008008200
006879000008296000
004204002404000000
ENDCHAR
STARTCHAR uni0915093C094D092C
ENCODING -1
SWIDTH 1043 0
DWIDTH 13 0
BBX 14 8 -1 0
BITMAP
18888C888889B5
00691A89588260
02700A00B80260
04500800937260
04500800905760
02701900820960
00798900199960
00420400000130
ENDCHAR
STARTCHAR uni0915093C094D092E
ENCODING -1
SWIDTH 998 0
DWIDTH 12 0
BBX 14 8 -1 0
BITMAP
18888C88C88C81
00691A88900900
02700B00900900
04500800C88B00
04500800900900
02701900500900
00697900000900
00420400000400
ENDCHAR
STARTCHAR uni0916093C094D0924
ENCODING -1
SWIDTH 984 0
DWIDTH 12 0
BBX 13 8 -1 0
BITMAP
188C9888888C70
00081670000900
00092800899A00
07972604500900
02801805300900
0073068B300900
00090003810900
00032060450400
ENDCHAR
STARTCHAR uni0916093C094D092E
ENCODING -1
SWIDTH 965 0
DWIDTH 12 0
BBX 13 8 -1 0
BITMAP
188C988BA89B60
00081675301700
00092805301700
07972605A89700
02801806301700
00730687001700
00090000001700
00032060001300
ENDCHAR
STARTCHAR uni0916093C094D092F
ENCODING -1
SWIDTH 1045 0
DWIDTH 13 0
BBX 14 8 -1 0
BITMAP
188C98888C89B5
00081670090270
00092805960270
07972606200270
02801807500470
00730686998870
00090000000270
00032060000130
ENDCHAR
STARTCHAR uni0916093C094D0935
ENCODING -1
SWIDTH 972 0
DWIDTH 12 0
BBX 13 8 -1 0
BITMAP
188C9888888C60
00081670891800
00092804600800
07972606300800
02801807300800
00730688502800
00090000785800
00032060000400
ENDCHAR
STARTCHAR uni0916093C094D0936
ENCODING -1
SWIDTH 1123 0
DWIDTH 13 0
BBX 15 8 -1 0
BITMAP
188C988098903B50
0008167040723600
0009280000813600
0797260988703600
0280180850003600
00730686B1003600
0009000039003600
0003206005001300
ENDCHAR
STARTCHAR uni0916093C094D0938
ENCODING -1
SWIDTH 1066 0
DWIDTH 13 0
BBX 14 8 -1 0
BITMAP
188C98888C88C7
00081670090090
00092800090090
06972608AA88A0
02801807600090
00730685A00090
00090000370090
00032060050040
ENDCHAR
STARTCHAR uni091C093C094D091C093C
ENCODING -1
SWIDTH 934 0
DWIDTH 11 0
BBX 12 8 -1 0
BITMAP
1888888888C8
000000000090
019B955B99A0
000540018090
000450009090
000540018090
059804992090
006000430040
ENDCHAR
STARTCHAR uni091C093C094D092F
ENCODING -1
SWIDTH 893 0
DWIDTH 11 0
BBX 12 8 -1 0
BITMAP
1888888C88C7
000000081090
029B8A970090
000634500090
000442800290
000630698790
069800000090
006000000040
ENDCHAR
STARTCHAR uni092B093C094D091C093C
ENCODING -1
SWIDTH 1100 0
DWIDTH 13 0
BBX 15 8 -1 0
BITMAP
18C88C888888B930
0080090000007100
0080098809A9C100
00900B0000907100
00598A0000907100
0000090000907100
0000090199507100
0060040015003100
ENDCHAR
STARTCHAR uni092B093C094D0924
ENCODING -1
SWIDTH 1036 0
DWIDTH 12 0
BBX 14 8 -1 0
BITMAP
18C88C88888AA4
00800989400450
00800A00999A50
00900A00900450
00598A00900450
00000900900450
00000900830450
00500400162220
ENDCHAR
STARTCHAR uni092B093C094D092B093C
ENCODING -1
SWIDTH 1256 0
DWIDTH 15 0
BBX 17 8 -1 0
BITMAP
18C88C88C88C888820
00800988A009787000
00800A009009206300
00900A00800A004500
00598A00398B004500
000009000009006300
000009000009187000
006004000604000000
ENDCHAR
STARTCHAR uni092B093C094D0938
ENCODING -1
SWIDTH 1141 0
DWIDTH 14 0
BBX 15 8 -1 0
BITMAP
18C88C8888C88C60
0080098920900900
00800A0181800900
00900A00BA989900
00598A0064000900
000009000A000900
0000090005500900
0060040000500400
ENDCHAR
STARTCHAR uni092C094D091C093C
ENCODING -1
SWIDTH 883 0
DWIDTH 11 0
BBX 12 8 -1 0
BITMAP
1888888889B6
007920000170
02D0019B9970
047700054170
045450036170
027063054170
00699A980170
000000600030
ENDCHAR
STARTCHAR uni0932094D091C093C
ENCODING -1
SWIDTH 1062 0
DWIDTH 13 0
BBX 14 8 -1 0
BITMAP
18888888888AA4
00000000000450
007867729B9A50
01807500072450
02605300063450
02701000072450
00982019970450
00000002500220
ENDCHAR
STARTCHAR uni0936094D0915093C
ENCODING -1
SWIDTH 1093 0
DWIDTH 13 0
BBX 14 8 0 0
BITMAP
09890888C88882
16090395878700
00090900830640
59960900810360
19000900810360
06400900A10640
00A00398B18700
00320060400000
ENDCHAR
STARTCHAR uni0924094D0924094D
ENCODING -1
SWIDTH 309 0
DWIDTH 4 0
BBX 6 8 -1 0
BITMAP
188888
000000
05AA98
008100
009000
009000
008300
000620
ENDCHAR
STARTCHAR uni0928094D092D094D
ENCODING -1
SWIDTH 505 0
DWIDTH 6 0
BBX 9 6 -1 2
BITMAP
1888A20830
0000360000
0000260000
03989B8830
0810260000
0100130000
ENDCHAR
STARTCHAR uni0928094D0938094D
ENCODING -1
SWIDTH 635 0
DWIDTH 8 0
BBX 10 8 -1 0
BITMAP
1888889B88
0000003600
02A9924500
06301CB998
0320082000
0000018000
0000007200
0000001400
ENDCHAR
STARTCHAR uni092E094D092D094D
ENCODING -1
SWIDTH 533 0
DWIDTH 6 0
BBX 9 6 -1 2
BITMAP
18C8970650
0180090000
0180090000
01C88C8850
0180090000
0040040000
ENDCHAR
STARTCHAR uni0932094D092D094D
ENCODING -1
SWIDTH 694 0
DWIDTH 8 0
BBX 11 7 -1 1
BITMAP
188888970550
000000090000
0079679B0000
0180740A8850
026053090000
027000020000
009820000000
ENDCHAR
STARTCHAR uni0938094D0924094D0930094D
ENCODING -1
SWIDTH 575 0
DWIDTH 7 0
BBX 10 8 -1 0
BITMAP
188C888830
0009000000
0009029981
07AA8A1026
0370000046
0091000580
0028007600
0005024000
ENDCHAR
STARTCHAR uni0915094D0924094D092F
ENCODING -1
SWIDTH 1356 0
DWIDTH 16 0
BBX 18 8 -1 0
BITMAP
18888C8888889B8B93
00691A894000090630
02700A00B98A930630
045008009009000630
045008009008100830
027019009001888930
006868009200000630
000004001710000310
ENDCHAR
STARTCHAR uni0915094D0924094D0930
ENCODING -1
SWIDTH 997 0
DWIDTH 12 0
BBX 14 8 -1 0
BITMAP
18888C88888C81
00691989300900
02700A00C88A00
04500802800B00
04500802500900
02701900008C00
00697900293900
00000400600400
ENDCHAR
STARTCHAR uni0915094D0924094D0935
ENCODING -1
SWIDTH 1242 0
DWIDTH 15 0
BBX 16 8 -1 0
BITMAP
18888C88888888C8
00691A8930048390
02700A00C9980090
0450080360270090
0450080440270090
02701904401900A0
00697902810598A0
0000040045000040
ENDCHAR
STARTCHAR uni0915094D092A094D0930
ENCODING -1
SWIDTH 1007 0
DWIDTH 12 0
BBX 14 8 -1 0
BITMAP
18888C88C88C82
00781A88900900
03600B00900900
04500800800A00
0360190048BC00
00788900046900
00000800280900
00000400400400
ENDCHAR
STARTCHAR uni0915094D0935094D092F
ENCODING -1
SWIDTH 1384 0
DWIDTH 17 0
BBX 18 8 -1 0
BITMAP
18888C8888888C89C6
00691A897960090180
02700A00A004970180
045008008005400180
045008008005600380
028019009006688780
007A68003AA4000180
000004000000000040
ENDCHAR
STARTCHAR uni0915094D0938094D091F
ENCODING -1
SWIDTH 1376 0
DWIDTH 17 0
BBX 18 8 -1 0
BITMAP
18888C8888C8888AA5
00691A893090000540
02700A009090299A30
04500800AAA8B30000
045008004600710030
017019000910620090
002349000370198960
000004000050000000
ENDCHAR
STARTCHAR uni0915094D0938094D0921
ENCODING -1
SWIDTH 1388 0
DWIDTH 17 0
BBX 18 8 -1 0
BITMAP
18888C8888C88888C6
00781A893090079960
03600A009090180000
04500800AAA8970000
037019004600058850
008A99000910240090
000008000370181190
000004000050047730
ENDCHAR
STARTCHAR uni0915094D0938094D0924
ENCODING -1
SWIDTH 1423 0
DWIDTH 17 0
BBX 19 8 -1 0
BITMAP
18888C8888C88888C820
00691A89309000009000
02700A0090900799C000
04500800AAA899009000
04500800460017009000
02701900091017009000
00697900037009109000
00000400005002704000
ENDCHAR
STARTCHAR uni0915094D0938094D092A094D0930
ENCODING -1
SWIDTH 1437 0
DWIDTH 17 0
BBX 19 8 -1 0
BITMAP
18888C8888C88C88B930
00781A89309009006200
03600A00909009006200
04500800AAA88B008200
036019004600048AB200
00788900091000276200
00000800037001906200
00000400005004103100
ENDCHAR
STARTCHAR uni0915094D0938094D092A094D0932
ENCODING -1
SWIDTH 1866 0
DWIDTH 22 0
BBX 24 8 -1 0
BITMAP
18888C8888C88C8888888AA4
00691A893090090000000440
02700A009090090059868A40
04500800AAA88B00A0280640
0450080046000498A0030440
017019000910000080000440
002339000370000049500440
000004000050000000000220
ENDCHAR
STARTCHAR uni0917094D0927094D092F
ENCODING -1
SWIDTH 1156 0
DWIDTH 14 0
BBX 15 8 -1 0
BITMAP
18B98C8078C98C80
0063090000640900
006308A41A810900
0082080018000900
077009000A001B00
000009001A988900
0000049881000900
0000000000000400
ENDCHAR
STARTCHAR uni0917094D0927094D0935
ENCODING -1
SWIDTH 1084 0
DWIDTH 13 0
BBX 15 8 -1 0
BITMAP
18B98C807888C810
0063090004948000
006307A409008000
0082090018008000
0770090018008000
000009000A00A000
000004989688A000
0000000000004000
ENDCHAR
STARTCHAR uni0917094D0928094D092F
ENCODING -1
SWIDTH 1069 0
DWIDTH 13 0
BBX 14 8 -1 0
BITMAP
18B988888C88C8
00630000063090
00631989A80090
00825402700090
078034009001A0
00000000598890
00000000000090
00000000000040
ENDCHAR
STARTCHAR uni0917094D092D094D092F
ENCODING -1
SWIDTH 1102 0
DWIDTH 13 0
BBX 15 8 -1 0
BITMAP
18B997058AB8B930
0063090001907200
0063090089307200
00820A88B0007200
0770090091009200
000000002988A200
0000000000007200
0000000000003100
ENDCHAR
STARTCHAR uni0917094D0930094D092F
ENCODING -1
SWIDTH 817 0
DWIDTH 10 0
BBX 11 8 -1 0
BITMAP
18B988C88C70
006300730900
00631A800900
008226000900
077019001A00
0000059AB900
0000002B1900
000001A10400
ENDCHAR
STARTCHAR uni091A094D091B094D0935
ENCODING -1
SWIDTH 913 0
DWIDTH 11 0
BBX 13 9 -1 -1
BITMAP
188888D888C810
00000080009000
06AA709008B000
00810089108100
00900090007200
00810190008000
0029889A88A000
00000090009000
00000049893000
ENDCHAR
STARTCHAR uni091C094D091C094D091E
ENCODING -1
SWIDTH 945 0
DWIDTH 11 0
BBX 13 8 -1 0
BITMAP
1888888888AA40
0000007999B400
01AB9A60005400
00053460005400
00045088945400
00054540095400
059805B8955400
00000540002200
ENDCHAR
STARTCHAR uni091C094D091C094D092F
ENCODING -1
SWIDTH 1252 0
DWIDTH 15 0
BBX 17 8 -1 0
BITMAP
18888888888B98C810
000000000003609000
019B944B99B9209000
000540026090009000
0003500180A000B000
00054002703988A000
059805991000009000
000000000000004000
ENDCHAR
STARTCHAR uni091C094D091C094D0935
ENCODING -1
SWIDTH 1243 0
DWIDTH 15 0
BBX 16 8 -1 0
BITMAP
1888888888888C82
0000000000395800
019B944B99B00800
0005400260800800
0003500180800800
0005400270900B00
0598059910398B00
0000000000000400
ENDCHAR
STARTCHAR uni0924094D0915094D092F
ENCODING -1
SWIDTH 1346 0
DWIDTH 16 0
BBX 18 8 -1 0
BITMAP
18888888C888AA8C82
000003838000180810
00788A00978A920810
02700800A109000810
036008008009100A10
03600900A002888A10
019104989000000810
003600004000000400
ENDCHAR
STARTCHAR uni0924094D0915094D0930
ENCODING -1
SWIDTH 995 0
DWIDTH 12 0
BBX 14 8 -1 0
BITMAP
18888888C88881
00000383978600
00799A00A10810
02700800800630
03600800800630
03600900A00810
0191059BA29600
00360271400000
ENDCHAR
STARTCHAR uni0924094D0915094D0935
ENCODING -1
SWIDTH 1282 0
DWIDTH 15 0
BBX 17 8 -1 0
BITMAP
18888888C88888AA40
000003839797974400
00799A00A10A104400
027008009009004400
036008009009004400
03600900B008106400
01910498A001989400
003600004000002200
ENDCHAR
STARTCHAR uni0924094D0915094D0937
ENCODING -1
SWIDTH 943 0
DWIDTH 11 0
BBX 13 8 -1 0
BITMAP
18888398905A40
00000180715300
007897B9A8B300
02700A00005300
04500900515300
03500900925300
01910399B25300
00360000313100
ENDCHAR
STARTCHAR uni0924094D0916094D0930
ENCODING -1
SWIDTH 1008 0
DWIDTH 12 0
BBX 14 8 -1 0
BITMAP
1888888C888C82
00000009084800
00789409540800
02700C94620800
04500640540A00
035000A008AC00
01910037046800
00360005180400
ENDCHAR
STARTCHAR uni0924094D0924094D092F
ENCODING -1
SWIDTH 888 0
DWIDTH 11 0
BBX 12 8 -1 0
BITMAP
1888888C88C6
000000080080
05AA87090080
008005A60080
009003500380
009000788780
008300000080
001620000040
ENDCHAR
STARTCHAR uni0924094D0924094D0935
ENCODING -1
SWIDTH 788 0
DWIDTH 9 0
BBX 11 8 -1 0
BITMAP
18888888AB50
000000883500
05AA9B203500
008108003500
009008003500
009007205500
008301889500
000620002300
ENDCHAR
STARTCHAR uni0924094D0928094D092F
ENCODING -1
SWIDTH 1098 0
DWIDTH 13 0
BBX 15 8 -1 0
BITMAP
188888888AA8C920
0000000001808100
00788798A9308100
0370090080008100
045004008100A100
035000002888A100
0191000000008100
0036000000004000
ENDCHAR
STARTCHAR uni0924094D092A094D0930
ENCODING -1
SWIDTH 763 0
DWIDTH 9 0
BBX 11 8 -1 0
BITMAP
18888C88C920
000009008100
00799A008100
027009009100
0360058BC100
036000378100
019101808100
003604104000
ENDCHAR
STARTCHAR uni0924094D092A094D0932
ENCODING -1
SWIDTH 1219 0
DWIDTH 15 0
BBX 16 8 -1 0
BITMAP
18888C88888888C6
0000090000000180
00799A0039969880
02700900910A0280
03600599B0040180
0360000080000180
0191000029700180
0036000000000040
ENDCHAR
STARTCHAR uni0924094D092E094D092F
ENCODING -1
SWIDTH 1096 0
DWIDTH 13 0
BBX 15 8 -1 0
BITMAP
18888C888AA8C820
0000090001808100
0078890089208100
02700C88A0008100
036008009100A100
036000002988A100
0191000000008100
0036000000004000
ENDCHAR
STARTCHAR uni0924094D0930094D092F
ENCODING -1
SWIDTH 848 0
DWIDTH 10 0
BBX 12 8 -1 0
BITMAP
188888AA8C92
000000080810
008983180810
03600B920810
01201B000A10
000272888A10
004700000810
005000000400
ENDCHAR
STARTCHAR uni0924094D0938094D092F
ENCODING -1
SWIDTH 1234 0
DWIDTH 15 0
BBX 16 8 -1 0
BITMAP
1888888C888C88C7
0000000900073090
0078960901A80090
02700AAA89700090
04500460019001A0
0350009100598790
0191003700000090
0036000500000040
ENDCHAR
STARTCHAR uni0924094D0938094D0935
ENCODING -1
SWIDTH 1155 0
DWIDTH 14 0
BBX 15 8 -1 0
BITMAP
1888888C88888C80
0000000900692800
0078950901800800
02700AAA8A600800
0450046003600800
0350009101801A00
0191003700588900
0036000500000400
ENDCHAR
STARTCHAR uni0926094D0917094D0930
ENCODING -1
SWIDTH 493 0
DWIDTH 6 0
BBX 7 11 -1 -3
BITMAP
18888C80
00000800
00699800
01800000
03600300
01800900
006B8B00
00090800
00193E00
02959800
00050200
ENDCHAR
STARTCHAR uni0926094D092C094D0930
ENCODING -1
SWIDTH 483 0
DWIDTH 6 0
BBX 7 11 -1 -3
BITMAP
18888C70
00000800
00699800
02800000
03600200
01800900
00AA8B00
00981800
00908900
0058B400
00055000
ENDCHAR
STARTCHAR uni0926094D092F094D092D
ENCODING -1
SWIDTH 607 0
DWIDTH 7 0
BBX 9 10 -1 -2
BITMAP
1888C8B930
0068906300
0090006300
0089406300
0080006300
0090007300
00598BA300
0355836300
0006606300
0000503100
ENDCHAR
STARTCHAR uni0926094D092F094D0930
ENCODING -1
SWIDTH 595 0
DWIDTH 7 0
BBX 9 8 -1 0
BITMAP
1888C8C820
0078808000
0180008000
00A9308000
0080008000
0170009000
008888C000
0000634000
ENDCHAR
STARTCHAR uni0927094D0928094D092F
ENCODING -1
SWIDTH 1138 0
DWIDTH 14 0
BBX 15 8 -1 0
BITMAP
18D8088888C88C60
0180000000900800
00A9229899700800
0180072044000800
0180083027003800
0068984006887800
0000000000000800
0000000000000400
ENDCHAR
STARTCHAR uni0928094D0915094D0938
ENCODING -1
SWIDTH 1384 0
DWIDTH 17 0
BBX 18 8 -1 0
BITMAP
18888888C8888C89C6
00000891B892180180
0298A700B018270180
08104400900CB98980
071044009007300180
010027019000900180
000006879000640180
000000004000040040
ENDCHAR
STARTCHAR uni0928094D0924094D092F
ENCODING -1
SWIDTH 1073 0
DWIDTH 13 0
BBX 14 8 -1 0
BITMAP
188888888C98C8
00000000054080
00000489A81080
04989501700080
061044009001A0
00005400498890
00003810000080
00000450000040
ENDCHAR
STARTCHAR uni0928094D0924094D0930
ENCODING -1
SWIDTH 732 0
DWIDTH 9 0
BBX 10 8 -1 0
BITMAP
18888888C7
0000000090
03989603A0
0810530090
04101104A0
0000005890
0000067090
0000150040
ENDCHAR
STARTCHAR uni0928094D0924094D0938
ENCODING -1
SWIDTH 1134 0
DWIDTH 14 0
BBX 15 8 -1 0
BITMAP
1888888889C89C60
0000000001801800
0398960132701800
08105400BB989800
0610540073001800
0000540019001800
0000281006401800
0000045000400400
ENDCHAR
STARTCHAR uni0928094D0925094D092F
ENCODING -1
SWIDTH 1168 0
DWIDTH 14 0
BBX 16 8 -1 0
BITMAP
1888099718B98C81
0000060900360900
000000090A910900
0398999409000900
052045000A000B00
0000089985998A00
0000000000000900
0000000000000400
ENDCHAR
STARTCHAR uni0928094D0925094D0935
ENCODING -1
SWIDTH 1089 0
DWIDTH 13 0
BBX 15 8 -1 0
BITMAP
188809971888C820
0000040904948000
000000090A008000
0398999409008000
0620450009008000
000008888700B000
000000000288A000
0000000000004000
ENDCHAR
STARTCHAR uni0928094D0926094D0930
ENCODING -1
SWIDTH 734 0
DWIDTH 9 0
BBX 10 8 -1 0
BITMAP
18888888C7
0000089980
0298980000
0810450000
0710350060
01001700A0
0000069BB0
0000008340
ENDCHAR
STARTCHAR uni0928094D0926094D0935
ENCODING -1
SWIDTH 732 0
DWIDTH 9 0
BBX 10 10 -1 -2
BITMAP
18888888C7
0000000080
0000079980
0398970000
0810450020
02102700A0
00000B99B0
0000180080
0000180090
0000068930
ENDCHAR
STARTCHAR uni0928094D0927094D092F
ENCODING -1
SWIDTH 1097 0
DWIDTH 13 0
BBX 15 8 -1 0
BITMAP
1888AB348AA8C920
0000630001808100
0298AD8089208100
0630640080008100
022072008100A100
00005400AA88A100
0000088940008100
0000000000004000
ENDCHAR
STARTCHAR uni0928094D0927094D0930
ENCODING -1
SWIDTH 783 0
DWIDTH 9 0
BBX 11 8 -1 0
BITMAP
1888AB34AA40
000063004400
02989D804400
063064004400
053072004400
000054007400
0000089BA400
000001732200
ENDCHAR
STARTCHAR uni0928094D0927094D0935
ENCODING -1
SWIDTH 1036 0
DWIDTH 12 0
BBX 14 8 -1 0
BITMAP
1888AB34888AA4
00006300197450
0298AD80720450
06306400900450
05307200900450
00005400820650
00000888788950
00000000000220
ENDCHAR
STARTCHAR uni0928094D0928094D092F
ENCODING -1
SWIDTH 1071 0
DWIDTH 13 0
BBX 14 8 -1 0
BITMAP
188888888C88C8
00000000063090
03989B89A81090
08104401700090
031012009001A0
00000000498790
00000000000090
00000000000040
ENDCHAR
STARTCHAR uni0928094D092A094D0930
ENCODING -1
SWIDTH 737 0
DWIDTH 9 0
BBX 10 8 -1 0
BITMAP
18889B88C8
0000360090
0398A60090
08102700A0
0310068BA0
0000007390
0000055090
0000050040
ENDCHAR
STARTCHAR uni0928094D092B094D0930
ENCODING -1
SWIDTH 975 0
DWIDTH 12 0
BBX 13 8 -1 0
BITMAP
18889B88C88870
00003600B89400
0398A600B00900
08102701900900
0510068A900900
00000082949400
00000640900000
00000400400000
ENDCHAR
STARTCHAR uni0928094D092D094D092F
ENCODING -1
SWIDTH 1071 0
DWIDTH 13 0
BBX 14 8 -1 0
BITMAP
188892088C88C8
00002600063090
03989601A80090
08102B89700090
041026019001A0
00000000598890
00000000000090
00000000000040
ENDCHAR
STARTCHAR uni0928094D092D094D0935
ENCODING -1
SWIDTH 995 0
DWIDTH 12 0
BBX 14 8 -1 0
BITMAP
18889208888C81
00002600593900
02989600900900
08102B89700900
07102602700900
02101400900B00
00000000588A00
00000000000400
ENDCHAR
STARTCHAR uni0928094D092E094D092F
ENCODING -1
SWIDTH 1071 0
DWIDTH 13 0
BBX 14 8 -1 0
BITMAP
18889B888C88C8
00002600063090
03989601A80090
08102B89700090
041026019001A0
00000000598890
00000000000090
00000000000040
ENDCHAR
STARTCHAR uni0928094D0938094D091F
ENCODING -1
SWIDTH 1113 0
DWIDTH 13 0
BBX 15 8 -1 0
BITMAP
188888B98888B940
0000007200007100
0298808103202000
06304BB88C000000
04200A0009000500
0000055008000900
000000A003989400
0000003200000000
ENDCHAR
STARTCHAR uni0928094D0938094D092E094D092F
ENCODING -1
SWIDTH 1453 0
DWIDTH 17 0
BBX 19 8 -1 0
BITMAP
188888C88C9889C8AA40
00000080081000904500
03988090081069504500
07206AA88C98C1004500
03101900081064006500
00000640000008888500
000000A0000000004500
00000031000000002200
ENDCHAR
STARTCHAR uni0928094D0938094D092F
ENCODING -1
SWIDTH 1194 0
DWIDTH 14 0
BBX 16 8 -1 0
BITMAP
188888C888AB8B93
0000008000190720
0398709008720720
08106AB88B000720
0310190009100920
0000064002988A20
000000A000000720
0000003100000310
ENDCHAR
STARTCHAR uni092A094D0924094D092F
ENCODING -1
SWIDTH 1119 0
DWIDTH 13 0
BBX 15 8 -1 0
BITMAP
18C8888889C8AA40
0080000000904500
00800398A9504500
00900A0081004500
00599B0064006500
0000090008888500
0000083000004500
0000006200002200
ENDCHAR
STARTCHAR uni092C094D091C094D092F
ENCODING -1
SWIDTH 1235 0
DWIDTH 15 0
BBX 16 8 -1 0
BITMAP
18888888888C88C8
0069200000063090
02E2019B89A80090
046A000442700090
04537003619001A0
0270630550598790
00699B9800000090
0000000000000040
ENDCHAR
STARTCHAR uni092C094D0927094D0935
ENCODING -1
SWIDTH 1097 0
DWIDTH 13 0
BBX 15 8 -1 0
BITMAP
18888B922888C920
0068290003958100
029304B609008100
0456181009008100
0450890009008100
02803E100A00A100
006984989688A100
0000000000004000
ENDCHAR
STARTCHAR uni092C094D092D094D0930
ENCODING -1
SWIDTH 764 0
DWIDTH 9 0
BBX 11 8 -1 0
BITMAP
18888705C920
006829008100
02C209008100
045A2B88C100
0451BA02D100
02703A1A9100
006893918100
000003204000
ENDCHAR
STARTCHAR uni092C094D0932094D092F
ENCODING -1
SWIDTH 480 0
DWIDTH 6 0
BBX 17 8 -1 0
BITMAP
188888888888C88C80
006822983960630900
02D30911A043630900
03582900802B700900
03506A004017001A00
02702D000004887900
006884960000000900
000000000000000400
ENDCHAR
STARTCHAR uni092D094D0930094D092F
ENCODING -1
SWIDTH 830 0
DWIDTH 10 0
BBX 12 8 -1 0
BITMAP
193078B98C81
018000450900
01800A910900
01C889000900
01705A000B00
000454988A00
002700000900
004000000400
ENDCHAR
STARTCHAR uni092E094D092A094D0930
ENCODING -1
SWIDTH 765 0
DWIDTH 9 0
BBX 11 8 -1 0
BITMAP
18C88C88C920
018009008100
018009008100
01C88B009100
0170058BC100
000000378100
000001908100
000004104000
ENDCHAR
STARTCHAR uni092E094D092C094D092F
ENCODING -1
SWIDTH 1124 0
DWIDTH 13 0
BBX 15 8 -1 0
BITMAP
18C8888888C89B50
0180049400903600
01800A5059603600
01C8893572003600
01700803B4005600
0000090097888600
0000049930003600
0000000000001300
ENDCHAR
STARTCHAR uni092E094D092C094D0930
ENCODING -1
SWIDTH 768 0
DWIDTH 9 0
BBX 11 8 -1 0
BITMAP
18C88888B930
018003957200
01800A507200
01C889637200
018008089200
00400900D200
0000038BB200
000001723100
ENDCHAR
STARTCHAR uni092E094D092D094D092F
ENCODING -1
SWIDTH 1101 0
DWIDTH 13 0
BBX 15 8 -1 0
BITMAP
18C897068AB8B930
0180090001907200
0180090089307200
01C88C88B0007200
0170080091009200
000000002988A200
0000000000007200
0000000000003100
ENDCHAR
STARTCHAR uni092E094D092D094D0930
ENCODING -1
SWIDTH 759 0
DWIDTH 9 0
BBX 11 8 -1 0
BITMAP
18C89606C820
018009009000
018009009000
01C88C88C000
01800903D000
002002289000
000001909000
000003104000
ENDCHAR
STARTCHAR uni092E094D092D094D0935
ENCODING -1
SWIDTH 1028 0
DWIDTH 12 0
BBX 14 8 -1 0
BITMAP
18C89705888AA4
01800900296540
01800900810540
01C88C88B00540
01800900900540
00500500810740
00000000188940
00000000000220
ENDCHAR
STARTCHAR uni0932094D0915094D092F
ENCODING -1
SWIDTH 1534 0
DWIDTH 18 0
BBX 20 8 -1 0
BITMAP
1888888888B9889C8AA4
00000002857200090440
0078789C10788A850440
01806408007408000440
02603208007206300640
02700007108201888840
00982000438200000440
00000000003100000220
ENDCHAR
STARTCHAR uni0932094D0925094D092F
ENCODING -1
SWIDTH 1397 0
DWIDTH 17 0
BBX 18 8 -1 0
BITMAP
18888861A9448C88C7
000000054080072090
003065130182A80090
017063098923600090
0260320810028001A0
027000018887588790
009920000000000090
000000000000000040
ENDCHAR
STARTCHAR uni0932094D0926094D0930
ENCODING -1
SWIDTH 933 0
DWIDTH 11 0
BBX 13 8 -1 0
BITMAP
1888888888B930
0000000299A100
0078679B000000
01807508000000
02605309003400
02700008006500
0098200149A500
00000000572200
ENDCHAR
STARTCHAR uni0932094D0932094D092F
ENCODING -1
SWIDTH 1476 0
DWIDTH 18 0
BBX 19 8 -1 0
BITMAP
18888888888888C88C70
00685697984860710900
0180750A029052810900
0260530800803A700900
02603208004026002900
01700009000005887900
00892005950000000900
00000000000000000400
ENDCHAR
STARTCHAR uni0932094D0935094D0921
ENCODING -1
SWIDTH 1247 0
DWIDTH 15 0
BBX 17 8 -1 0
BITMAP
18888888888888C810
000000029604999000
007867AD0009000000
018075090009000000
026053080014888000
027010080072006300
009820004385118200
000000000006775000
ENDCHAR
STARTCHAR uni0937094D0915094D0930
ENCODING -1
SWIDTH 1042 0
DWIDTH 13 0
BBX 14 8 -1 0
BITMAP
18D888889B8885
009501882A8920
00816640280180
00901D20270080
00588920270080
00000340470180
0000007A975920
00000055130000
ENDCHAR
STARTCHAR uni0937094D091F094D092F
ENCODING -1
SWIDTH 997 0
DWIDTH 12 0
BBX 14 8 -1 0
BITMAP
18E88C88888C81
01872888940900
00807C00090900
00710207840900
02600127200B00
03600441888A00
01911910000900
00377300000400
ENDCHAR
STARTCHAR uni0937094D091F094D0930
ENCODING -1
SWIDTH 493 0
DWIDTH 6 0
BBX 7 10 -1 -2
BITMAP
18E88C80
01971800
00807B00
00998900
02700000
03600440
01910820
003CD400
00464700
00400400
ENDCHAR
STARTCHAR uni0937094D091F094D0935
ENCODING -1
SWIDTH 493 0
DWIDTH 6 0
BBX 7 10 -1 -2
BITMAP
18E88C80
01981900
00907B00
00998A00
01700110
02700540
00A98C00
00900800
01800900
00689300
ENDCHAR
STARTCHAR uni0937094D0920094D092F
ENCODING -1
SWIDTH 1006 0
DWIDTH 12 0
BBX 14 8 -1 0
BITMAP
18EFFF98888C82
00FFFFA8940900
00EFFE10090900
009FFB00090900
00A22836840900
02700456300C00
01900721888A00
00377400000400
ENDCHAR
STARTCHAR uni0937094D0920094D0930
ENCODING -1
SWIDTH 512 0
DWIDTH 6 0
BBX 8 10 -1 -2
BITMAP
18EFFF92
00FFFF20
00FFFF20
00AEEB00
01800630
02600440
01911820
003DD400
00564600
00500500
ENDCHAR
STARTCHAR uni0937094D0923094D092F
ENCODING -1
SWIDTH 1273 0
DWIDTH 15 0
BBX 17 8 -1 0
BITMAP
18D88C88C889B8B930
00A608009000906300
008278009079406300
00901D109090006300
005884885081008300
000000000018889300
000000000000006300
000000000000003100
ENDCHAR
STARTCHAR uni0937094D092A094D0930
ENCODING -1
SWIDTH 798 0
DWIDTH 10 0
BBX 11 8 -1 0
BITMAP
18D88B989B60
00B607102700
008277102700
00902D303700
00588378A700
000000192700
000000822700
000001301300
ENDCHAR
STARTCHAR uni0937094D092E094D092F
ENCODING -1
SWIDTH 1121 0
DWIDTH 13 0
BBX 15 8 -1 0
BITMAP
18D88B9889C8AB50
00A5071000904500
0082471069504500
00903B98C1004500
0069981064006500
0000000018888500
0000000000004500
0000000000002200
ENDCHAR
STARTCHAR uni0938094D0915094D0930
ENCODING -1
SWIDTH 1084 0
DWIDTH 13 0
BBX 15 8 -1 0
BITMAP
188C88888C888810
0009004949786000
000900A009107200
07AA889008005400
0370008008005400
009100900A007200
00280039BB186000
0005001714000000
ENDCHAR
STARTCHAR uni0938094D0915094D0935
ENCODING -1
SWIDTH 1369 0
DWIDTH 16 0
BBX 18 8 -1 0
BITMAP
188C88888C88888AA5
000900494979797450
000900A00910820450
07AA88900800900450
037000800800900450
009100800A00720650
002800398A00188950
000500000400000220
ENDCHAR
STARTCHAR uni0938094D0924094D092F
ENCODING -1
SWIDTH 1185 0
DWIDTH 14 0
BBX 16 8 -1 0
BITMAP
188C888888AB8B93
0009000000090720
000900388A930720
07AA88A009000720
0370009008100920
0091009001888A20
0028009200000720
0005002700000310
ENDCHAR
STARTCHAR uni0938094D0924094D0930
ENCODING -1
SWIDTH 818 0
DWIDTH 10 0
BBX 11 8 -1 0
BITMAP
188C88888C80
000900000900
000901998900
07AA89400A00
037000002A00
009100039900
002800580900
000501500400
ENDCHAR
STARTCHAR uni0938094D0924094D0935
ENCODING -1
SWIDTH 1126 0
DWIDTH 14 0
BBX 15 8 -1 0
BITMAP
188C888888889B50
0009000000882600
000900698A302600
07AA88A008102600
0370009008102600
0091009006304600
0028009201888600
0005002700001300
ENDCHAR
STARTCHAR uni0938094D0925094D092F
ENCODING -1
SWIDTH 1303 0
DWIDTH 16 0
BBX 17 8 -1 0
BITMAP
188C8449A258C88C60
000900513600901800
000900004549701800
07AA88A88054001800
037000800056003800
009100299966997800
002800000000001800
000500000000000400
ENDCHAR
STARTCHAR uni0938094D092A094D0930
ENCODING -1
SWIDTH 850 0
DWIDTH 10 0
BBX 12 8 -1 0
BITMAP
188C88C88B93
000900900710
000900900710
07AA88B00910
03700048AC10
009100037710
002800190710
000500410310
ENDCHAR
STARTCHAR uni0938094D092E094D092F
ENCODING -1
SWIDTH 1189 0
DWIDTH 14 0
BBX 16 8 -1 0
BITMAP
188C88C8889B8B93
0009008000090630
0009008008940630
07AA88C88B000630
0370008008100830
0091000001888930
0028000000000630
0005000000000310
ENDCHAR
STARTCHAR uni093F.a01
ENCODING -1
SWIDTH 231 0
DWIDTH 3 0
BBX 7 11 -1 0
BITMAP
00798960
00900090
00900010
18C70000
00900000
00900000
00900000
00900000
00900000
00900000
00400000
ENDCHAR
STARTCHAR uni093F.a04
ENCODING -1
SWIDTH 231 0
DWIDTH 3 0
BBX 9 11 -1 0
BITMAP
0079888930
0090000180
0090000010
18C7000000
0090000000
0090000000
0090000000
0090000000
0090000000
0090000000
0040000000
ENDCHAR
STARTCHAR uni093F.a05
ENCODING -1
SWIDTH 231 0
DWIDTH 3 0
BBX 10 11 -1 0
BITMAP
0079888890
0090000071
0090000010
18C7000000
0090000000
0090000000
0090000000
0090000000
0090000000
0090000000
0040000000
ENDCHAR
STARTCHAR uni093F.a06
ENCODING -1
SWIDTH 231 0
DWIDTH 3 0
BBX 10 11 -1 0
BITMAP
0079888894
0090000009
0090000001
18C7000000
0090000000
0090000000
0090000000
0090000000
0090000000
0090000000
0040000000
ENDCHAR
STARTCHAR uni093F.a07
ENCODING -1
SWIDTH 231 0
DWIDTH 3 0
BBX 11 11 -1 0
BITMAP
007988888900
009000000530
009000000110
18C700000000
009000000000
009000000000
009000000000
009000000000
009000000000
009000000000
004000000000
ENDCHAR
STARTCHAR uni093F.a08
ENCODING -1
SWIDTH 231 0
DWIDTH 3 0
BBX 11 11 -1 0
BITMAP
007988888960
009000000090
009000000010
18C700000000
009000000000
009000000000
009000000000
009000000000
009000000000
009000000000
004000000000
ENDCHAR
STARTCHAR uni093F.a09
ENCODING -1
SWIDTH 231 0
DWIDTH 3 0
BBX 12 11 -1 0
BITMAP
0079888888A1
009000000035
009000000001
18C700000000
009000000000
009000000000
009000000000
009000000000
009000000000
009000000000
004000000000
ENDCHAR
STARTCHAR uni093F.a10
ENCODING -1
SWIDTH 231 0
DWIDTH 3 0
BBX 12 11 -1 0
BITMAP
007988888897
009000000008
009000000001
18C700000000
009000000000
009000000000
009000000000
009000000000
009000000000
009000000000
004000000000
ENDCHAR
STARTCHAR uni093F.a11
ENCODING -1
SWIDTH 231 0
DWIDTH 3 0
BBX 13 11 -1 0
BITMAP
00798888888920
00900000000270
00900000000010
18C70000000000
00900000000000
00900000000000
00900000000000
00900000000000
00900000000000
00900000000000
00400000000000
ENDCHAR
STARTCHAR uni093F.a12
ENCODING -1
SWIDTH 231 0
DWIDTH 3 0
BBX 14 11 -1 0
BITMAP
00798888888880
00900000000081
00900000000010
18C70000000000
00900000000000
00900000000000
00900000000000
00900000000000
00900000000000
00900000000000
00400000000000
ENDCHAR
STARTCHAR uni093F.a13
ENCODING -1
SWIDTH 231 0
DWIDTH 3 0
BBX 14 11 -1 0
BITMAP
00798888888894
00900000000009
00900000000001
18C70000000000
00900000000000
00900000000000
00900000000000
00900000000000
00900000000000
00900000000000
00400000000000
ENDCHAR
STARTCHAR uni093F.a14
ENCODING -1
SWIDTH 231 0
DWIDTH 3 0
BBX 15 11 -1 0
BITMAP
0079888888888900
0090000000000630
0090000000000100
18C7000000000000
0090000000000000
0090000000000000
0090000000000000
0090000000000000
0090000000000000
0090000000000000
0040000000000000
ENDCHAR
STARTCHAR uni093F.a15
ENCODING -1
SWIDTH 231 0
DWIDTH 3 0
BBX 15 11 -1 0
BITMAP
0079888888888950
0090000000000090
0090000000000010
18C7000000000000
0090000000000000
0090000000000000
0090000000000000
0090000000000000
0090000000000000
0090000000000000
0040000000000000
ENDCHAR
STARTCHAR uni093F.a16
ENCODING -1
SWIDTH 231 0
DWIDTH 3 0
BBX 16 11 -1 0
BITMAP
0079888888888891
0090000000000045
0090000000000011
18C7000000000000
0090000000000000
0090000000000000
0090000000000000
0090000000000000
0090000000000000
0090000000000000
0040000000000000
ENDCHAR
STARTCHAR uni093F.a17
ENCODING -1
SWIDTH 231 0
DWIDTH 3 0
BBX 16 11 -1 0
BITMAP
0079888888888896
0090000000000009
0090000000000001
18C7000000000000
0090000000000000
0090000000000000
0090000000000000
0090000000000000
0090000000000000
0090000000000000
0040000000000000
ENDCHAR
STARTCHAR uni093F.a18
ENCODING -1
SWIDTH 231 0
DWIDTH 3 0
BBX 17 11 -1 0
BITMAP
007988888888888A20
009000000000000270
009000000000000010
18C700000000000000
009000000000000000
009000000000000000
009000000000000000
009000000000000000
009000000000000000
009000000000000000
004000000000000000
ENDCHAR
STARTCHAR uni093F.a19
ENCODING -1
SWIDTH 231 0
DWIDTH 3 0
BBX 17 11 -1 0
BITMAP
007988888888888880
009000000000000090
009000000000000010
18C700000000000000
009000000000000000
009000000000000000
009000000000000000
009000000000000000
009000000000000000
009000000000000000
004000000000000000
ENDCHAR
STARTCHAR uni093F.a20
ENCODING -1
SWIDTH 231 0
DWIDTH 3 0
BBX 18 11 -1 0
BITMAP
007988888888888893
009000000000000008
009000000000000001
18C700000000000000
009000000000000000
009000000000000000
009000000000000000
009000000000000000
009000000000000000
009000000000000000
004000000000000000
ENDCHAR
STARTCHAR uni093F.a21
ENCODING -1
SWIDTH 231 0
DWIDTH 3 0
BBX 19 11 -1 0
BITMAP
00798888888888888900
00900000000000000720
00900000000000000100
18C70000000000000000
00900000000000000000
00900000000000000000
00900000000000000000
00900000000000000000
00900000000000000000
00900000000000000000
00400000000000000000
ENDCHAR
STARTCHAR uni093F.a22
ENCODING -1
SWIDTH 231 0
DWIDTH 3 0
BBX 19 11 -1 0
BITMAP
00798888888888888950
00900000000000000090
00900000000000000010
18C70000000000000000
00900000000000000000
00900000000000000000
00900000000000000000
00900000000000000000
00900000000000000000
00900000000000000000
00400000000000000000
ENDCHAR
STARTCHAR uni093F.a23
ENCODING -1
SWIDTH 231 0
DWIDTH 3 0
BBX 20 11 -1 0
BITMAP
00798888888888888891
00900000000000000054
00900000000000000011
18C70000000000000000
00900000000000000000
00900000000000000000
00900000000000000000
00900000000000000000
00900000000000000000
00900000000000000000
00400000000000000000
ENDCHAR
STARTCHAR uni093F.a24
ENCODING -1
SWIDTH 231 0
DWIDTH 3 0
BBX 20 11 -1 0
BITMAP
00798888888888888896
00900000000000000009
00900000000000000001
18C70000000000000000
00900000000000000000
00900000000000000000
00900000000000000000
00900000000000000000
00900000000000000000
00900000000000000000
00400000000000000000
ENDCHAR
STARTCHAR uni093F.a25
ENCODING -1
SWIDTH 231 0
DWIDTH 3 0
BBX 21 11 -1 0
BITMAP
0079888888888888888A20
0090000000000000000360
0090000000000000000010
18C7000000000000000000
0090000000000000000000
0090000000000000000000
0090000000000000000000
0090000000000000000000
0090000000000000000000
0090000000000000000000
0040000000000000000000
ENDCHAR
STARTCHAR uni093F.a26
ENCODING -1
SWIDTH 231 0
DWIDTH 3 0
BBX 21 11 -1 0
BITMAP
0079888888888888888970
0090000000000000000090
0090000000000000000010
18C7000000000000000000
0090000000000000000000
0090000000000000000000
0090000000000000000000
0090000000000000000000
0090000000000000000000
0090000000000000000000
0040000000000000000000
ENDCHAR
STARTCHAR uni093F.a32
ENCODING -1
SWIDTH 231 0
DWIDTH 3 0
BBX 26 11 -1 0
BITMAP
00798888888888888888888890
00900000000000000000000053
00900000000000000000000011
18C70000000000000000000000
00900000000000000000000000
00900000000000000000000000
00900000000000000000000000
00900000000000000000000000
00900000000000000000000000
00900000000000000000000000
00400000000000000000000000
ENDCHAR
STARTCHAR uni093E0901
ENCODING -1
SWIDTH 231 0
DWIDTH 3 0
BBX 5 11 -1 0
BITMAP
206110
388810
000000
18C700
009000
009000
009000
009000
009000
009000
004000
ENDCHAR
STARTCHAR dvNG_GA
ENCODING -1
SWIDTH 562 0
DWIDTH 7 0
BBX 8 11 -1 -3
BITMAP
18888AA7
00788A30
01800033
00788820
00000180
02600080
00998A30
00170800
00360800
04810800
00000800
ENDCHAR
STARTCHAR dvNG_MA
ENCODING -1
SWIDTH 728 0
DWIDTH 9 0
BBX 10 11 -1 -3
BITMAP
18888C88C7
0068870090
0180000090
0180006090
0068870090
0130090090
00A8990090
0000630090
00006A8890
0000630090
0000000080
ENDCHAR
STARTCHAR dvNY_CA
ENCODING -1
SWIDTH 963 0
DWIDTH 12 0
BBX 13 8 -1 0
BITMAP
18888888889B50
02891000002700
0003608AA52700
0001C808002700
00017009003700
00035005988700
04980000002700
00000000001300
ENDCHAR
STARTCHAR dvTT_GA
ENCODING -1
SWIDTH 510 0
DWIDTH 6 0
BBX 8 11 -1 -3
BITMAP
18888C83
00000900
00688900
02800000
03600060
02800270
007B9B10
00170800
00360800
03810800
00000800
ENDCHAR
STARTCHAR dvTTH_TTHA
ENCODING -1
SWIDTH 511 0
DWIDTH 6 0
BBX 8 12 -1 -4
BITMAP
18888C82
00689800
02800720
03600530
01800720
00699A00
00013800
00988900
02700630
03600530
01800720
00699600
ENDCHAR
STARTCHAR dvDD_GA
ENCODING -1
SWIDTH 541 0
DWIDTH 6 0
BBX 8 11 -1 -3
BITMAP
18888AA5
00788A20
01800000
00788820
00000180
02600080
00998A30
00170800
00360800
04810800
00000800
ENDCHAR
STARTCHAR dvDDH_DDHA
ENCODING -1
SWIDTH 487 0
DWIDTH 6 0
BBX 7 10 -1 -2
BITMAP
18888C80
00688700
01800000
03608810
01814630
00998800
01800000
0260AA20
01813540
00688800
ENDCHAR
STARTCHAR dvSHA_MatraVocalicR
ENCODING -1
SWIDTH 558 0
DWIDTH 7 0
BBX 7 11 0 -3
BITMAP
09880C70
36090900
191A0900
06D50900
56068900
00002900
00000900
00039400
00081000
00081040
0003A860
ENDCHAR
STARTCHAR dvT_KH_NA
ENCODING -1
SWIDTH 1341 0
DWIDTH 16 0
BBX 18 8 -1 0
BITMAP
1888888C8888888C82
000000090894000900
003014095409788C00
02600B946209900900
045006405409800900
035000900884000900
019100370000000900
003600050000000400
ENDCHAR
STARTCHAR dvT_S_NA
ENCODING -1
SWIDTH 1169 0
DWIDTH 14 0
BBX 16 8 -1 0
BITMAP
1888888C88888C81
0000000900000900
0030040900788C00
02600AAA89800900
0450046000700900
0350009100000900
0191003700000900
0036000500000400
ENDCHAR
ENDFONT
